<svg width="16" height="16" viewBox="0 0 16 16" fill="none" xmlns="http://www.w3.org/2000/svg">
<g clip-path="url(#clip0_4230_178497)">
<path d="M8 2C11.314 2 14 4.68653 14 8C14 11.314 11.314 14 8 14C4.68653 14 2 11.3137 2 8C2 4.68653 4.68653 2 8 2Z" fill="#F5AC37"/>
<path d="M8.21915 8.42368H10.499C10.5476 8.42368 10.5706 8.42368 10.5741 8.35996C10.5927 8.12803 10.5927 7.89475 10.5741 7.66255C10.5741 7.61746 10.5517 7.59883 10.5028 7.59883H5.96543C5.90927 7.59883 5.89415 7.61746 5.89415 7.67011V8.33755C5.89415 8.42368 5.89415 8.42368 5.98406 8.42368H8.21915ZM10.3195 6.81879C10.326 6.80178 10.326 6.78315 10.3195 6.76641C10.2814 6.68352 10.2363 6.60441 10.184 6.53015C10.1051 6.40325 10.0122 6.28634 9.90639 6.18131C9.85644 6.11786 9.79866 6.06089 9.73386 6.01256C9.40932 5.73635 9.02348 5.54086 8.60876 5.44258C8.39951 5.3956 8.18566 5.37319 7.97128 5.37508H5.9576C5.90144 5.37508 5.89388 5.39749 5.89388 5.44636V6.77748C5.89388 6.83364 5.89388 6.84876 5.96516 6.84876H10.2925C10.2925 6.84876 10.33 6.8412 10.3376 6.81879H10.3192H10.3195ZM10.3195 9.20372C10.2558 9.1967 10.1915 9.1967 10.1278 9.20372H5.96921C5.91305 9.20372 5.89415 9.20372 5.89415 9.27878V10.5802C5.89415 10.6401 5.89415 10.6553 5.96921 10.6553H7.8892C7.981 10.6623 8.0728 10.6558 8.16271 10.6366C8.44136 10.6166 8.71541 10.5562 8.97677 10.4565C9.07181 10.4236 9.16361 10.3807 9.25029 10.3291H9.27648C9.72657 10.095 10.0922 9.72726 10.3227 9.27581C10.3227 9.27581 10.3489 9.21911 10.3195 9.20426V9.20372ZM5.14057 11.33V11.3076V10.4339V10.1377V9.25637C5.14057 9.2075 5.14057 9.20021 5.08063 9.20021H4.26685C4.22176 9.20021 4.20312 9.20021 4.20312 9.14027V8.42773H5.07307C5.12167 8.42773 5.14057 8.42773 5.14057 8.36401V7.65904C5.14057 7.61395 5.14057 7.60288 5.08063 7.60288H4.26685C4.22176 7.60288 4.20312 7.60288 4.20312 7.54293V6.88305C4.20312 6.84174 4.20313 6.83067 4.26307 6.83067H5.06929C5.12545 6.83067 5.14057 6.83067 5.14057 6.75939V4.73815C5.14057 4.67821 5.14057 4.66309 5.21564 4.66309H8.02798C8.23211 4.67119 8.43488 4.6936 8.63549 4.73059C9.04886 4.807 9.44604 4.95469 9.80919 5.16556C10.05 5.30731 10.2717 5.47849 10.4691 5.6756C10.6176 5.82977 10.7515 5.99663 10.8703 6.17429C10.9883 6.35438 11.0863 6.5469 11.1633 6.74805C11.1727 6.80043 11.2229 6.8358 11.2753 6.82689H11.9465C12.0327 6.82689 12.0327 6.82689 12.0364 6.90951V7.52457C12.0364 7.58452 12.014 7.59964 11.9538 7.59964H11.4362C11.3838 7.59964 11.3687 7.59964 11.3725 7.66714C11.393 7.89556 11.393 8.12479 11.3725 8.35321C11.3725 8.41693 11.3725 8.42449 11.4441 8.42449H12.0362C12.0624 8.45824 12.0362 8.49199 12.0362 8.52602C12.04 8.56949 12.04 8.6135 12.0362 8.65697V9.11084C12.0362 9.17456 12.0175 9.19346 11.9611 9.19346H11.2524C11.2029 9.18401 11.1549 9.2156 11.1435 9.26474C10.9748 9.7035 10.7048 10.0969 10.3559 10.4123C10.2285 10.527 10.0946 10.635 9.95472 10.7346C9.8046 10.821 9.65853 10.9109 9.50463 10.9822C9.22139 11.1097 8.92439 11.2036 8.61956 11.2633C8.33012 11.3151 8.03662 11.3386 7.74205 11.3346H5.13949V11.3308L5.14057 11.33Z" fill="#FEFEFD"/>
<rect x="0.5" y="0.5" width="15" height="15" rx="7.5" stroke="url(#paint0_linear_4230_178497)"/>
</g>
<defs>
<linearGradient id="paint0_linear_4230_178497" x1="15" y1="1" x2="1" y2="15" gradientUnits="userSpaceOnUse">
<stop stop-color="#B4519F"/>
<stop offset="1" stop-color="#31B8C5"/>
</linearGradient>
<clipPath id="clip0_4230_178497">
<rect width="16" height="16" fill="white"/>
</clipPath>
</defs>
</svg>
