<svg width="24" height="24" viewBox="0 0 24 24" fill="none" xmlns="http://www.w3.org/2000/svg">
<g clip-path="url(#clip0_14_2162)">
<rect width="24" height="24" fill="#6000FF"/>
<rect width="24" height="24" fill="#6000FF"/>
<path d="M9.92599 5.21225L8.75449 8.53984C8.7479 8.55849 8.74518 8.5783 8.74649 8.59807C8.7478 8.61778 8.7531 8.63708 8.76209 8.65467L9.85628 10.8063L6.84971 12.5113C6.84098 12.5163 6.83133 12.5194 6.82135 12.5204C6.81138 12.5215 6.80129 12.5205 6.79171 12.5175C6.78214 12.5145 6.77328 12.5096 6.76569 12.503C6.75811 12.4965 6.75195 12.4884 6.7476 12.4793L6.0974 11.1245C6.0865 11.1018 6.08165 11.0766 6.08333 11.0515C6.08502 11.0263 6.09317 11.0021 6.107 10.981L9.90003 5.19913C9.90205 5.19624 9.90506 5.19418 9.90848 5.19332C9.91191 5.19245 9.91553 5.19285 9.91868 5.19444C9.92184 5.19603 9.92431 5.19872 9.92565 5.20199C9.927 5.20526 9.92712 5.2089 9.92599 5.21225Z" fill="#D6D6DA"/>
<path d="M15.8133 9.66972L18.3035 14.9801C18.3164 15.0077 18.3204 15.0386 18.3149 15.0686C18.3094 15.0986 18.2947 15.1261 18.2729 15.1473L11.7248 21.4793C11.7144 21.4893 11.7014 21.4961 11.6873 21.4987C11.6732 21.5013 11.6585 21.4998 11.6453 21.4941C11.6321 21.4885 11.6208 21.4791 11.6128 21.4671C11.6048 21.4551 11.6006 21.4411 11.6006 21.4267V15.6052L15.7292 11.6172C15.7433 11.6037 15.7544 11.5875 15.7621 11.5696C15.7698 11.5517 15.7738 11.5324 15.774 11.513L15.7853 9.67565C15.7855 9.67236 15.7867 9.66926 15.7888 9.66676C15.7909 9.66426 15.7938 9.6625 15.797 9.66181C15.8002 9.66116 15.8035 9.66153 15.8064 9.66296C15.8094 9.6644 15.8118 9.66681 15.8133 9.66972Z" fill="#D6D6DA"/>
<path d="M9.85502 10.8059L6.28223 11.512L6.74659 12.4797C6.75094 12.4887 6.7571 12.4968 6.76469 12.5034C6.77228 12.51 6.78115 12.5149 6.79074 12.5179C6.80032 12.5209 6.81042 12.5219 6.82041 12.5209C6.83039 12.5198 6.84005 12.5166 6.84878 12.5117L9.85526 10.8066L9.85502 10.8059Z" fill="#B4B4BA"/>
<path d="M8.7461 8.57908L6.08984 11.0159C6.09386 11.0037 6.09948 10.992 6.10654 10.9812L9.89957 5.19932C9.90085 5.19729 9.90262 5.1956 9.90473 5.19443C9.90683 5.19326 9.90919 5.19264 9.91159 5.19263C9.91399 5.19257 9.91636 5.1931 9.9185 5.19416C9.92065 5.19523 9.9225 5.19679 9.9239 5.19873C9.9253 5.20068 9.9262 5.20295 9.92653 5.20532C9.92686 5.2077 9.92661 5.21011 9.92579 5.21236L8.75411 8.53988C8.74965 8.55251 8.74696 8.5657 8.7461 8.57908Z" fill="white"/>
<path d="M13.9877 13.2998L11.6006 18.8904V15.6058L13.9877 13.2998Z" fill="#B4B4BA"/>
<path d="M18.3148 15.071L15.7529 11.588C15.7667 11.5653 15.774 11.5393 15.7741 11.5128L15.7856 9.67559C15.7855 9.67369 15.7859 9.6718 15.7866 9.66999C15.7873 9.66823 15.7884 9.66661 15.7898 9.66527C15.7912 9.66393 15.7928 9.66282 15.7946 9.66208C15.7964 9.66138 15.7982 9.66101 15.8001 9.66101C15.8029 9.66097 15.8057 9.66175 15.8081 9.66323C15.8104 9.66472 15.8123 9.66684 15.8134 9.66939L18.3037 14.9799C18.3172 15.0082 18.321 15.0402 18.3148 15.071Z" fill="white"/>
<path d="M11.6547 2.51825L14.4197 9.2989C14.427 9.31681 14.4307 9.33597 14.4305 9.35532C14.4303 9.37466 14.4264 9.39378 14.4187 9.41155L9.95255 19.8718C9.94788 19.8827 9.94063 19.8924 9.93142 19.8999C9.92221 19.9073 9.91133 19.9125 9.8997 19.9148C9.88807 19.9172 9.87604 19.9166 9.86465 19.9133C9.85327 19.91 9.84286 19.9039 9.83433 19.8957L5.7263 15.9232C5.70079 15.8985 5.6851 15.8654 5.68215 15.83C5.6792 15.7947 5.68919 15.7594 5.71027 15.7309L11.5699 7.78417C11.5884 7.75899 11.5984 7.72859 11.5984 7.6973V2.52886C11.5986 2.52217 11.6011 2.51575 11.6055 2.51066C11.6098 2.50556 11.6157 2.50211 11.6223 2.50087C11.6289 2.49963 11.6357 2.50068 11.6416 2.50384C11.6475 2.507 11.6521 2.51209 11.6547 2.51825Z" fill="url(#paint0_linear_14_2162)"/>
<path d="M11.5928 7.74076L14.4314 9.34736C14.4306 9.3306 14.427 9.31413 14.4207 9.29862L11.6557 2.51823C11.6536 2.51281 11.6499 2.50815 11.6452 2.50489C11.6404 2.50164 11.6347 2.49993 11.6288 2.50001C11.6249 2.49991 11.6211 2.50059 11.6175 2.50202C11.6139 2.50346 11.6106 2.5056 11.6079 2.50834C11.6051 2.51107 11.603 2.51433 11.6015 2.51793C11.6 2.52153 11.5993 2.52538 11.5993 2.52926V7.69712C11.5994 7.71193 11.5972 7.72664 11.5928 7.74076Z" fill="white"/>
</g>
<defs>
<linearGradient id="paint0_linear_14_2162" x1="11.6834" y1="2.90093" x2="5.34136" y2="18.0108" gradientUnits="userSpaceOnUse">
<stop stop-color="#BBBBBF"/>
<stop offset="0.671" stop-color="#DBDBDF"/>
<stop offset="1" stop-color="white"/>
</linearGradient>
<clipPath id="clip0_14_2162">
<rect width="24" height="24" fill="white"/>
</clipPath>
</defs>
</svg>
