<svg width="16" height="16" viewBox="0 0 16 16" fill="none" xmlns="http://www.w3.org/2000/svg">
<g clipPath="url(#clip0_4230_178504)">
<rect x="0.5" y="0.5" width="15" height="15" rx="7.5" stroke="url(#paint0_linear_4230_178504)"/>
<path d="M8 14C11.325 14 14 11.325 14 8C14 4.67498 11.325 2 8 2C4.67498 2 2 4.67498 2 8C2 11.325 4.67498 14 8 14Z" fill="#2775CA"/>
<path d="M9.64978 8.95005C9.64978 8.07507 9.12478 7.77507 8.07478 7.65009C7.32478 7.55007 7.17478 7.35009 7.17478 7.00005C7.17478 6.65001 7.4248 6.42507 7.92478 6.42507C8.37478 6.42507 8.6248 6.57507 8.74978 6.95007C8.7748 7.02507 8.8498 7.07505 8.9248 7.07505H9.32476C9.42478 7.07505 9.49978 7.00005 9.49978 6.90009V6.87507C9.39976 6.32505 8.94976 5.90007 8.37478 5.85009V5.25009C8.37478 5.15007 8.29978 5.07507 8.1748 5.05005H7.7998C7.69978 5.05005 7.62478 5.12505 7.59976 5.25009V5.82507C6.84976 5.92509 6.3748 6.42507 6.3748 7.05009C6.3748 7.87509 6.87478 8.20005 7.92478 8.32509C8.6248 8.45007 8.8498 8.60007 8.8498 9.00009C8.8498 9.40011 8.49976 9.67509 8.0248 9.67509C7.37476 9.67509 7.14976 9.40005 7.07476 9.02505C7.0498 8.92509 6.9748 8.87505 6.8998 8.87505H6.47476C6.3748 8.87505 6.2998 8.95005 6.2998 9.05007V9.07509C6.39976 9.70005 6.79978 10.15 7.62478 10.2751V10.8751C7.62478 10.975 7.69978 11.05 7.82476 11.0751H8.19976C8.29978 11.0751 8.37478 11.0001 8.3998 10.8751V10.2751C9.1498 10.15 9.64978 9.62505 9.64978 8.95005Z" fill="white"/>
<path d="M6.725 11.575C4.775 10.875 3.77498 8.7 4.50002 6.77496C4.87502 5.72496 5.70002 4.92498 6.725 4.54998C6.82502 4.5 6.875 4.425 6.875 4.29996V3.94998C6.875 3.84996 6.82502 3.77496 6.725 3.75C6.69998 3.75 6.65 3.75 6.62498 3.77496C4.25 4.52496 2.94998 7.05 3.69998 9.42498C4.14998 10.825 5.225 11.9 6.62498 12.35C6.725 12.4 6.82502 12.35 6.84998 12.25C6.875 12.225 6.875 12.2 6.875 12.15V11.8C6.875 11.725 6.8 11.625 6.725 11.575ZM9.37502 3.77496C9.275 3.72498 9.17498 3.77496 9.15002 3.87498C9.125 3.9 9.125 3.92496 9.125 3.975V4.32498C9.125 4.425 9.2 4.52496 9.275 4.575C11.225 5.27496 12.225 7.44996 11.5 9.375C11.125 10.425 10.3 11.225 9.275 11.6C9.17498 11.65 9.125 11.725 9.125 11.85V12.2C9.125 12.3 9.17498 12.375 9.275 12.4C9.30002 12.4 9.35 12.4 9.37502 12.375C11.75 11.625 13.05 9.09996 12.3 6.72498C11.85 5.29998 10.75 4.22496 9.37502 3.77496Z" fill="white"/>
</g>
<defs>
<linearGradient id="paint0_linear_4230_178504" x1="15" y1="1" x2="1" y2="15" gradientUnits="userSpaceOnUse">
<stop stop-color="#B4519F"/>
<stop offset="1" stop-color="#31B8C5"/>
</linearGradient>
<clipPath id="clip0_4230_178504">
<rect width="16" height="16" fill="white"/>
</clipPath>
</defs>
</svg>
