<svg width="16" height="16" viewBox="0 0 16 16" fill="none" xmlns="http://www.w3.org/2000/svg">
<g clip-path="url(#clip0_4230_178521)">
<rect x="0.5" y="0.5" width="15" height="15" rx="7.5" stroke="url(#paint0_linear_4230_178521)"/>
<g clip-path="url(#clip1_4230_178521)">
<path d="M8 2C11.3136 2 14 4.68644 14 8C14 11.3136 11.3134 14 8 14C4.68656 14 2 11.3143 2 8C2 4.68572 4.68608 2 8 2Z" fill="#53AE94"/>
<path d="M8.74081 7.20027V6.30771H10.7819V4.94775H5.22397V6.30771H7.26529V7.19955C5.60629 7.27575 4.35889 7.60431 4.35889 7.99791C4.35889 8.39151 5.60689 8.72007 7.26529 8.79675V11.6558H8.74129V8.79651C10.3973 8.72007 11.6422 8.39175 11.6422 7.99851C11.6422 7.60527 10.3973 7.27695 8.74129 7.20051M8.74129 8.55435V8.55363C8.69965 8.55627 8.48569 8.56911 8.00929 8.56911C7.62841 8.56911 7.36045 8.55831 7.26601 8.55339V8.55459C5.80033 8.48967 4.70629 8.23443 4.70629 7.92903C4.70629 7.62363 5.80045 7.36875 7.26601 7.30371V8.30031C7.36201 8.30691 7.63657 8.32311 8.01553 8.32311C8.47069 8.32311 8.69953 8.30415 8.74153 8.30031V7.30371C10.2043 7.36887 11.2958 7.62435 11.2958 7.92867C11.2958 8.23299 10.2038 8.48859 8.74153 8.55375" fill="white"/>
</g>
</g>
<defs>
<linearGradient id="paint0_linear_4230_178521" x1="15" y1="1" x2="1" y2="15" gradientUnits="userSpaceOnUse">
<stop stop-color="#B4519F"/>
<stop offset="1" stop-color="#31B8C5"/>
</linearGradient>
<clipPath id="clip0_4230_178521">
<rect width="16" height="16" fill="white"/>
</clipPath>
<clipPath id="clip1_4230_178521">
<rect width="12" height="12" fill="white" transform="translate(2 2)"/>
</clipPath>
</defs>
</svg>
