<?xml version="1.0" encoding="utf-8"?>
<!-- Generator: Adobe Illustrator 25.1.0, SVG Export Plug-In . SVG Version: 6.00 Build 0)  -->
<svg version="1.1" id="Layer_1" xmlns="http://www.w3.org/2000/svg" xmlns:xlink="http://www.w3.org/1999/xlink" x="0px" y="0px"
	 viewBox="0 0 199.7 200" style="enable-background:new 0 0 199.7 200;" xml:space="preserve">
<style type="text/css">
	.st0{fill:#FAFAFA;}
	.st1{fill:#FFAF1D;}
	.st2{fill:#161616;}
</style>
<path class="st1" d="M117.1,200v-82.2c19.6,2.1,32.9,11.1,32.9,11.1l12.5-14.1c-20.5-14.6-50.9-15.2-50.9-15.2l-5-55.2
	c3.3-2.2,5.5-5.9,5.5-10.2c0-6.7-5.5-12.2-12.2-12.2s-12.2,5.5-12.2,12.2c0,4.3,2.2,8.1,5.5,10.2l-5,55.2c0,0-30.4,0.5-50.9,15.2
	l12.5,14.1c0,0,13.3-9,32.9-11.1V200C6.1,143.2-0.2,60.7,0,33.3c0-5.7,3.4-10.9,8.6-13.2C23.9,13.3,58.8,0,99.8,0
	c41,0,75.9,13.3,91.2,20.1c5.2,2.3,8.6,7.5,8.6,13.2C199.8,60.7,193.5,143.2,117.1,200z"/>
</svg>
