<svg width="14" height="14" viewBox="0 0 14 14" fill="none" xmlns="http://www.w3.org/2000/svg">
<g clip-path="url(#clip0_9459_405648)">
<path fill-rule="evenodd" clip-rule="evenodd" d="M2.91592 0H11.0835C12.6946 0 14 1.40448 14 3.13712V10.8629C14 12.5955 12.6946 14 11.0841 14H2.91592C1.30536 14 0 12.5955 0 10.8629V3.13712C0 1.40448 1.30536 0 2.91592 0Z" fill="#0052FF"/>
<path fill-rule="evenodd" clip-rule="evenodd" d="M7.00007 2.02777C9.74631 2.02777 11.9723 4.25377 11.9723 7.00001C11.9723 9.74625 9.74631 11.9723 7.00007 11.9723C4.25383 11.9723 2.02783 9.74625 2.02783 7.00001C2.02783 4.25377 4.25383 2.02777 7.00007 2.02777Z" fill="white"/>
<path fill-rule="evenodd" clip-rule="evenodd" d="M5.7752 5.41074H8.22408C8.42568 5.41074 8.58864 5.58658 8.58864 5.80274V8.19674C8.58864 8.41346 8.42512 8.58874 8.22408 8.58874H5.7752C5.5736 8.58874 5.41064 8.4129 5.41064 8.19674V5.80274C5.41064 5.58658 5.57416 5.41074 5.7752 5.41074Z" fill="#0052FF"/>
</g>
<defs>
<clipPath id="clip0_9459_405648">
<rect width="14" height="14" fill="white"/>
</clipPath>
</defs>
</svg>
