<svg width="16" height="16" viewBox="0 0 16 16" fill="none" xmlns="http://www.w3.org/2000/svg">
<g clip-path="url(#clip0_4045_167660)">
<path fill-rule="evenodd" clip-rule="evenodd" d="M3.24195 12.1292C2.28154 11.0234 1.7002 9.57956 1.7002 7.99995C1.7002 4.52056 4.5208 1.69995 8.0002 1.69995C9.60228 1.69995 11.0647 2.29796 12.1764 3.28294C12.0564 3.19873 11.8898 3.21023 11.7826 3.31744L11.2708 3.8292C10.37 3.12184 9.23436 2.7 8.0002 2.7C5.07309 2.7 2.7002 5.07289 2.7002 8C2.7002 9.23417 3.12204 10.3698 3.8294 11.2706L3.30789 11.7921C3.21677 11.8832 3.19479 12.0173 3.24195 12.1292ZM3.63599 12.5435C3.61612 12.5312 3.59736 12.5164 3.58012 12.4992L3.30789 12.227C3.27892 12.198 3.25694 12.1647 3.24195 12.1292C3.36702 12.2732 3.49851 12.4114 3.63599 12.5435ZM4.51831 11.9959C4.26661 11.7764 4.03584 11.5335 3.8294 11.2706L11.2708 3.8292C11.5337 4.03565 11.7766 4.26641 11.9961 4.51811L4.51831 11.9959ZM4.51831 11.9959C5.4496 12.8081 6.66745 13.3 8.0002 13.3C10.9273 13.3 13.3002 10.9271 13.3002 8C13.3002 6.66726 12.8083 5.4494 11.9961 4.51811L12.4897 4.02454C12.6098 3.90446 12.6098 3.70976 12.4897 3.58967L12.2406 3.34065C13.506 4.49294 14.3002 6.1537 14.3002 7.99995C14.3002 11.4793 11.4796 14.3 8.0002 14.3C6.30611 14.3 4.7682 13.6313 3.63599 12.5435C3.75455 12.6168 3.91214 12.6021 4.015 12.4992L4.51831 11.9959ZM12.2406 3.34065C12.2194 3.32127 12.1979 3.30203 12.1764 3.28294C12.1908 3.29305 12.2046 3.30455 12.2174 3.31744L12.2406 3.34065Z" fill="#808080"/>
</g>
<defs>
<clipPath id="clip0_4045_167660">
<rect width="16" height="16" fill="white"/>
</clipPath>
</defs>
</svg>
