<svg width="14" height="14" viewBox="0 0 14 14" fill="none" xmlns="http://www.w3.org/2000/svg">
<path fill-rule="evenodd" clip-rule="evenodd" d="M2.24195 11.2925C1.28154 10.1867 0.700195 8.74289 0.700195 7.16328C0.700195 3.68389 3.5208 0.863281 7.0002 0.863281C8.60228 0.863281 10.0647 1.46129 11.1764 2.44627C11.0564 2.36206 10.8898 2.37356 10.7826 2.48077L10.2708 2.99253C9.37 2.28517 8.23436 1.86333 7.0002 1.86333C4.07309 1.86333 1.7002 4.23622 1.7002 7.16333C1.7002 8.3975 2.12204 9.53314 2.8294 10.4339L2.30789 10.9554C2.21677 11.0466 2.19479 11.1806 2.24195 11.2925ZM2.63599 11.7068C2.61612 11.6945 2.59736 11.6798 2.58012 11.6625L2.30789 11.3903C2.27892 11.3613 2.25694 11.328 2.24195 11.2925C2.36702 11.4365 2.49851 11.5747 2.63599 11.7068ZM3.51831 11.1592C3.26661 10.9397 3.03584 10.6968 2.8294 10.4339L10.2708 2.99253C10.5337 3.19898 10.7766 3.42974 10.9961 3.68144L3.51831 11.1592ZM3.51831 11.1592C4.4496 11.9714 5.66745 12.4633 7.0002 12.4633C9.92731 12.4633 12.3002 10.0904 12.3002 7.16333C12.3002 5.83059 11.8083 4.61273 10.9961 3.68144L11.4897 3.18787C11.6098 3.06779 11.6098 2.87309 11.4897 2.753L11.2406 2.50398C12.506 3.65627 13.3002 5.31703 13.3002 7.16328C13.3002 10.6427 10.4796 13.4633 7.0002 13.4633C5.30611 13.4633 3.7682 12.7946 2.63599 11.7068C2.75455 11.7802 2.91214 11.7654 3.015 11.6625L3.51831 11.1592ZM11.2406 2.50398C11.2194 2.4846 11.1979 2.46536 11.1764 2.44627C11.1908 2.45638 11.2046 2.46788 11.2174 2.48077L11.2406 2.50398Z" fill="#333333"/>
</svg>
