<svg width="16" height="16" viewBox="0 0 16 16" fill="none" xmlns="http://www.w3.org/2000/svg">
<g clip-path="url(#clip0_3368_63670)">
<rect x="2" y="2" width="12" height="12" rx="6" fill="black"/>
<rect width="16" height="16" rx="8" fill="#003225"/>
<mask id="mask0_3368_63670" style="mask-type:alpha" maskUnits="userSpaceOnUse" x="0" y="0" width="16" height="16">
<rect width="16" height="16" rx="8" fill="#00261D"/>
</mask>
<g mask="url(#mask0_3368_63670)">
<rect x="10.728" y="-1" width="2" height="18" transform="rotate(45 10.728 -1)" fill="#026047"/>
<rect x="12.728" y="1" width="1.24742" height="18" transform="rotate(45 12.728 1)" fill="#026047"/>
<rect x="16.728" y="5" width="0.856056" height="18" transform="rotate(45 16.728 5)" fill="#026047"/>
<rect x="14.728" y="2" width="2.77216" height="18" transform="rotate(45 14.728 2)" fill="#026047"/>
<rect x="2" y="2" width="12" height="12" rx="6" fill="black" fill-opacity="0.32"/>
</g>
<path d="M7.07727 9.58695V9.4644C7.07968 9.04388 7.11692 8.70867 7.18901 8.45877C7.2635 8.20886 7.37163 8.00702 7.51341 7.85323C7.65518 7.69944 7.82579 7.56007 8.02523 7.43512C8.17421 7.339 8.30758 7.23928 8.42532 7.13595C8.54306 7.03262 8.63678 6.91849 8.70646 6.79353C8.77615 6.66618 8.81099 6.5244 8.81099 6.36821C8.81099 6.20241 8.77134 6.05703 8.69205 5.93208C8.61275 5.80713 8.50582 5.71101 8.37125 5.64373C8.23909 5.57645 8.09251 5.5428 7.93152 5.5428C7.77533 5.5428 7.62755 5.57765 7.48817 5.64733C7.3488 5.71461 7.23467 5.81554 7.14576 5.9501C7.05685 6.08226 7.00879 6.24686 7.00158 6.44391H5.53098C5.543 5.96332 5.65834 5.56683 5.87701 5.25445C6.09567 4.93967 6.38523 4.70538 6.74567 4.55159C7.10611 4.3954 7.50379 4.31731 7.93873 4.31731C8.41691 4.31731 8.83983 4.3966 9.20748 4.5552C9.57512 4.71139 9.86348 4.93847 10.0725 5.23643C10.2816 5.53439 10.3861 5.89363 10.3861 6.31415C10.3861 6.59529 10.3393 6.8452 10.2455 7.06386C10.1542 7.28013 10.0257 7.47236 9.85987 7.64057C9.69407 7.80637 9.49823 7.95655 9.27235 8.09112C9.08252 8.20406 8.92633 8.3218 8.80378 8.44435C8.68364 8.5669 8.59353 8.70867 8.53345 8.86967C8.47578 9.03067 8.44574 9.22891 8.44334 9.4644V9.58695H7.07727ZM7.79094 11.8938C7.55065 11.8938 7.3452 11.8097 7.17459 11.6415C7.00639 11.4708 6.92348 11.2666 6.92589 11.0287C6.92348 10.7932 7.00639 10.5914 7.17459 10.4232C7.3452 10.255 7.55065 10.1709 7.79094 10.1709C8.01922 10.1709 8.21987 10.255 8.39288 10.4232C8.56589 10.5914 8.6536 10.7932 8.656 11.0287C8.6536 11.1873 8.61155 11.3327 8.52985 11.4648C8.45055 11.5946 8.34602 11.6991 8.21626 11.7784C8.08651 11.8553 7.94473 11.8938 7.79094 11.8938Z" fill="#599988"/>
</g>
<defs>
<clipPath id="clip0_3368_63670">
<rect width="16" height="16" fill="white"/>
</clipPath>
</defs>
</svg>
