<svg width="16" height="16" viewBox="0 0 16 16" fill="none" xmlns="http://www.w3.org/2000/svg">

<circle cx="8" cy="8" r="7.55556" stroke="grey" strokeWidth="0.888889" stroke-dasharray="0.86 0.86"/>
<path fill-rule="evenodd" clip-rule="evenodd" d="M6.23467 11.0848V8.70562H5.14111V7.7341H6.23467V7.38859H5.14111V6.43887H6.23467V4.88452H8.71897C9.37056 4.88452 9.85252 5.04188 10.1648 5.35617C10.4776 5.6679 10.6338 6.14853 10.6338 6.79849C10.6338 7.2911 10.5184 7.68706 10.2878 7.98681C10.0571 8.28357 9.7355 8.48968 9.32384 8.60556L10.7213 11.0848H9.42865L8.14483 8.70348H7.39979V11.0848H6.23467ZM7.40021 7.72854H8.87219C9.23713 7.72854 9.41981 7.52243 9.41981 7.10979V6.47351C9.41981 6.26569 9.37898 6.11731 9.29732 6.02837C9.21861 5.93644 9.07675 5.89025 8.87219 5.89025H7.40021V7.72854Z" 
fill="grey"/>

</svg>