<svg width="16" height="16" viewBox="0 0 16 16" fill="none" xmlns="http://www.w3.org/2000/svg">
<g clip-path="url(#clip0_5820_372910)">
<mask id="mask0_5820_372910" style="mask-type:alpha" maskUnits="userSpaceOnUse" x="0" y="0" width="16" height="16">
<rect width="16" height="16" rx="8" fill="#D9D9D9"/>
</mask>
<g mask="url(#mask0_5820_372910)">
<rect width="16" height="16" rx="8" fill="#D9D9D9"/>
<g filter="url(#filter0_d_5820_372910)">
<path fill-rule="evenodd" clip-rule="evenodd" d="M13.9062 8C13.9062 11.2619 11.2619 13.9062 8 13.9062C4.73807 13.9062 2.09375 11.2619 2.09375 8C2.09375 4.73807 4.73807 2.09375 8 2.09375C11.2619 2.09375 13.9062 4.73807 13.9062 8ZM15 8C15 11.866 11.866 15 8 15C4.13401 15 1 11.866 1 8C1 4.13401 4.13401 1 8 1C11.866 1 15 4.13401 15 8ZM8.54688 3.90802V3.07812H7.45312V3.88393C7.37114 3.89767 7.28957 3.91491 7.20865 3.93567C6.71644 4.06193 6.26538 4.314 5.89908 4.66702C5.53278 5.02001 5.26368 5.46197 5.11742 5.94985C4.97119 6.43771 4.95268 6.95523 5.06367 7.45236C5.17467 7.94949 5.41147 8.40968 5.75149 8.78816C6.04851 9.1188 6.41553 9.37732 6.82474 9.5451C6.83669 9.59418 6.85244 9.64248 6.87195 9.68954C6.94654 9.86944 7.07283 10.0232 7.23481 10.1313C7.39682 10.2394 7.58724 10.297 7.78199 10.2969C8.04274 10.2965 8.29271 10.1927 8.47709 10.0083C8.66148 9.82396 8.76523 9.57399 8.76562 9.31324C8.76578 9.11849 8.70814 8.92807 8.60003 8.76606C8.49193 8.60408 8.33819 8.47779 8.15829 8.4032C7.97839 8.32861 7.7804 8.30905 7.58938 8.347C7.44871 8.37496 7.31645 8.43319 7.20152 8.51695C6.96006 8.41156 6.74289 8.25508 6.56513 8.05723C6.35095 7.81881 6.20133 7.5284 6.13115 7.21403C6.06096 6.89964 6.07266 6.57231 6.16512 6.26389C6.25757 5.9555 6.42749 5.67677 6.65806 5.45456C6.8886 5.23238 7.17192 5.07424 7.48042 4.9951C7.78891 4.91597 8.11244 4.9184 8.41972 5.00221C8.72702 5.08601 9.00798 5.24841 9.23519 5.47407C9.46245 5.69973 9.62822 5.98102 9.71605 6.29082L10.7683 5.99244C10.6294 5.50242 10.3669 5.05648 10.0059 4.69799C9.64493 4.3395 9.19772 4.08068 8.70746 3.94698C8.65422 3.93245 8.60067 3.91948 8.54688 3.90802ZM7.89062 7.83594C7.6743 7.83594 7.46284 7.7718 7.28298 7.6516C7.1031 7.53142 6.96291 7.36059 6.88013 7.16074C6.79736 6.96089 6.7757 6.74098 6.8179 6.52882C6.86009 6.31663 6.96426 6.12175 7.11723 5.9688C7.27018 5.81583 7.46507 5.71166 7.67726 5.66946C7.88942 5.62726 8.10933 5.64892 8.30918 5.73169C8.50903 5.81447 8.67985 5.95467 8.80003 6.13454C8.87522 6.24703 8.92846 6.37189 8.9578 6.50257C9.23668 6.61733 9.49761 6.77318 9.7309 6.96603C10.1244 7.29134 10.4263 7.71116 10.6053 8.18592C10.7843 8.66078 10.8338 9.17316 10.7483 9.67278C10.6628 10.1723 10.4457 10.6403 10.1198 11.0318C9.79406 11.4232 9.37093 11.7246 8.89261 11.9086C8.74428 11.9657 8.59207 12.011 8.4375 12.0442V12.9219H7.34375V12.0804C6.85073 12.008 6.38272 11.8169 5.98297 11.5227C5.57144 11.2198 5.24574 10.8177 5.03942 10.3539L6.03871 9.90927C6.16663 10.1968 6.37009 10.4496 6.63124 10.6418C6.89249 10.834 7.20218 10.9587 7.53045 11.0021C7.85878 11.0455 8.19283 11.006 8.49978 10.8879C8.80664 10.7698 9.07474 10.5777 9.27916 10.3321C9.48352 10.0866 9.61757 9.79581 9.67018 9.48831C9.72279 9.18088 9.69256 8.86533 9.58187 8.57175C9.47114 8.27803 9.2831 8.01492 9.03405 7.80905C8.9098 7.70635 8.77256 7.61973 8.62584 7.55106C8.42512 7.73356 8.16317 7.83552 7.89062 7.83594Z" fill="black"/>
</g>
</g>
</g>
<defs>
<filter id="filter0_d_5820_372910" x="-5.77419" y="-5.77419" width="27.5484" height="27.5484" filterUnits="userSpaceOnUse" color-interpolation-filters="sRGB">
<feFlood flood-opacity="0" result="BackgroundImageFix"/>
<feColorMatrix in="SourceAlpha" type="matrix" values="0 0 0 0 0 0 0 0 0 0 0 0 0 0 0 0 0 0 127 0" result="hardAlpha"/>
<feOffset/>
<feGaussianBlur stdDeviation="3.3871"/>
<feComposite in2="hardAlpha" operator="out"/>
<feColorMatrix type="matrix" values="0 0 0 0 1 0 0 0 0 1 0 0 0 0 1 0 0 0 0.35 0"/>
<feBlend mode="normal" in2="BackgroundImageFix" result="effect1_dropShadow_5820_372910"/>
<feBlend mode="normal" in="SourceGraphic" in2="effect1_dropShadow_5820_372910" result="shape"/>
</filter>
<clipPath id="clip0_5820_372910">
<rect width="16" height="16" fill="white"/>
</clipPath>
</defs>
</svg>