<?xml version="1.0" encoding="UTF-8"?>
<svg id="logosandtypes_com" data-name="logosandtypes com" xmlns="http://www.w3.org/2000/svg" xmlns:xlink="http://www.w3.org/1999/xlink" viewBox="0 0 150 150">
  <defs>
    <style>
      .cls-1 {
        fill: url(#linear-gradient-2);
      }

      .cls-2 {
        fill: #fff;
      }

      .cls-2, .cls-3, .cls-4, .cls-5 {
        fill-rule: evenodd;
      }

      .cls-3 {
        fill: #b3d2ff;
      }

      .cls-6 {
        fill: url(#linear-gradient-5);
      }

      .cls-4 {
        fill: #0dff81;
      }

      .cls-7 {
        fill: none;
      }

      .cls-5 {
        fill: #003580;
      }

      .cls-8 {
        fill: url(#linear-gradient-3);
      }

      .cls-9 {
        fill: url(#linear-gradient);
      }

      .cls-10 {
        fill: url(#linear-gradient-4);
      }
    </style>
    <linearGradient id="linear-gradient" x1="43.22" y1="2.25" x2="40.86" y2="21.54" gradientTransform="translate(0 149.49) scale(1 -1)" gradientUnits="userSpaceOnUse">
      <stop offset=".29" stop-color="#3a8bff"/>
      <stop offset="1" stop-color="#81b5ff"/>
    </linearGradient>
    <linearGradient id="linear-gradient-2" x1="73.68" y1="149.3" x2="27.14" y2="29.4" gradientTransform="translate(0 149.49) scale(1 -1)" gradientUnits="userSpaceOnUse">
      <stop offset=".29" stop-color="#0062ee"/>
      <stop offset="1" stop-color="#00398a"/>
    </linearGradient>
    <linearGradient id="linear-gradient-3" x1="97.26" y1="11.64" x2="113.03" y2="101.74" xlink:href="#linear-gradient-2"/>
    <linearGradient id="linear-gradient-4" x1="78.47" y1="-18.83" x2="78.47" y2="64.85" gradientTransform="translate(0 149.49) scale(1 -1)" gradientUnits="userSpaceOnUse">
      <stop offset=".29" stop-color="#b3d2ff"/>
      <stop offset="1" stop-color="#fff"/>
    </linearGradient>
    <linearGradient id="linear-gradient-5" x1="56.03" y1="109.89" x2="26.9" y2="127.99" xlink:href="#linear-gradient"/>
  </defs>
  <path class="cls-7" d="M0,0H150V150H0V0Z"/>
  <path class="cls-4" d="M39.14,78.79c-.9,.64-2.05,.82-3.09,.46l-3.04-1.04c-1.21-.41-1.86-1.73-1.45-2.95,.23-.68,.77-1.22,1.45-1.45l3.04-1.04c1.79-.61,3.73,.34,4.34,2.13,.49,1.43-.02,3.01-1.25,3.89"/>
  <path class="cls-2" d="M38.47,104.26c-.49-.85-.26-1.93,.53-2.5l7.08-5.1c1.25-.9,3-.62,3.91,.63,.06,.08,.11,.16,.15,.24,.77,1.33,.32,3.04-1.01,3.81,0,0,0,0-.01,0l-.26,.13-7.95,3.58c-.89,.4-1.95,.06-2.44-.79"/>
  <path class="cls-2" d="M50.14,55.47h0c-.4,.68-1.07,1.16-1.83,1.33-.77,.17-1.58,0-2.22-.46l-7.08-5.11c-.85-.62-1.04-1.81-.42-2.67,.53-.73,1.51-.99,2.33-.62l7.95,3.57c1.41,.63,2.04,2.27,1.42,3.68,0,0,0,0,0,0,0,.09-.09,.17-.13,.26"/>
  <path class="cls-9" d="M57.3,114.86l-.8,23.79h-22.34c-6.25,0-11.31-5.07-11.32-11.32h0v-5.06c11.88,.02,23.64-2.51,34.46-7.41"/>
  <path class="cls-2" d="M117.47,104.26c-.49,.85-1.54,1.19-2.44,.79l-7.95-3.58c-1.4-.62-2.04-2.26-1.41-3.67l.14-.28c.76-1.33,2.46-1.8,3.79-1.04,0,0,.02,.01,.03,.02l.24,.15,7.08,5.1c.79,.57,1.02,1.65,.53,2.5"/>
  <path class="cls-2" d="M116.93,51.24l-7.08,5.11c-1.26,.9-3.02,.6-3.92-.66l-.13-.21h0c-.79-1.31-.37-3.02,.95-3.81,0,0,0,0,0,0,.09-.06,.18-.11,.28-.14l7.95-3.57c.96-.43,2.09,0,2.53,.95,.37,.83,.12,1.8-.62,2.33"/>
  <path class="cls-3" d="M125.46,76.01c0,.99-.63,1.88-1.57,2.2l-3.05,1.04c-1.8,.59-3.72-.4-4.31-2.19-.58-1.76,.36-3.67,2.11-4.28,.71-.24,1.48-.24,2.2,0l3.05,1.04c.94,.32,1.57,1.2,1.57,2.2"/>
  <path class="cls-1" d="M50.37,53.23c.23,.75,.15,1.57-.24,2.25h0c-.4,.68-1.07,1.16-1.83,1.33-.77,.17-1.58,0-2.22-.46l-7.08-5.11c-.85-.62-1.04-1.81-.42-2.67,.53-.73,1.51-.99,2.33-.62l7.95,3.57c.72,.33,1.27,.95,1.51,1.7m0,46.56c-.24,.75-.8,1.37-1.52,1.69l-7.95,3.58c-.95,.46-2.09,.05-2.55-.9-.41-.85-.14-1.86,.64-2.4l7.08-5.1c1.25-.9,3-.62,3.91,.63,.06,.08,.11,.16,.15,.24,.39,.69,.47,1.5,.24,2.25m-14.32-20.53l-3.04-1.04c-1.21-.41-1.86-1.73-1.45-2.95,.23-.68,.77-1.22,1.45-1.45l3.04-1.04c1.78-.63,3.73,.31,4.36,2.09,.63,1.78-.31,3.73-2.09,4.36-.03,0-.05,.02-.08,.03-.71,.24-1.48,.24-2.2,0M71.27,13.12h-17.55c0,17.05-13.83,30.88-30.88,30.89V122.27c11.88,.02,23.64-2.51,34.46-7.41l1.37-40.45c-2.42-1.19-4.14-4.36-4.14-8.07,0-4.17,2.18-7.64,5.05-8.42,.39-2.51,1.28-4.92,2.62-7.09-1.27-.15-2.4-.89-3.07-1.99-2.6-3.82-6.1-7.73-8.79-14.07-.5-1.11-.36-2.41,.36-3.39,.56-.73,1.61-.87,2.34-.32,.07,.06,.14,.12,.21,.19,4.15,3.93,9.15,5.11,11.91,8.88,.2-.47,.47-.91,.79-1.3,1.61-2.08,4.41-2.82,6.84-1.8,.93-3.13,4.22-4.92,7.35-3.99,1.92,.57,3.42,2.07,3.99,3.99,1.25-.56,2.67-.63,3.97-.19,3.2-6.09,7.14-11.76,11.75-16.87-8.84-4.53-18.64-6.88-28.57-6.87"/>
  <path class="cls-3" d="M39.14,78.79c-.9,.64-2.05,.82-3.09,.46l-3.04-1.04c-1.21-.41-1.86-1.73-1.45-2.95,.23-.68,.77-1.22,1.45-1.45l3.04-1.04c1.79-.61,3.73,.34,4.34,2.13,.49,1.43-.02,3.01-1.25,3.89"/>
  <path class="cls-8" d="M123.89,78.21l-3.05,1.04c-1.8,.59-3.72-.4-4.31-2.19-.58-1.76,.36-3.67,2.11-4.28,.71-.24,1.48-.24,2.2,0l3.05,1.04c1.21,.41,1.86,1.73,1.45,2.95-.23,.68-.77,1.22-1.45,1.45m-6.43,26.05c-.49,.85-1.54,1.19-2.44,.79l-7.95-3.58c-1.4-.62-2.04-2.26-1.41-3.67l.14-.28c.76-1.33,2.46-1.8,3.79-1.04,0,0,.02,.01,.03,.02l.24,.15,7.08,5.1c.79,.57,1.02,1.65,.53,2.5m-11.92-51.03c.24-.75,.8-1.37,1.52-1.69l7.95-3.57c.96-.43,2.09,0,2.53,.95,.37,.83,.12,1.8-.62,2.33l-7.08,5.11c-1.26,.9-3.02,.6-3.92-.66l-.13-.21h0c-.4-.68-.5-1.51-.26-2.26m-.32-30.12c-1.75-1.13-3.54-2.17-5.4-3.12-4.6,5.11-8.55,10.78-11.75,16.87,1.13,.36,2.13,1.05,2.86,1.99,.32,.4,.58,.84,.79,1.3,2.59-3.54,7.14-4.34,11.13-8.15,.8-.83,2.08-.96,3.03-.3,.21,.14,.39,.31,.53,.52,.53,.68,.64,1.6,.28,2.39l-.11,.27c-2.67,6.21-6.16,10.16-8.74,13.97-.67,1.11-1.82,1.84-3.11,1.99,1.32,2.16,2.2,4.57,2.57,7.09,2.59,.71,4.6,3.57,4.98,7.18,.05,.41,.07,.83,.07,1.24,0,3.49-1.53,6.5-3.73,7.83-.13,.09-.27,.17-.41,.24v.6l1.91,56.59c20.8-10.79,33.85-32.28,33.85-55.71h0c.02-21.34-10.81-41.22-28.74-52.78"/>
  <path class="cls-10" d="M90.38,72.33c.7,1.26,.62,2.8-.21,3.98-2.72,3.97-6.53,6.99-11.38,6.99h-1.03c-4.19-.36-8.59-3.1-11.32-6.4-1.01-1.23-1.15-2.95-.35-4.33,1.07-1.78,1.63-3.82,1.63-5.89,0-1.95-.48-3.87-1.39-5.59-.69-1.25-.6-2.78,.21-3.94,.21,.28,.45,.53,.72,.75,1.98,1.55,4.75,1.59,6.77,.1,0,2.17,2.19,3.92,4.87,3.92,.24,.02,.49,.02,.74,0,2.35-.29,4.14-1.91,4.14-3.88,2.05,1.53,4.88,1.48,6.87-.14l.27-.24c.36,1.07,.23,2.24-.35,3.2-1.06,1.77-1.61,3.79-1.6,5.85,0,1.97,.49,3.9,1.43,5.63m16.03-40.13c-.14-.2-.32-.38-.53-.52-.94-.64-2.2-.51-2.99,.3-3.99,3.82-8.59,4.6-11.13,8.15-.21-.46-.48-.9-.79-1.3-.74-.93-1.73-1.62-2.86-1.99-1.3-.44-2.72-.37-3.97,.19-.93-3.13-4.22-4.92-7.35-3.99-1.92,.57-3.42,2.07-3.99,3.99-2.42-1.02-5.23-.29-6.84,1.8-.33,.39-.59,.83-.79,1.3-2.76-3.77-7.75-4.95-11.91-8.88-.61-.69-1.66-.75-2.35-.14,0,0,0,0-.01,.01-.09,.07-.16,.16-.23,.25-.73,.98-.87,2.28-.36,3.39,2.68,6.33,6.19,10.23,8.79,14.07,.67,1.11,1.82,1.84,3.1,1.99-1.34,2.16-2.22,4.57-2.62,7.09-2.86,.78-5.05,4.25-5.05,8.42,0,3.71,1.73,6.88,4.14,8.07l-1.37,40.45-.8,23.79h14.76c9.93,.02,19.73-2.34,28.57-6.87l.33-.18-1.9-56.59v-.6c.14-.07,.28-.15,.41-.24,2.21-1.33,3.73-4.34,3.73-7.83,0-.41-.02-.83-.07-1.24-.38-3.61-2.4-6.47-4.98-7.18-.38-2.52-1.27-4.93-2.62-7.09,1.29-.14,2.44-.88,3.11-1.99,2.58-3.82,6.06-7.76,8.74-13.97l.11-.27c.36-.78,.26-1.71-.28-2.39"/>
  <path class="cls-6" d="M53.72,13.12c0,17.05-13.83,30.88-30.88,30.89V24.44c0-6.25,5.07-11.31,11.32-11.32h19.57Z"/>
  <path class="cls-3" d="M84.12,67.75l-3.18,2.92c-.27,.26-.47,.59-.56,.95-.21,.84-.62,2.49-.95,4.06-.11,.44-.51,.74-.95,.73h0c-.45,.01-.85-.29-.95-.73l-1.01-4.06c-.09-.37-.29-.7-.56-.95l-3.18-2.92c-.37-.37-.37-.97,0-1.35,.21-.22,.51-.33,.81-.3l4.77,.65h.26l.37-.05,4.4-.6c.4-.04,.78,.17,.95,.53,.18,.38,.09,.83-.22,1.11m4.77-1.07c.02-2.05,.59-4.06,1.66-5.82,.56-.96,.67-2.11,.31-3.16l-.22,.2c-1.99,1.57-4.8,1.59-6.82,.06,0,1.95-1.78,3.59-4.14,3.86-.24,.02-.49,.02-.74,0-2.68,0-4.87-1.76-4.87-3.92-2.02,1.53-4.82,1.51-6.82-.06-.27-.22-.51-.48-.72-.75-.81,1.17-.9,2.7-.21,3.94,.93,1.74,1.41,3.68,1.39,5.65,0,2.05-.54,4.07-1.59,5.83-.79,1.38-.65,3.1,.35,4.33,2.74,3.29,7.12,6.04,11.32,6.4h1.03c4.85,0,8.66-3.02,11.38-6.99,.79-1.17,.85-2.69,.16-3.92-.94-1.73-1.43-3.67-1.43-5.63"/>
  <path class="cls-5" d="M84.12,67.75l-3.18,2.92c-.27,.26-.47,.59-.56,.95-.21,.84-.62,2.49-.95,4.06-.11,.44-.51,.74-.95,.73h0c-.45,.01-.85-.29-.95-.73l-1.01-4.06c-.09-.37-.29-.7-.56-.95l-3.18-2.92c-.37-.37-.37-.97,0-1.35,.21-.22,.51-.33,.81-.3l4.77,.65h.26l.37-.05,4.4-.6c.4-.04,.78,.17,.95,.53,.18,.38,.09,.83-.22,1.11"/>
</svg>