
<svg width="32" height="32" viewBox="0 0 32 32" fill="none" xmlns="http://www.w3.org/2000/svg">
<path d="M15.6518 4.4032V4.45065V7.27347V7.31188L15.6185 7.33108L11.6053 9.64805C11.6053 9.64805 11.6053 9.64805 11.6053 9.64805C11.441 9.74298 11.3845 9.95308 11.4794 10.1175C11.5743 10.2818 11.7844 10.3381 11.9489 10.2434L15.6518 4.4032ZM15.6518 4.4032L15.6069 4.38775C15.4609 4.33749 15.3282 4.25959 15.2138 4.16014L15.1779 4.12903L15.1369 4.15275L6.16196 9.33419L6.12037 9.3582L6.13006 9.40523C6.16245 9.56235 6.16225 9.72172 6.13378 9.87114L6.12489 9.91774L6.16607 9.94132L8.60899 11.3402L8.64218 11.3592L8.67531 11.34L10.0571 10.5422C10.2216 10.4474 10.4317 10.5036 10.5266 10.668C10.6215 10.8325 10.5651 11.0426 10.4008 11.1375L9.01974 11.9348L8.98647 11.954V11.9924V20.0093V20.0477L9.01973 20.0669L15.9622 24.0752L15.9954 24.0944L16.0287 24.0752L22.9716 20.0669L23.0049 20.0477V20.0093V11.9924V11.954L22.9716 11.9348L16.0287 7.9264L15.9954 7.90719L15.9622 7.9264L11.949 10.2433L15.6518 4.4032ZM27.3731 21.1843V21.2321L27.4183 21.2474C27.8902 21.4067 28.2308 21.8539 28.2308 22.3786C28.2308 23.406 27.0122 23.9486 26.2479 23.2719L26.212 23.2402L26.1705 23.2641L17.1991 28.4436L17.158 28.4673L17.167 28.5138C17.3097 29.2515 16.7416 29.9335 15.9957 29.9335C15.2503 29.9335 14.6817 29.2518 14.8243 28.5138L14.8333 28.4673L14.7922 28.4436L5.82584 23.2666L5.7845 23.2427L5.74865 23.2743C4.98146 23.9488 3.76867 23.4 3.76867 22.3783C3.76867 21.8567 4.10543 21.4118 4.57325 21.2502L4.61806 21.2348V21.1873V10.8385V10.7911L4.57328 10.7756C4.10543 10.6138 3.76867 10.1691 3.76867 9.64747C3.76867 8.63536 4.96115 8.08334 5.73235 8.73746L5.76807 8.76776L5.80864 8.74434L14.7925 3.55739L14.8336 3.53368L14.8246 3.48711C14.6818 2.75107 15.2475 2.06652 15.9958 2.06652C16.7425 2.06652 17.3099 2.74963 17.1669 3.48712L17.1579 3.53368L17.199 3.55739L26.1874 8.74684L26.2281 8.77035L26.2639 8.73981C27.0341 8.08195 28.2307 8.6331 28.2307 9.64722C28.2307 10.1718 27.8902 10.6186 27.4183 10.7779L27.3731 10.7932V10.841V21.1843ZM16.8545 4.15242L16.8134 4.1287L16.7776 4.15981C16.6632 4.25922 16.5297 4.33734 16.3836 4.38783L16.3388 4.40331V4.4507V7.27352V7.31193L16.372 7.33113L23.316 11.3401L23.349 11.3592L23.3822 11.3402L25.8328 9.94005L25.874 9.91654L25.8652 9.86996C25.8365 9.71801 25.8374 9.56051 25.8683 9.40928L25.8779 9.36232L25.8364 9.33836L16.8545 4.15242ZM5.82393 10.5374L5.7827 10.5137L5.747 10.5451C5.63216 10.6459 5.49769 10.7245 5.35022 10.7754L5.3054 10.7909V10.8383V21.1872V21.2346L5.35019 21.25C5.49576 21.3003 5.62859 21.3779 5.74256 21.4768L5.77842 21.508L5.81952 21.4842L8.266 20.0668L8.29917 20.0476V20.0092V11.9933V11.9548L8.26571 11.9356L5.82393 10.5374ZM6.16456 22.0784L6.12356 22.1021L6.1326 22.1487C6.1615 22.2972 6.16252 22.4513 6.13462 22.5997L6.1259 22.646L6.16673 22.6696L15.1361 27.848L15.1773 27.8718L15.2131 27.8405C15.3275 27.7408 15.461 27.6626 15.6073 27.6121L15.6521 27.5966V27.5492V24.7275V24.6891L15.6189 24.6699L8.67644 20.6618L8.64312 20.6425L8.60983 20.6618L6.16456 22.0784ZM16.3393 27.5489V27.5963L16.3841 27.6118C16.5305 27.6622 16.6638 27.7406 16.7784 27.8404L16.8142 27.8716L16.8554 27.8479L25.8323 22.6649L25.8729 22.6414L25.8644 22.5952C25.8372 22.4482 25.838 22.2962 25.8664 22.1497L25.8755 22.1032L25.8344 22.0794L23.3815 20.6615L23.3482 20.6423L23.315 20.6615L16.3725 24.6696L16.3393 24.6888V24.7272V27.5489ZM26.1789 21.4846L26.22 21.5083L26.2558 21.4772C26.3682 21.3796 26.4985 21.3027 26.6412 21.2522L26.6855 21.2366V21.1895V10.8351V10.7881L26.6412 10.7724C26.4964 10.7212 26.3645 10.6429 26.2512 10.5435L26.2155 10.5122L26.1743 10.5358L23.7253 11.935L23.6918 11.9541V11.9927V20.0086V20.047L23.725 20.0662L26.1789 21.4846ZM27.0255 21.8716L27.0237 21.8716C26.7511 21.8791 26.5316 22.1027 26.5316 22.3772C26.5316 22.6561 26.7585 22.883 27.0374 22.883C27.3166 22.883 27.543 22.6561 27.543 22.3772C27.543 22.0994 27.3183 21.8737 27.0412 21.8714L27.0396 21.8714L27.0292 21.8716H27.0286L27.0255 21.8716ZM27.5432 9.64685C27.5432 9.36793 27.3163 9.14108 27.0374 9.14108C26.7584 9.14108 26.5316 9.36793 26.5316 9.64685C26.5316 9.93085 26.7659 10.1524 27.0292 10.1524C27.3317 10.1524 27.5432 9.91367 27.5432 9.64685ZM16.5013 3.25892C16.5013 2.98 16.2744 2.75314 15.9955 2.75314C15.7166 2.75314 15.4897 2.98 15.4897 3.25892C15.4897 3.53785 15.7166 3.7647 15.9955 3.7647C16.2714 3.7647 16.5013 3.54045 16.5013 3.25892ZM5.46739 9.64685C5.46739 9.36793 5.24054 9.14108 4.96161 9.14108C4.68269 9.14108 4.45584 9.36793 4.45584 9.64685C4.45584 9.92578 4.68269 10.1526 4.96161 10.1526C5.24054 10.1526 5.46739 9.92578 5.46739 9.64685ZM4.45584 22.3772C4.45584 22.6561 4.68269 22.883 4.96161 22.883C5.24054 22.883 5.46739 22.6561 5.46739 22.3772C5.46739 22.0978 5.23985 21.8714 4.96161 21.8714C4.68269 21.8714 4.45584 22.0983 4.45584 22.3772ZM15.4897 28.7391C15.4897 29.0181 15.7166 29.2449 15.9955 29.2449C16.2744 29.2449 16.5013 29.0181 16.5013 28.7391C16.5013 28.4619 16.2763 28.2333 15.9955 28.2333C15.7166 28.2333 15.4897 28.4602 15.4897 28.7391Z" fill="currentColor" stroke="currentColor" stroke-width="0.133044"/>
<path d="M16.0003 12.5L12.667 15.8333M16.0003 12.5L19.3337 15.8333M16.0003 12.5V20.5" stroke="currentColor" stroke-width="1.4"/>
</svg>
