<svg width="21" height="20" viewBox="0 0 21 20" fill="none" xmlns="http://www.w3.org/2000/svg">
<rect x="0.875" width="20" height="20" rx="10" fill="#5865F2"/>
<g clip-path="url(#clip0_23080_24518)">
<path d="M14.346 6.84518C13.6889 6.54439 12.9953 6.33099 12.2829 6.21045C12.1854 6.38474 12.0972 6.56405 12.0186 6.74765C11.2597 6.63329 10.4879 6.63329 9.729 6.74765C9.6504 6.56407 9.56218 6.38476 9.46473 6.21045C8.7518 6.33201 8.05775 6.54591 7.40008 6.84676C6.09444 8.77848 5.7405 10.6622 5.91747 12.5192C6.68208 13.0842 7.53791 13.5138 8.44774 13.7895C8.65261 13.514 8.83389 13.2216 8.98966 12.9157C8.6938 12.8052 8.40823 12.6688 8.13627 12.5082C8.20785 12.4563 8.27785 12.4028 8.34549 12.3509C9.13682 12.7231 10.0005 12.916 10.875 12.916C11.7494 12.916 12.6131 12.7231 13.4045 12.3509C13.4729 12.4068 13.5429 12.4603 13.6137 12.5082C13.3412 12.6691 13.0551 12.8057 12.7587 12.9164C12.9143 13.2223 13.0956 13.5144 13.3006 13.7895C14.2113 13.5149 15.0677 13.0855 15.8325 12.52C16.0401 10.3665 15.4778 8.50005 14.346 6.84518ZM9.21382 11.3772C8.72067 11.3772 8.31324 10.9297 8.31324 10.3791C8.31324 9.82851 8.70651 9.37704 9.21225 9.37704C9.71799 9.37704 10.1223 9.82851 10.1136 10.3791C10.105 10.9297 9.71642 11.3772 9.21382 11.3772ZM12.5361 11.3772C12.0422 11.3772 11.6363 10.9297 11.6363 10.3791C11.6363 9.82851 12.0296 9.37704 12.5361 9.37704C13.0427 9.37704 13.4438 9.82851 13.4351 10.3791C13.4265 10.9297 13.0387 11.3772 12.5361 11.3772Z" fill="white"/>
</g>
<defs>
<clipPath id="clip0_23080_24518">
<rect x="5.875" y="5" width="10" height="10" rx="5" fill="white"/>
</clipPath>
</defs>
</svg>
