<svg width="16" height="16" viewBox="0 0 16 16" fill="none" xmlns="http://www.w3.org/2000/svg">
<g clip-path="url(#clip0_3275_60871)">
<path fill-rule="evenodd" clip-rule="evenodd" d="M0 8C0 3.58174 3.58174 0 8 0C12.4183 0 16 3.58174 16 8C16 12.4183 12.4183 16 8 16C3.58174 16 0 12.4183 0 8Z" fill="url(#paint0_linear_3275_60871)"/>
<path d="M5.16116 8.36672L4.8713 8.75798C4.80273 8.89367 4.90144 9.05411 5.05349 9.05411H6.00206C6.302 10.2941 7.16576 11.1397 8.32307 11.1222C9.14469 11.1222 9.76408 10.7137 10.1776 9.90028C10.2303 9.79675 10.1841 9.66969 10.078 9.62229L9.62559 9.42017C9.52598 9.37568 9.40856 9.41736 9.36027 9.51518C9.14671 9.94857 8.79186 10.2248 8.32307 10.2248C7.89864 10.2248 7.55814 10.0169 7.2973 9.59697C7.19534 9.43439 7.11422 9.25299 7.05248 9.05423H8.26738C8.34436 9.05423 8.41483 9.01087 8.44957 8.94218L8.73943 8.55092C8.808 8.41512 8.70929 8.25479 8.55724 8.25479H6.91578C6.91108 8.17064 6.90817 8.08482 6.90817 7.9963C6.90727 7.90857 6.90973 7.82274 6.91433 7.73815H8.26738C8.34436 7.73815 8.41483 7.69479 8.44957 7.6261L8.73943 7.23484C8.808 7.09916 8.70929 6.93871 8.55724 6.93871H7.05102C7.2713 6.22039 7.73125 5.7498 8.32307 5.7591C8.77394 5.7591 9.12408 6.00594 9.34861 6.41031C9.39892 6.50095 9.5122 6.53568 9.60699 6.49378L10.0618 6.29299C10.1706 6.24493 10.2168 6.11339 10.1593 6.0093C9.73954 5.2512 9.12744 4.87036 8.32307 4.87036C7.58906 4.87036 7.00105 5.16213 6.55455 5.7414C6.2936 6.08257 6.11186 6.4828 6.00408 6.93871H5.34346C5.26649 6.93871 5.19601 6.98207 5.16128 7.05075L4.87142 7.44201C4.80284 7.57781 4.90156 7.73815 5.0536 7.73815H5.89494C5.89091 7.82308 5.88699 7.90823 5.88699 7.9963C5.88587 8.08358 5.888 8.16963 5.8917 8.25479H5.34357C5.2666 8.25479 5.19612 8.29815 5.16139 8.36683L5.16116 8.36672Z" fill="white"/>
<path d="M2.73576 7.66305C2.90047 5.03313 5.01767 2.90932 7.64702 2.73688C9.02921 2.64624 10.3072 3.09274 11.2953 3.88613C11.3912 3.9631 11.5286 3.95963 11.6204 3.87772L12.0079 3.53195C12.1229 3.42943 12.1205 3.2477 12.0018 3.14954C10.8492 2.19694 9.35268 1.64624 7.72915 1.7147C4.50921 1.8505 1.88904 4.44052 1.71806 7.6589C1.64411 9.05094 2.02585 10.3521 2.72691 11.4271C2.81083 11.5558 2.99066 11.5781 3.1054 11.4758L3.49251 11.1304C3.58405 11.0487 3.60377 10.9129 3.53823 10.8093C2.96814 9.9073 2.66327 8.82204 2.73587 7.66305H2.73576Z" fill="white"/>
<path d="M13.2729 4.57297C13.189 4.44435 13.0092 4.42194 12.8945 4.52423L12.5073 4.86967C12.4158 4.95135 12.3961 5.08715 12.4616 5.19079C13.0317 6.09275 13.3367 7.17813 13.264 8.33712C13.0992 10.9669 10.982 13.0906 8.35261 13.2631C6.97042 13.3537 5.69255 12.9072 4.70431 12.1138C4.6084 12.0368 4.47104 12.0403 4.37927 12.1222L3.99182 12.468C3.87686 12.5705 3.87922 12.7522 3.99798 12.8504C5.1507 13.8031 6.64717 14.3537 8.27081 14.2852C11.4908 14.1493 14.1109 11.5592 14.2817 8.34082C14.3555 6.94888 13.9738 5.64771 13.2728 4.57297H13.2729Z" fill="white"/>
</g>
<defs>
<linearGradient id="paint0_linear_3275_60871" x1="17.8675" y1="17.8675" x2="6.55384" y2="6.55384" gradientUnits="userSpaceOnUse">
<stop stop-color="#8656EF"/>
<stop offset="0.97" stop-color="#1AA3FF"/>
</linearGradient>
<clipPath id="clip0_3275_60871">
<rect width="16" height="16" fill="white"/>
</clipPath>
</defs>
</svg>
