<svg width="16" height="16" viewBox="0 0 16 16" fill="none" xmlns="http://www.w3.org/2000/svg">
<g clip-path="url(#clip0_4230_178565)">
<path d="M8 0.25C12.28 0.25 15.75 3.71999 15.75 8C15.75 12.28 12.2799 15.75 8 15.75C3.72013 15.75 0.25 12.2809 0.25 8C0.25 3.71904 3.7195 0.25 8 0.25Z" fill="white" stroke="black" stroke-width="0.5"/>
<path d="M6.63384 1.1332C6.93017 1.0746 7.23323 1.03469 7.54173 1.01476L7.55785 1.26424C7.70398 1.2548 7.85141 1.25 8 1.25C8.14858 1.25 8.296 1.2548 8.44213 1.26424L8.45826 1.01476C8.76675 1.0347 9.0698 1.07462 9.36612 1.13325L9.3176 1.3785C9.60911 1.43617 9.89385 1.51262 10.1705 1.60653L10.2509 1.36979C10.5419 1.46856 10.8243 1.58594 11.0967 1.72053L10.9859 1.94466C11.2509 2.07562 11.5062 2.22348 11.7502 2.38684L11.8893 2.1791C12.1436 2.34937 12.3861 2.53586 12.6154 2.73709L12.4505 2.92499C12.672 3.11938 12.8806 3.32804 13.075 3.54952L13.2629 3.38461C13.4641 3.61389 13.6506 3.85642 13.8209 4.11074L13.6132 4.24982C13.7765 4.49383 13.9244 4.74906 14.0553 5.01409L14.2795 4.90334C14.4141 5.17573 14.5314 5.45813 14.6302 5.74912L14.3935 5.82947C14.4874 6.10615 14.5638 6.39089 14.6215 6.6824L14.8667 6.63388C14.9254 6.9302 14.9653 7.23325 14.9852 7.54174L14.7358 7.55787C14.7452 7.70399 14.75 7.85142 14.75 8C14.75 8.14858 14.7452 8.296 14.7358 8.44213L14.9852 8.45825C14.9653 8.76674 14.9254 9.06979 14.8667 9.36612L14.6215 9.31759C14.5638 9.6091 14.4874 9.89384 14.3935 10.1705L14.6302 10.2509C14.5314 10.5419 14.414 10.8243 14.2795 11.0966L14.0553 10.9859C13.9244 11.2509 13.7765 11.5061 13.6131 11.7502L13.8209 11.8892C13.6506 12.1436 13.4641 12.3861 13.2629 12.6154L13.075 12.4505C12.8806 12.6719 12.6719 12.8806 12.4505 13.075L12.6154 13.2629C12.3861 13.4641 12.1436 13.6506 11.8892 13.8209L11.7502 13.6131C11.5061 13.7765 11.2509 13.9244 10.9859 14.0553L11.0966 14.2794C10.8243 14.414 10.5419 14.5314 10.2509 14.6302L10.1705 14.3935C9.89384 14.4874 9.6091 14.5638 9.31759 14.6215L9.36612 14.8667C9.06979 14.9254 8.76674 14.9653 8.45825 14.9852L8.44213 14.7358C8.296 14.7452 8.14858 14.75 8 14.75C7.85142 14.75 7.70399 14.7452 7.55786 14.7358L7.54174 14.9852C7.23324 14.9653 6.93019 14.9254 6.63386 14.8668L6.68237 14.6215C6.39085 14.5639 6.1061 14.4874 5.82942 14.3935L5.74908 14.6303C5.45808 14.5315 5.17567 14.4141 4.90327 14.2796L5.01401 14.0554C4.74897 13.9245 4.49373 13.7766 4.24972 13.6133L4.11064 13.821C3.85631 13.6507 3.61377 13.4643 3.38448 13.263L3.54939 13.0751C3.3279 12.8807 3.11924 12.6721 2.92485 12.4506L2.73695 12.6155C2.53572 12.3862 2.34923 12.1437 2.17896 11.8894L2.38671 11.7503C2.22335 11.5063 2.0755 11.251 1.94455 10.986L1.72041 11.0967C1.58584 10.8243 1.46847 10.5419 1.36971 10.2509L1.60645 10.1706C1.51256 9.89391 1.43613 9.60916 1.37846 9.31764L1.13322 9.36615C1.0746 9.06982 1.03469 8.76677 1.01476 8.45826L1.26424 8.44214C1.2548 8.29602 1.25 8.14859 1.25 8C1.25 7.85141 1.2548 7.70398 1.26424 7.55785L1.01476 7.54173C1.03468 7.23322 1.07459 6.93016 1.1332 6.63384L1.37845 6.68234C1.43611 6.3908 1.51253 6.10605 1.60641 5.82937L1.36967 5.74904C1.46841 5.45802 1.58578 5.1756 1.72034 4.90321L1.94448 5.01394C2.07542 4.74888 2.22327 4.49364 2.38662 4.24963L2.17887 4.11055C2.34913 3.85622 2.53562 3.61367 2.73685 3.38438L2.92475 3.54929C3.11914 3.3278 3.3278 3.11914 3.54929 2.92476L3.38438 2.73686C3.61367 2.53563 3.85622 2.34914 4.11056 2.17888L4.24963 2.38663C4.49365 2.22328 4.74889 2.07544 5.01394 1.9445L4.90321 1.72036C5.17561 1.58579 5.45802 1.46843 5.74904 1.36968L5.82937 1.60642C6.10605 1.51254 6.39081 1.43611 6.68234 1.37845L6.63384 1.1332Z" fill="white" stroke="black" stroke-width="0.5" stroke-dasharray="0.88 0.88"/>
<path d="M8.81313 7.22418V6.24379H11.0551V4.75H4.95021V6.24379H7.19241V7.22339C5.37015 7.30709 4 7.66798 4 8.10031C4 8.53265 5.37081 8.89354 7.19241 8.97777V12.1181H8.81366V8.9775C10.6326 8.89354 12 8.53291 12 8.10097C12 7.66904 10.6321 7.30814 8.81313 7.22418ZM8.81366 8.71151C8.76792 8.71441 8.5329 8.72773 8.00962 8.72773C7.59126 8.72773 7.29693 8.71586 7.1932 8.71046V8.71178C5.58329 8.64047 4.38159 8.36011 4.38159 8.02466C4.38159 7.6892 5.58342 7.40924 7.1932 7.3378V8.43247C7.29865 8.43972 7.60022 8.45752 8.01648 8.45752C8.51643 8.45752 8.76779 8.43669 8.81392 8.43247V7.3378C10.4207 7.40937 11.6196 7.68999 11.6196 8.02426C11.6196 8.35853 10.4199 8.63994 8.81366 8.71151Z" fill="black"/>
</g>
<defs>
<clipPath id="clip0_4230_178565">
<rect width="16" height="16" fill="white"/>
</clipPath>
</defs>
</svg>
