<svg width="80" height="80" viewBox="0 0 80 80" fill="none" xmlns="http://www.w3.org/2000/svg">
<g clip-path="url(#clip0_1563_1393)">
<circle cx="40" cy="40" r="40" fill="white"/>
<path fill-rule="evenodd" clip-rule="evenodd" d="M25.6494 5.35452C30.1991 3.46996 35.0754 2.5 40 2.5C44.9246 2.5 49.8009 3.46997 54.3506 5.35452C58.9003 7.23907 63.0343 10.0013 66.5165 13.4835C69.9987 16.9657 72.7609 21.0997 74.6455 25.6494C76.2104 29.4275 77.1447 33.4308 77.4166 37.5H79.9218C79.6464 33.1022 78.6458 28.7742 76.9552 24.6927C74.945 19.8396 71.9986 15.4301 68.2843 11.7157C64.5699 8.00139 60.1604 5.05501 55.3073 3.04482C50.4543 1.03463 45.2529 0 40 0C34.7471 0 29.5457 1.03463 24.6927 3.04482C19.8396 5.055 15.4301 8.00138 11.7157 11.7157C8.00139 15.4301 5.05501 19.8396 3.04482 24.6927C1.03463 29.5457 0 34.7471 0 40C0 45.2529 1.03463 50.4543 3.04482 55.3073C5.05501 60.1604 8.00138 64.5699 11.7157 68.2843C15.4301 71.9986 19.8396 74.945 24.6927 76.9552C29.5457 78.9654 34.7471 80 40 80C45.2529 80 50.4543 78.9654 55.3073 76.9552C60.1604 74.945 64.5699 71.9986 68.2843 68.2843C71.9986 64.5699 74.945 60.1604 76.9552 55.3073C78.9654 50.4543 80 45.2529 80 40H77.5C77.5 44.9246 76.53 49.8009 74.6455 54.3506C72.7609 58.9003 69.9987 63.0343 66.5165 66.5165C63.0343 69.9987 58.9003 72.7609 54.3506 74.6455C49.8009 76.53 44.9246 77.5 40 77.5C35.0754 77.5 30.1991 76.53 25.6494 74.6455C21.0997 72.7609 16.9657 69.9987 13.4835 66.5165C10.0013 63.0343 7.23907 58.9003 5.35452 54.3506C3.46997 49.8009 2.5 44.9246 2.5 40C2.5 35.0754 3.46997 30.1991 5.35452 25.6494C7.23907 21.0997 10.0013 16.9657 13.4835 13.4835C16.9657 10.0013 21.0997 7.23907 25.6494 5.35452ZM72.5 40H75C74.9999 46.2678 73.3166 52.4205 70.126 57.8155C66.9353 63.2107 62.3542 67.6501 56.8614 70.6698C51.3686 73.6894 45.1657 75.1786 38.9007 74.9818C32.6357 74.7849 26.5385 72.9091 21.2461 69.5505C15.9538 66.1919 11.6605 61.4736 8.81482 55.8887C5.96916 50.3038 4.67553 44.0571 5.06911 37.8014C5.46269 31.5456 7.52902 25.5103 11.0522 20.3261C14.5754 15.1419 19.4262 10.9989 25.0978 8.33008L26.1622 10.5921C20.8958 13.0703 16.3915 16.9174 13.1199 21.7313C9.84838 26.5453 7.92964 32.1494 7.56418 37.9583C7.19871 43.7672 8.39993 49.5677 11.0423 54.7537C13.6847 59.9397 17.6714 64.321 22.5857 67.4397C27.5 70.5584 33.1617 72.3002 38.9792 72.483C44.7967 72.6658 50.5566 71.283 55.657 68.479C60.7575 65.675 65.0113 61.5527 67.9742 56.5429C70.9368 51.5333 72.4999 45.8201 72.5 40ZM14.4312 29.8767C16.1363 25.5699 18.9018 21.7636 22.4709 18.811L20.8773 16.8848C16.9838 20.1058 13.9669 24.2581 12.1067 28.9564C10.2465 33.6547 9.60324 38.7468 10.2366 43.7602C10.8699 48.7735 12.7593 53.5456 15.7295 57.6337C18.6997 61.7218 22.6544 64.9934 27.2266 67.145C31.7989 69.2965 36.8405 70.2583 41.8837 69.941C46.9269 69.6237 51.8083 68.0376 56.0748 65.33C60.3413 62.6224 63.8548 58.8809 66.2892 54.4528C68.7236 50.0246 70 45.0533 70 40.0002H67.5C67.5 44.6322 66.33 49.1893 64.0984 53.2484C61.8669 57.3075 58.6462 60.7372 54.7352 63.2192C50.8243 65.7012 46.3497 67.1551 41.7267 67.4459C37.1038 67.7368 32.4823 66.8552 28.2911 64.8829C24.0998 62.9107 20.4747 59.9117 17.752 56.1643C15.0294 52.4168 13.2974 48.0424 12.7169 43.4468C12.1363 38.8513 12.726 34.1835 14.4312 29.8767Z" fill="#F5AC37"/>
<path fill-rule="evenodd" clip-rule="evenodd" d="M53.8892 19.2133C49.778 16.4662 44.9445 15 40 15C36.7169 15 33.466 15.6466 30.4329 16.903C27.3997 18.1593 24.6437 20.0008 22.3223 22.3223C20.0008 24.6437 18.1593 27.3997 16.903 30.4329C15.6466 33.466 15 36.7169 15 40C15 44.9445 16.4662 49.778 19.2133 53.8892C21.9603 58.0005 25.8648 61.2048 30.4329 63.097C35.0011 64.9892 40.0277 65.4843 44.8773 64.5196C49.7268 63.555 54.1813 61.174 57.6777 57.6777C61.174 54.1813 63.555 49.7268 64.5196 44.8773C65.4843 40.0277 64.9892 35.0011 63.097 30.4329C61.2048 25.8648 58.0005 21.9603 53.8892 19.2133ZM50.421 41.7653H40.9213L31.6085 41.7654C31.2339 41.7654 31.2339 41.7654 31.2339 41.4065V38.6254C31.2339 38.4061 31.2969 38.3284 31.5309 38.3284H50.4367C50.6403 38.3284 50.7337 38.4061 50.7337 38.5939C50.8113 39.561 50.8113 40.5328 50.7337 41.4998C50.7191 41.7653 50.6235 41.7653 50.421 41.7653ZM49.6728 34.86C49.6998 34.9303 49.6998 35.008 49.6728 35.0783H49.7482C49.7167 35.1717 49.5603 35.2032 49.5603 35.2032H31.5297C31.2327 35.2032 31.2327 35.1402 31.2327 34.9062V29.3599C31.2327 29.1562 31.2642 29.0629 31.4982 29.0629H39.8886C40.7818 29.0545 41.6731 29.1489 42.5447 29.3441C44.2732 29.7539 45.8798 30.5678 47.2327 31.719C47.5021 31.9208 47.7438 32.1572 47.9515 32.4221C48.3924 32.8599 48.7805 33.3477 49.108 33.8756C49.3261 34.1858 49.5151 34.5153 49.6728 34.86ZM48.874 45.0155C49.1395 44.9862 49.4074 44.9862 49.6728 45.0155L49.6728 45.0178C49.7954 45.0796 49.6863 45.3159 49.6863 45.3159C48.7251 47.1967 47.2012 48.7308 45.3269 49.7046H45.2178C44.8568 49.9197 44.475 50.0976 44.0781 50.2356C42.9902 50.6501 41.8474 50.9029 40.6862 50.9859C40.312 51.0663 39.9282 51.0924 39.5466 51.0636H31.5466C31.2339 51.0636 31.2339 51.0006 31.2339 50.7508V45.3283C31.2339 45.0155 31.3126 45.0155 31.5466 45.0155H48.874ZM28.094 45.2349V53.875L28.0895 53.8783V53.8941H38.9334C40.1589 53.9119 41.3832 53.8124 42.5897 53.5971C43.8598 53.3492 45.0972 52.9563 46.2775 52.426C46.7892 52.1889 47.2802 51.9025 47.7755 51.6135C47.9009 51.5404 48.0265 51.467 48.1529 51.3943C48.7352 50.9787 49.2934 50.5302 49.8247 50.0511C51.2784 48.7367 52.4026 47.0988 53.1063 45.2698C53.1289 45.1713 53.1887 45.0853 53.2732 45.0299C53.3577 44.9746 53.4604 44.9541 53.5597 44.9728H56.5129C56.748 44.9728 56.8256 44.894 56.8256 44.6285V42.7374C56.8414 42.5558 56.8414 42.3733 56.8256 42.1917C56.8256 42.1444 56.8378 42.0972 56.8499 42.0501C56.8742 41.9561 56.8983 41.8624 56.8256 41.7687H54.3585C54.0603 41.7687 54.0603 41.7372 54.0603 41.4717C54.1458 40.5208 54.1458 39.564 54.0603 38.6131C54.0446 38.3318 54.1076 38.3318 54.3258 38.3318H56.4825C56.7334 38.3318 56.8267 38.2688 56.8267 38.0191V35.4563C56.811 35.112 56.811 35.112 56.4521 35.112H53.6553C53.55 35.1295 53.442 35.1049 53.3546 35.0434C53.2673 34.9819 53.2076 34.8886 53.1885 34.7835C52.8683 33.9452 52.4591 33.1438 51.9678 32.3929C51.4731 31.6522 50.9137 30.9568 50.2961 30.315C49.4729 29.4934 48.549 28.7794 47.5465 28.1898C46.0324 27.3098 44.3781 26.6967 42.6561 26.3774C41.8201 26.2236 40.9742 26.1296 40.1248 26.0962H28.4067C28.094 26.0962 28.094 26.1592 28.094 26.4089V34.8308C28.094 35.1278 28.031 35.1278 27.797 35.1278H24.4377C24.1879 35.1278 24.1879 35.1739 24.1879 35.346V38.0956C24.1879 38.3453 24.2656 38.3453 24.4534 38.3453H27.8442C28.094 38.3453 28.094 38.3914 28.094 38.5793V41.5167C28.094 41.7822 28.0152 41.7822 27.8127 41.7822H24.1879V44.7511C24.1879 45.0009 24.2656 45.0009 24.4534 45.0009H27.8442C28.094 45.0009 28.094 45.0313 28.094 45.2349Z" fill="#F5AC37"/>
</g>
<defs>
<clipPath id="clip0_1563_1393">
<rect width="80" height="80" fill="white"/>
</clipPath>
</defs>
</svg>
