<svg width="800" height="800" viewBox="0 0 800 800" fill="none" xmlns="http://www.w3.org/2000/svg">
<rect width="800" height="800" rx="400" fill="black"/>
<path fill-rule="evenodd" clip-rule="evenodd" d="M214.308 400.5C214.308 284.428 308.328 190.333 424.308 190.333H602V158H424.308C290.485 158 182 266.571 182 400.5V513.552C191.107 496.514 201.955 480.548 214.308 465.894V400.5ZM278.923 400.5C278.923 320.143 344.014 255 424.308 255H602V222.667H424.308C326.171 222.667 246.615 302.285 246.615 400.5V433.449C256.775 424.811 267.571 416.901 278.923 409.798V400.5ZM424.307 319.667C386.991 319.667 355.585 344.993 346.315 379.408C334.356 382.947 322.738 387.278 311.52 392.342C315.697 333.65 364.598 287.333 424.307 287.333H602V319.667H424.307ZM214.308 643C214.308 526.928 308.328 432.833 424.308 432.833H602V400.5H424.308C369.759 400.5 319.42 418.539 278.923 448.982L278.899 449C220.059 493.243 182 563.673 182 643H214.308ZM424.308 497.5C344.014 497.5 278.923 562.643 278.923 643H246.615C246.615 544.785 326.171 465.167 424.308 465.167H602V497.5H424.308ZM424.308 562.167C379.7 562.167 343.538 598.357 343.538 643H311.231C311.231 580.5 361.857 529.833 424.308 529.833H602V562.167H424.308Z" fill="white"/>
</svg>
