<svg width="16" height="16" viewBox="0 0 16 16" fill="none" xmlns="http://www.w3.org/2000/svg">
<g clip-path="url(#clip0_4045_167529)">
<path d="M8.03208 1V3.82023M8.03208 3.82023L5.66309 2.59545M8.03208 3.82023L10.3366 2.59545M8.03208 3.82023V14.9999" stroke="#808080" stroke-width="0.716339"/>
<path d="M1.95403 4.47207L4.39642 5.88219M4.39642 5.88219L2.15123 7.3214M4.39642 5.88219L4.48799 3.27401M4.39642 5.88219L14.0783 11.472" stroke="#808080" stroke-width="0.716339"/>
<path d="M1.92146 11.4721L4.36385 10.062M4.36385 10.062L4.48765 12.726M4.36385 10.062L2.15089 8.67856M4.36385 10.062L14.0458 4.4721" stroke="#808080" stroke-width="0.716339"/>
<path d="M7.96743 15L7.96743 12.1798M7.96743 12.1798L10.3364 13.4046M7.96743 12.1798L5.66289 13.4046M7.96743 12.1798L7.96743 1.00005" stroke="#808080" stroke-width="0.716339"/>
<path d="M14.046 11.5279L11.6036 10.1178M11.6036 10.1178L13.8488 8.6786M11.6036 10.1178L11.512 12.726M11.6036 10.1178L1.92166 4.52796" stroke="#808080" stroke-width="0.716339"/>
<path d="M14.0781 4.52793L11.6357 5.93805M11.6357 5.93805L11.5119 3.27404M11.6357 5.93805L13.8486 7.32144M11.6357 5.93805L1.95374 11.5279" stroke="#808080" stroke-width="0.716339"/>
</g>
<defs>
<clipPath id="clip0_4045_167529">
<rect width="16" height="16" fill="white"/>
</clipPath>
</defs>
</svg>
