<svg width="16" height="17" viewBox="0 0 16 17" fill="none" xmlns="http://www.w3.org/2000/svg">
<path d="M8.03306 1.5V4.32023M8.03306 4.32023L5.66406 3.09545M8.03306 4.32023L10.3376 3.09545M8.03306 4.32023V15.4999" stroke="#333333" strokeWidth="0.716339"/>
<path d="M1.95501 4.97183L4.3974 6.38194M4.3974 6.38194L2.15221 7.82116M4.3974 6.38194L4.48897 3.77376M4.3974 6.38194L14.0793 11.9718" stroke="#333333" strokeWidth="0.716339"/>
<path d="M1.92195 11.9718L4.36434 10.5617M4.36434 10.5617L4.48814 13.2257M4.36434 10.5617L2.15138 9.17832M4.36434 10.5617L14.0463 4.97185" stroke="#333333" strokeWidth="0.716339"/>
<path d="M7.96792 15.5L7.96792 12.6798M7.96792 12.6798L10.3369 13.9046M7.96792 12.6798L5.66338 13.9046M7.96792 12.6798L7.96792 1.50005" stroke="#333333" strokeWidth="0.716339"/>
<path d="M14.046 12.0282L11.6036 10.6181M11.6036 10.6181L13.8488 9.17884M11.6036 10.6181L11.512 13.2262M11.6036 10.6181L1.92166 5.0282" stroke="#333333" strokeWidth="0.716339"/>
<path d="M14.079 5.02817L11.6366 6.43829M11.6366 6.43829L11.5128 3.77429M11.6366 6.43829L13.8496 7.82168M11.6366 6.43829L1.95472 12.0281" stroke="#333333" strokeWidth="0.716339"/>
</svg>
