<svg width="80" height="80" viewBox="0 0 80 80" fill="none" xmlns="http://www.w3.org/2000/svg">
<g clip-path="url(#clip0_1582_1460)">
<circle cx="40" cy="40" r="40" fill="white"/>
<path fill-rule="evenodd" clip-rule="evenodd" d="M25.6494 5.35452C30.1991 3.46996 35.0754 2.5 40 2.5C44.9246 2.5 49.8009 3.46997 54.3506 5.35452C58.9003 7.23907 63.0343 10.0013 66.5165 13.4835C69.9987 16.9657 72.7609 21.0997 74.6455 25.6494C76.2104 29.4275 77.1447 33.4308 77.4166 37.5H79.9218C79.6464 33.1022 78.6458 28.7742 76.9552 24.6927C74.945 19.8396 71.9986 15.4301 68.2843 11.7157C64.5699 8.00139 60.1604 5.05501 55.3073 3.04482C50.4543 1.03463 45.2529 0 40 0C34.7471 0 29.5457 1.03463 24.6927 3.04482C19.8396 5.055 15.4301 8.00138 11.7157 11.7157C8.00139 15.4301 5.05501 19.8396 3.04482 24.6927C1.03463 29.5457 0 34.7471 0 40C0 45.2529 1.03463 50.4543 3.04482 55.3073C5.05501 60.1604 8.00138 64.5699 11.7157 68.2843C15.4301 71.9986 19.8396 74.945 24.6927 76.9552C29.5457 78.9654 34.7471 80 40 80C45.2529 80 50.4543 78.9654 55.3073 76.9552C60.1604 74.945 64.5699 71.9986 68.2843 68.2843C71.9986 64.5699 74.945 60.1604 76.9552 55.3073C78.9654 50.4543 80 45.2529 80 40H77.5C77.5 44.9246 76.53 49.8009 74.6455 54.3506C72.7609 58.9003 69.9987 63.0343 66.5165 66.5165C63.0343 69.9987 58.9003 72.7609 54.3506 74.6455C49.8009 76.53 44.9246 77.5 40 77.5C35.0754 77.5 30.1991 76.53 25.6494 74.6455C21.0997 72.7609 16.9657 69.9987 13.4835 66.5165C10.0013 63.0343 7.23907 58.9003 5.35452 54.3506C3.46997 49.8009 2.5 44.9246 2.5 40C2.5 35.0754 3.46997 30.1991 5.35452 25.6494C7.23907 21.0997 10.0013 16.9657 13.4835 13.4835C16.9657 10.0013 21.0997 7.23907 25.6494 5.35452ZM72.5 40H75C74.9999 46.2678 73.3166 52.4205 70.126 57.8155C66.9353 63.2107 62.3542 67.6501 56.8614 70.6698C51.3686 73.6894 45.1657 75.1786 38.9007 74.9818C32.6357 74.7849 26.5385 72.9091 21.2461 69.5505C15.9538 66.1919 11.6605 61.4736 8.81482 55.8887C5.96916 50.3038 4.67553 44.0571 5.06911 37.8014C5.46269 31.5456 7.52902 25.5103 11.0522 20.3261C14.5754 15.1419 19.4262 10.9989 25.0978 8.33008L26.1622 10.5921C20.8958 13.0703 16.3915 16.9174 13.1199 21.7313C9.84838 26.5453 7.92964 32.1494 7.56418 37.9583C7.19871 43.7672 8.39993 49.5677 11.0423 54.7537C13.6847 59.9397 17.6714 64.321 22.5857 67.4397C27.5 70.5584 33.1617 72.3002 38.9792 72.483C44.7967 72.6658 50.5566 71.283 55.657 68.479C60.7575 65.675 65.0113 61.5527 67.9742 56.5429C70.9368 51.5333 72.4999 45.8201 72.5 40ZM14.4312 29.8767C16.1363 25.5699 18.9018 21.7636 22.4709 18.811L20.8773 16.8848C16.9838 20.1058 13.9669 24.2581 12.1067 28.9564C10.2465 33.6547 9.60324 38.7468 10.2366 43.7602C10.8699 48.7735 12.7593 53.5456 15.7295 57.6337C18.6997 61.7218 22.6544 64.9934 27.2266 67.145C31.7989 69.2965 36.8405 70.2583 41.8837 69.941C46.9269 69.6237 51.8083 68.0376 56.0748 65.33C60.3413 62.6224 63.8548 58.8809 66.2892 54.4528C68.7236 50.0246 70 45.0533 70 40.0002H67.5C67.5 44.6322 66.33 49.1893 64.0984 53.2484C61.8669 57.3075 58.6462 60.7372 54.7352 63.2192C50.8243 65.7012 46.3497 67.1551 41.7267 67.4459C37.1038 67.7368 32.4823 66.8552 28.2911 64.8829C24.0998 62.9107 20.4747 59.9117 17.752 56.1643C15.0294 52.4168 13.2974 48.0424 12.7169 43.4468C12.1363 38.8513 12.726 34.1835 14.4312 29.8767Z" fill="#53AE94"/>
<path fill-rule="evenodd" clip-rule="evenodd" d="M65 40C65 26.1935 53.8065 15 40 15C26.192 15 15 26.1905 15 40C15 53.8095 26.194 65 40 65C53.806 65 65 53.8065 65 40ZM42.8233 31.7424V35.4385L42.8251 35.4395C49.141 35.756 53.8888 37.1156 53.8888 38.744C53.8888 40.3724 49.141 41.732 42.8251 42.0485V53.8886H37.1958V42.0495C30.8708 41.732 26.1111 40.3714 26.1111 38.7415C26.1111 37.1116 30.8685 35.7511 37.1958 35.4355V31.7424H29.4104V26.1108H50.6078V31.7424H42.8233ZM42.8251 41.0428V41.0457L42.8261 41.0433C48.4032 40.7734 52.568 39.715 52.568 38.4548C52.568 37.1946 48.405 36.1367 42.8261 35.8669V39.9938C42.6659 40.0097 41.7931 40.0882 40.0572 40.0882C38.6118 40.0882 37.5647 40.0211 37.1986 39.9938V35.8669C31.609 36.1362 27.436 37.1916 27.436 38.4563C27.436 39.721 31.6086 40.7779 37.1986 41.0467V41.0418C37.5587 41.0621 38.5807 41.1069 40.0334 41.1069C41.8503 41.1069 42.6663 41.0537 42.8251 41.0428Z" fill="#53AE94"/>
</g>
<defs>
<clipPath id="clip0_1582_1460">
<rect width="80" height="80" fill="white"/>
</clipPath>
</defs>
</svg>
