<svg width="24" height="24" viewBox="0 0 24 24" fill="none" xmlns="http://www.w3.org/2000/svg">
<path d="M12.5028 11.5432C13.4005 11.0239 13.0246 9.65348 11.9969 9.65348C10.9676 9.65348 10.5946 11.0247 11.4909 11.5432M12.5028 11.5432L12.9865 11.9948C14.2656 11.0397 13.5806 9.00879 11.9969 9.00879C11.0832 9.00879 10.3398 9.75215 10.3398 10.6658C10.3398 11.1908 10.5914 11.6844 11.0072 11.9949V12.447C11.0072 12.625 11.1515 12.7693 11.3295 12.7693C11.5075 12.7693 11.6517 12.625 11.6517 12.447V11.8222C11.6517 11.7071 11.5904 11.6009 11.4909 11.5432M12.5028 11.5432C12.4032 11.6007 12.342 11.7071 12.342 11.8222V14.0028C12.342 14.1931 12.1872 14.3479 11.9969 14.3479C11.8066 14.3479 11.6517 14.1931 11.6517 14.0028V13.8515C11.6517 13.6914 11.535 13.5585 11.382 13.5335L12.5028 11.5432ZM11.4909 11.5432L11.4647 11.5884C11.4647 11.5884 11.4647 11.5884 11.4647 11.5884M11.4909 11.5432L11.4647 11.5884C11.4647 11.5884 11.4647 11.5884 11.4647 11.5884M11.4647 11.5884C10.5219 11.043 10.9145 9.60121 11.9969 9.60121C13.0775 9.60121 13.4734 11.0421 12.529 11.5884L12.529 11.5884C12.4456 11.6366 12.3943 11.7257 12.3943 11.8222V14.0028C12.3943 14.222 12.216 14.4002 11.9969 14.4002C11.7777 14.4002 11.5995 14.222 11.5995 14.0028V13.8515C11.5995 13.7024 11.4786 13.5815 11.3295 13.5815H11.3191C11.1748 13.587 11.0595 13.7056 11.0595 13.8513V14.0026C11.0595 14.5195 11.4801 14.94 11.9969 14.94C12.5137 14.94 12.9343 14.5194 12.9343 14.0026V11.9948V11.9686L12.9553 11.9529C14.1938 11.0281 13.5306 9.06106 11.9969 9.06106C11.1121 9.06106 10.3921 9.78101 10.3921 10.6658C10.3921 11.1741 10.6357 11.6522 11.0385 11.9531L11.0595 11.9687V11.9949V12.447C11.0595 12.5962 11.1803 12.717 11.3295 12.717C11.4786 12.717 11.5995 12.5962 11.5995 12.447V11.8222C11.5995 11.7258 11.5481 11.6368 11.4647 11.5884Z" fill="#333333" stroke="#F9F8F4" strokeWidth="0.104534"/>
<path d="M7.28176 14.5668V9.43399C7.28176 9.33757 7.33318 9.24848 7.41674 9.20027L7.41676 9.20026L11.8619 6.63384C11.9455 6.58563 12.0483 6.58562 12.1319 6.63383C12.1319 6.63384 12.1319 6.63384 12.1319 6.63384L16.577 9.20024C16.6606 9.24862 16.712 9.33773 16.712 9.43414V10.6305C16.712 10.7796 16.5912 10.9005 16.442 10.9005C16.2929 10.9005 16.172 10.7796 16.172 10.6305V9.62027V9.5901L16.1459 9.57501L12.0229 7.19456L11.9968 7.17947L11.9706 7.19456L7.84764 9.57501L7.82151 9.5901V9.62027V14.3809V14.411L7.84764 14.4261L11.9706 16.8064L11.9968 16.8215L12.0229 16.8064L16.1459 14.4261L16.172 14.411V14.3809V12.0349C16.172 11.8858 16.2929 11.765 16.442 11.765C16.5912 11.765 16.712 11.8858 16.712 12.0349V14.5668C16.712 14.6634 16.6606 14.7525 16.577 14.8007L16.577 14.8007L12.1319 17.3671C12.1319 17.3671 12.1319 17.3671 12.1319 17.3672C12.0483 17.4154 11.9455 17.4154 11.8619 17.3671L7.4168 14.8007C7.33317 14.7524 7.28176 14.6633 7.28176 14.5668Z" fill="#333333" stroke="#F9F8F4" strokeWidth="0.104534"/>
<path d="M11.7269 2.88823V2.92551V5.14344V5.17362L11.7008 5.1887L8.5475 7.00918C8.4184 7.08376 8.37406 7.24884 8.44861 7.37805C8.52316 7.5071 8.68823 7.55137 8.81749 7.47693L11.7269 2.88823ZM11.7269 2.88823L11.6916 2.87609C11.5769 2.8366 11.4726 2.77539 11.3827 2.69726L11.3546 2.67281L11.3223 2.69144L4.2706 6.76258L4.23792 6.78144L4.24554 6.8184C4.27098 6.94185 4.27083 7.06707 4.24846 7.18446L4.24148 7.22108L4.27383 7.23961L6.19327 8.33869L6.21935 8.35363L6.24537 8.3386L7.33106 7.71175C7.46035 7.63726 7.62542 7.68142 7.69997 7.81059C7.77453 7.9398 7.7302 8.10488 7.6011 8.17947C7.60109 8.17948 7.60109 8.17948 7.60108 8.17948L6.516 8.80588L6.48986 8.82096V8.85114V15.1501V15.1803L6.51599 15.1954L11.9708 18.3448L11.9969 18.3599L12.023 18.3448L17.4782 15.1954L17.5043 15.1803V15.1501V8.85114V8.82097L17.4782 8.80588L12.023 5.65645L11.9969 5.64137L11.9708 5.65645L8.81753 7.47691L11.7269 2.88823ZM20.9365 16.0734V16.1109L20.972 16.1229C21.3428 16.2481 21.6104 16.5995 21.6104 17.0117C21.6104 17.819 20.6529 18.2453 20.0524 17.7136L20.0242 17.6887L19.9916 17.7075L12.9426 21.7771L12.9104 21.7957L12.9174 21.8323C13.0295 22.4119 12.5831 22.9477 11.9971 22.9477C11.4115 22.9477 10.9647 22.4121 11.0767 21.8323L11.0838 21.7957L11.0515 21.7771L4.0065 17.7095L3.97402 17.6907L3.94586 17.7155C3.34306 18.2455 2.39016 17.8143 2.39016 17.0115C2.39016 16.6017 2.65476 16.2521 3.02233 16.1252L3.05754 16.113V16.0758V7.9445V7.90727L3.02235 7.8951C2.65476 7.76801 2.39016 7.41861 2.39016 7.00873C2.39016 6.2135 3.3271 5.77977 3.93305 6.29372L3.96112 6.31753L3.99299 6.29912L11.0518 2.22367L11.084 2.20503L11.0769 2.16845C10.9647 1.59012 11.4092 1.05227 11.9972 1.05227C12.5839 1.05227 13.0297 1.58899 12.9174 2.16845L12.9103 2.20503L12.9426 2.22367L20.0049 6.30109L20.0369 6.31956L20.065 6.29557C20.6702 5.77868 21.6103 6.21172 21.6103 7.00853C21.6103 7.42073 21.3428 7.77175 20.972 7.89694L20.9365 7.90895V7.94647V16.0734ZM12.6719 2.69119L12.6396 2.67255L12.6114 2.697C12.5216 2.7751 12.4167 2.83648 12.3019 2.87615L12.2667 2.88831V2.92555V5.14348V5.17366L12.2928 5.18875L17.7487 8.33864L17.7747 8.35365L17.8008 8.33876L19.7263 7.23862L19.7586 7.22014L19.7517 7.18354C19.7291 7.06415 19.7299 6.9404 19.7541 6.82158L19.7617 6.78468L19.7291 6.76586L12.6719 2.69119ZM4.00501 7.70792L3.97261 7.68937L3.94456 7.714C3.85433 7.79318 3.74867 7.85497 3.63281 7.89495L3.59759 7.9071V7.94436V16.0756V16.1129L3.63278 16.125C3.74716 16.1646 3.85152 16.2255 3.94107 16.3032L3.96925 16.3277L4.00154 16.309L5.92377 15.1953L5.94984 15.1802V15.1501V8.85189V8.82159L5.92354 8.80654L4.00501 7.70792ZM4.27264 16.7759L4.24043 16.7945L4.24753 16.8311C4.27024 16.9478 4.27104 17.0689 4.24912 17.1855L4.24227 17.2219L4.27435 17.2404L11.3217 21.3092L11.3541 21.3278L11.3822 21.3033C11.4721 21.2249 11.577 21.1634 11.6919 21.1238L11.7272 21.1116V21.0744V18.8573V18.8272L11.701 18.8121L6.24626 15.6628L6.22008 15.6477L6.19393 15.6629L4.27264 16.7759ZM12.2671 21.0741V21.1114L12.3023 21.1236C12.4173 21.1632 12.522 21.2248 12.6121 21.3032L12.6402 21.3277L12.6726 21.309L19.7258 17.2367L19.7578 17.2183L19.7511 17.182C19.7297 17.0664 19.7303 16.947 19.7527 16.8319L19.7598 16.7953L19.7275 16.7767L17.8002 15.6626L17.7741 15.6475L17.748 15.6626L12.2932 18.8118L12.2671 18.8269V18.8571V21.0741ZM19.9982 16.3093L20.0305 16.328L20.0586 16.3035C20.1469 16.2268 20.2493 16.1664 20.3614 16.1268L20.3963 16.1144V16.0775V7.94189V7.90494L20.3614 7.89261C20.2476 7.85236 20.144 7.79088 20.055 7.71278L20.0269 7.68818L19.9946 7.70668L18.0704 8.80604L18.044 8.82109V8.85142V15.1496V15.1798L18.0702 15.1949L19.9982 16.3093ZM20.6634 16.6134L20.6619 16.6134C20.4478 16.6193 20.2753 16.795 20.2753 17.0107C20.2753 17.2298 20.4536 17.4081 20.6727 17.4081C20.8921 17.4081 21.07 17.2298 21.07 17.0107C21.07 16.7924 20.8935 16.615 20.6757 16.6133L20.6757 16.6132L20.6727 16.6133L20.6663 16.6134L20.6634 16.6134ZM21.0701 7.00824C21.0701 6.78909 20.8919 6.61085 20.6727 6.61085C20.4536 6.61085 20.2753 6.78909 20.2753 7.00824C20.2753 7.23138 20.4594 7.40548 20.6663 7.40548C20.904 7.40548 21.0701 7.21788 21.0701 7.00824ZM12.3943 1.98915C12.3943 1.77 12.2161 1.59176 11.997 1.59176C11.7778 1.59176 11.5996 1.77 11.5996 1.98915C11.5996 2.20831 11.7778 2.38655 11.997 2.38655C12.2137 2.38655 12.3943 2.21036 12.3943 1.98915ZM3.72487 7.00824C3.72487 6.78909 3.54663 6.61085 3.32747 6.61085C3.10831 6.61085 2.93008 6.78909 2.93008 7.00824C2.93008 7.2274 3.10831 7.40564 3.32747 7.40564C3.54663 7.40564 3.72487 7.2274 3.72487 7.00824ZM2.93008 17.0107C2.93008 17.2298 3.10831 17.4081 3.32747 17.4081C3.54663 17.4081 3.72487 17.2298 3.72487 17.0107C3.72487 16.7911 3.54609 16.6133 3.32747 16.6133C3.10831 16.6133 2.93008 16.7915 2.93008 17.0107ZM11.5996 22.0093C11.5996 22.2285 11.7778 22.4067 11.997 22.4067C12.2161 22.4067 12.3943 22.2285 12.3943 22.0093C12.3943 21.7915 12.2176 21.6119 11.997 21.6119C11.7778 21.6119 11.5996 21.7902 11.5996 22.0093Z" fill="#333333" stroke="#F9F8F4" strokeWidth="0.104534"/>
</svg>
