<svg width="16" height="16" viewBox="0 0 16 16" fill="none" xmlns="http://www.w3.org/2000/svg">
<g clipPath="url(#clip0_2659_100521)">
<path fill-rule="evenodd" clip-rule="evenodd" d="M10.1018 2.08551L9.31185 1.29553L6.72997 3.87741L7.51995 4.66739L10.1018 2.08551ZM10.5227 2.46012C10.7296 2.25323 10.7296 1.91779 10.5227 1.71089L9.68647 0.874652C9.47957 0.667759 9.14413 0.667759 8.93724 0.874653L6.30909 3.5028C6.1022 3.70969 6.1022 4.04513 6.30909 4.25203L7.14534 5.08827C7.35223 5.29516 7.68767 5.29516 7.89456 5.08827L8.0202 4.96263L8.13096 5.07339L8.99794 5.94037L8.80132 6.13176L0.879485 13.8432C0.669825 14.0473 0.66531 14.3827 0.869401 14.5923L1.42917 15.1674C1.63326 15.377 1.96867 15.3815 2.17833 15.1775L10.1002 7.46605L10.3147 7.25717L10.8868 7.82919L11.0374 7.97982L10.9116 8.10558C10.7047 8.31248 10.7047 8.64792 10.9116 8.85481L11.7479 9.69105C11.9548 9.89795 12.2902 9.89795 12.4971 9.69105L15.1252 7.06291C15.3321 6.85601 15.3321 6.52057 15.1252 6.31368L14.289 5.47744C14.0821 5.27054 13.7467 5.27054 13.5398 5.47744L13.3182 5.69901L13.1676 5.54838L10.4118 2.79258L10.301 2.68182L10.5227 2.46012ZM10.014 3.19033L12.7698 5.94613L11.2845 7.43144L8.52871 4.67564L10.014 3.19033ZM1.80942 14.7516L1.29529 14.2234L9.19368 6.53483L9.70781 7.06299L1.80942 14.7516ZM13.9144 5.89832L14.7044 6.68829L12.1225 9.27017L11.3325 8.4802L13.9144 5.89832Z" fill="#808080"/>
</g>
<defs>
<clipPath id="clip0_2659_100521">
<rect width="16" height="16" fill="white"/>
</clipPath>
</defs>
</svg>
