<svg width="16" height="16" viewBox="0 0 16 16" fill="none" xmlns="http://www.w3.org/2000/svg">
<g clip-path="url(#clip0_4274_9758)">
<mask id="mask0_4274_9758" style="mask-type:alpha" maskUnits="userSpaceOnUse" x="1" y="1" width="14" height="14">
<rect x="1.69995" y="1.69995" width="12.6" height="12.6" fill="#D9D9D9"/>
</mask>
<g mask="url(#mask0_4274_9758)">
<path d="M13.0915 12.1911C11.7412 13.5413 9.90985 14.2999 8.00029 14.2999C6.09073 14.2999 4.25939 13.5413 2.90912 12.1911L3.82553 11.2747C4.93275 12.3819 6.43445 13.0039 8.00029 13.0039C9.56613 13.0039 11.0678 12.3819 12.175 11.2747L13.0915 12.1911Z" fill="#333333"/>
</g>
<path opacity="0.5" d="M13 6.70001C13 7.35662 12.8707 8.0068 12.6194 8.61343C12.3681 9.22006 11.9998 9.77125 11.5355 10.2355C11.0712 10.6998 10.52 11.0681 9.91342 11.3194C9.30679 11.5707 8.65661 11.7 8 11.7C7.34339 11.7 6.69321 11.5707 6.08658 11.3194C5.47995 11.0681 4.92876 10.6998 4.46447 10.2355C4.00017 9.77125 3.63188 9.22006 3.3806 8.61343C3.12933 8.0068 3 7.35662 3 6.70001H4.4C4.4 7.17277 4.49312 7.6409 4.67403 8.07767C4.85495 8.51444 5.12012 8.91131 5.45442 9.2456C5.78871 9.57989 6.18557 9.84506 6.62234 10.026C7.05911 10.2069 7.52724 10.3 8 10.3C8.47276 10.3 8.94089 10.2069 9.37766 10.026C9.81443 9.84506 10.2113 9.57989 10.5456 9.2456C10.8799 8.91131 11.145 8.51444 11.326 8.07767C11.5069 7.6409 11.6 7.17277 11.6 6.70001H13Z" fill="#B3B3B3"/>
<path d="M10.305 2.26297C9.54268 1.86697 8.69122 1.67404 7.83268 1.70278C6.97415 1.73153 6.1375 1.98098 5.4034 2.42708C4.6693 2.87319 4.06252 3.5009 3.64155 4.24969C3.22058 4.99849 2.99963 5.84311 3 6.70213L4.4 6.70153C4.39973 6.08304 4.55882 5.47491 4.86192 4.93577C5.16501 4.39664 5.6019 3.94469 6.13045 3.62349C6.659 3.3023 7.26139 3.12269 7.87953 3.102C8.49768 3.0813 9.11073 3.22021 9.65958 3.50533L10.305 2.26297Z" fill="#808080"/>
<path d="M11.5355 10.2355C12.0935 9.67757 12.5115 8.9955 12.7553 8.24507C12.9991 7.49463 13.0619 6.69715 12.9384 5.91781C12.815 5.13847 12.5089 4.39941 12.0451 3.76105C11.5813 3.1227 10.973 2.60317 10.27 2.24495L9.63437 3.49236C10.1406 3.75028 10.5785 4.12434 10.9125 4.58395C11.2464 5.04357 11.4668 5.57569 11.5557 6.13682C11.6446 6.69794 11.5994 7.27213 11.4238 7.81244C11.2482 8.35276 10.9473 8.84385 10.5456 9.24557L11.5355 10.2355Z" fill="#4C4C4C"/>
</g>
<defs>
<clipPath id="clip0_4274_9758">
<rect width="16" height="16" fill="white"/>
</clipPath>
</defs>
</svg>
