<svg width="1000" height="1000" viewBox="0 0 1000 1000" fill="none" xmlns="http://www.w3.org/2000/svg">
<g clip-path="url(#clip0_6653_926)">
<rect width="1000" height="1000" rx="500" fill="#0151AF"/>
<g clip-path="url(#clip1_6653_926)">
<path d="M790.256 745.015C1010.41 482.911 1058.53 161.149 897.731 26.3395C736.932 -108.47 428.107 -5.27751 207.952 256.826C-12.2039 518.931 -60.3221 840.693 100.477 975.502C261.276 1110.31 570.1 1007.12 790.256 745.015Z" stroke="white" stroke-width="5.28169" stroke-miterlimit="10"/>
<path d="M596.096 1112.86C803.434 1080.06 928.091 779.493 874.525 441.529C820.959 103.565 609.454 -143.818 402.116 -111.017C194.777 -78.2168 70.1207 222.347 123.687 560.311C177.253 898.274 388.758 1145.66 596.096 1112.86Z" stroke="white" stroke-width="5.28169" stroke-miterlimit="10"/>
<path d="M1024.96 829.206C1136.2 651.361 990.93 360.203 700.494 178.886C410.058 -2.43114 84.4385 -5.24612 -26.7982 172.599C-138.035 350.443 7.23458 641.601 297.67 822.919C588.106 1004.24 913.726 1007.05 1024.96 829.206Z" stroke="white" stroke-width="5.28169" stroke-miterlimit="10"/>
<path d="M610.275 864.012C937.803 763.961 1153.56 520.269 1092.18 319.711C1030.8 119.154 715.524 37.6773 387.996 137.729C60.468 237.78 -155.287 481.471 -93.9063 682.029C-32.5257 882.587 282.747 964.063 610.275 864.012Z" stroke="white" stroke-width="5.28169" stroke-miterlimit="10"/>
<path d="M846.289 655.327C985.582 342.753 943.047 20.2166 751.285 -65.0775C559.523 -150.372 291.15 33.8755 151.857 346.45C12.5644 659.024 55.0992 981.561 246.861 1066.85C438.623 1152.15 706.996 967.902 846.289 655.327Z" stroke="white" stroke-width="5.28169" stroke-miterlimit="10"/>
<path d="M761.178 1062.4C951.428 973.772 988.323 650.53 843.585 340.419C698.847 30.3079 427.285 -149.239 237.034 -60.6101C46.7832 28.0186 9.88821 351.261 154.627 661.372C299.365 971.483 570.927 1151.03 761.178 1062.4Z" stroke="white" stroke-width="5.28169" stroke-miterlimit="10"/>
<path d="M1095.27 671.585C1153.12 469.979 933.119 230.097 603.878 135.794C274.638 41.4916 -39.164 128.478 -97.018 330.085C-154.872 531.691 65.1301 771.572 394.37 865.875C723.611 960.178 1037.41 873.191 1095.27 671.585Z" stroke="white" stroke-width="5.28169" stroke-miterlimit="10"/>
<path d="M706.116 819.416C993.366 633.069 1133.55 339.415 1019.23 163.52C904.907 -12.374 579.368 -3.90031 292.117 182.447C4.86684 368.794 -135.319 662.448 -20.9964 838.343C93.3262 1014.24 418.865 1005.76 706.116 819.416Z" stroke="white" stroke-width="5.28169" stroke-miterlimit="10"/>
<path d="M875.567 553.736C923.242 214.883 793.368 -83.4781 585.484 -112.672C377.6 -141.865 170.428 109.164 122.753 448.017C75.0775 786.871 204.952 1085.23 412.836 1114.42C620.72 1143.62 827.892 892.589 875.567 553.736Z" stroke="white" stroke-width="5.28169" stroke-miterlimit="10"/>
<path d="M906.017 968.436C1064.44 830.837 1010.71 509.948 785.999 251.711C561.289 -6.52664 250.694 -104.323 92.2675 33.2755C-66.1593 170.874 -12.4254 491.763 212.285 750.001C436.996 1008.24 747.591 1106.04 906.017 968.436Z" stroke="white" stroke-width="5.28169" stroke-miterlimit="10"/>
<path d="M499.118 880.628C841.613 880.628 1119.26 710.615 1119.26 500.892C1119.26 291.17 841.613 121.156 499.118 121.156C156.623 121.156 -121.023 291.17 -121.023 500.892C-121.023 710.615 156.623 880.628 499.118 880.628Z" stroke="white" stroke-width="5.28169" stroke-miterlimit="10"/>
</g>
<g clip-path="url(#clip2_6653_926)">
<path d="M262.474 790.92C229.766 763.465 429.015 573.202 415.428 535.737C401.411 497.087 127.052 478.981 134.162 438.484C141.042 399.227 404.266 475.949 431.708 443.226C459.151 410.503 337.935 164.481 375.369 150.888C413.988 136.864 479.457 404.037 519.934 411.136C559.172 418.021 711.857 188.663 744.565 216.119C777.273 243.574 578.024 433.836 591.611 471.302C605.628 509.952 879.987 528.058 872.891 568.555C866.01 607.811 602.787 531.089 575.344 563.813C547.902 596.536 669.118 842.558 631.684 856.151C593.052 870.175 527.582 603.002 487.119 595.902C447.867 589.018 295.182 818.376 262.474 790.92Z" stroke="white" stroke-width="1.76056" stroke-miterlimit="10"/>
<path d="M444.851 132.97C487.024 126.288 499.83 401.558 536.995 415.879C575.345 430.644 769.005 235.37 794.886 267.298C819.985 298.243 589.416 446.662 596.095 488.855C602.774 531.049 867.896 600.914 853.582 638.11C838.824 676.477 594.331 550.637 562.418 576.53C531.487 601.641 604.336 867.4 562.162 874.082C519.988 880.764 507.182 605.494 470.018 591.174C431.681 576.395 238.034 771.669 212.14 739.754C187.041 708.81 417.61 560.391 410.931 518.197C404.239 476.003 139.13 406.125 153.431 368.943C168.189 330.575 412.682 456.415 444.595 430.522C475.525 405.411 402.69 139.652 444.851 132.97Z" stroke="white" stroke-width="1.76056" stroke-miterlimit="10"/>
<path d="M821.534 702.33C798.912 738.556 582.845 567.625 547.66 586.311C511.357 605.575 531.622 879.915 490.552 878.514C450.748 877.154 490.041 605.696 453.832 583.064C417.623 560.431 190.986 714.764 172.309 679.562C153.054 643.242 408.386 541.207 409.786 500.118C411.146 460.295 162.87 340.935 185.492 304.709C208.114 268.483 424.181 439.414 459.366 420.728C495.669 401.464 475.417 127.137 516.487 128.525C556.291 129.885 516.999 401.342 553.207 423.975C589.416 446.608 816.054 292.275 834.73 327.477C853.986 363.797 598.653 465.832 597.266 506.935C595.893 546.757 844.156 666.104 821.534 702.33Z" stroke="white" stroke-width="1.76056" stroke-miterlimit="10"/>
<path d="M144.907 613.214C132.425 572.367 403.108 521.363 412.103 482.537C421.38 442.485 201.152 277.806 229.147 247.71C256.28 218.543 435.277 426.306 476.104 413.817C516.945 401.343 549.208 128.956 588.002 137.955C628.035 147.237 537.493 406.974 567.575 434.995C596.728 462.141 849.65 352.992 862.132 393.839C874.615 434.685 603.932 485.69 594.937 524.502C585.659 564.554 805.887 729.233 777.892 759.329C750.759 788.496 571.763 580.733 530.935 593.222C490.108 605.71 457.845 878.097 419.037 869.097C379.004 859.815 469.546 600.079 439.464 572.057C410.298 544.898 157.39 654.06 144.907 613.214Z" stroke="white" stroke-width="1.76056" stroke-miterlimit="10"/>
<path d="M656.043 160.776C695.053 178.155 555.927 416 579.317 448.251C603.447 481.54 872.15 423.288 876.486 464.175C880.688 503.809 606.53 502.651 589.16 541.665C571.79 580.693 756.105 783.753 723.855 807.14C690.582 831.282 554.056 592.508 513.188 596.845C473.572 601.049 389.992 863.628 350.996 846.249C311.987 828.87 451.112 591.026 427.722 558.774C403.592 525.499 134.875 583.751 130.553 542.864C126.352 503.23 400.509 504.388 417.879 465.374C435.25 426.346 250.934 223.286 283.184 199.898C316.457 175.757 452.984 414.531 493.851 410.193C533.453 405.99 617.034 143.411 656.043 160.776Z" stroke="white" stroke-width="1.76056" stroke-miterlimit="10"/>
<path d="M661.995 843.541C623.295 861.594 535.15 600.51 495.467 597.007C454.532 593.383 322.18 834.502 288.503 810.953C255.849 788.132 436.596 581.878 418.552 543.16C400.509 504.442 126.405 510.397 129.92 470.695C133.542 429.741 403.229 483.292 426.766 449.585C449.577 416.916 306.345 181.536 345.031 163.484C383.731 145.432 471.876 406.516 511.559 410.018C552.494 413.642 684.846 172.524 718.523 196.072C751.177 218.894 570.43 425.147 588.473 463.865C606.517 502.583 880.62 496.629 877.106 536.33C873.484 577.284 603.797 523.734 580.259 557.44C557.449 590.11 700.695 825.489 661.995 843.541Z" stroke="white" stroke-width="1.76056" stroke-miterlimit="10"/>
<path d="M143.049 400.103C154.818 359.041 409.598 463.771 438.279 436.113C467.863 407.58 372.81 149.46 412.682 139.477C451.327 129.805 488.331 401.585 529.373 413.359C570.416 425.134 745.75 214.273 773.395 242.968C801.901 272.565 584.582 441.071 594.56 480.947C604.228 519.612 875.759 565.874 863.99 606.936C852.222 647.998 597.441 543.268 568.76 570.926C539.176 599.459 634.229 857.579 594.358 867.562C555.712 877.234 518.709 605.454 477.666 593.68C436.637 581.905 261.289 792.766 233.658 764.085C205.138 734.474 422.457 565.968 412.48 526.091C402.811 487.427 131.28 441.165 143.049 400.103Z" stroke="white" stroke-width="1.76056" stroke-miterlimit="10"/>
<path d="M818.019 299.186C841.274 335.007 595.125 458.679 597.172 498.474C599.286 539.536 856.355 637.099 837.733 673.756C819.675 709.281 590.385 558.922 554.581 582.188C518.776 605.454 562.808 876.184 523.031 878.231C481.988 880.346 497.46 605.696 460.834 587.065C425.312 569.013 212.275 743.688 189.02 707.853C165.765 672.032 411.914 548.36 409.867 508.565C407.753 467.503 150.684 369.94 169.306 333.283C187.364 297.758 416.654 448.117 452.458 424.851C488.263 401.585 444.231 130.855 484.008 128.808C525.051 126.693 509.579 401.343 546.205 419.974C581.727 438.04 794.764 263.364 818.019 299.186Z" stroke="white" stroke-width="1.76056" stroke-miterlimit="10"/>
<path d="M451.328 875.052C409.046 869.111 477.249 602.113 445.874 577.554C413.516 552.213 171.259 682.311 155.828 644.199C140.867 607.259 404.737 532.774 410.675 490.472C416.614 448.171 183.499 303.807 208.06 272.417C233.389 240.044 430.416 431.91 468.509 416.471C505.432 401.504 513.43 126.046 555.712 132.001C597.994 137.942 529.791 404.939 561.165 429.499C593.523 454.839 835.78 324.742 851.212 362.854C866.172 399.793 602.303 474.279 596.364 516.58C590.426 558.882 823.54 703.246 798.979 734.635C773.651 767.008 576.624 575.142 538.53 590.581C501.608 605.535 493.609 880.993 451.328 875.052Z" stroke="white" stroke-width="1.76056" stroke-miterlimit="10"/>
<path d="M257.492 220.376C289.715 192.341 446.386 419.004 485.489 411.433C525.832 403.619 586.628 135.355 625.503 148.706C663.18 161.638 546.259 409.749 574.281 441.987C602.289 474.225 864.138 392.923 871.693 432.045C879.502 472.406 605.494 495.308 592.163 534.188C579.236 571.882 781.77 758.642 749.547 786.663C717.324 814.685 560.654 588.035 521.55 595.593C481.207 603.406 420.411 871.671 381.536 858.32C343.859 845.387 460.78 597.277 432.758 565.039C404.75 532.8 142.901 614.103 135.347 574.981C127.537 534.619 401.546 511.717 414.876 472.837C427.817 435.157 225.269 248.397 257.492 220.376Z" stroke="white" stroke-width="1.76056" stroke-miterlimit="10"/>
<path d="M878.52 503.526C878.52 546.245 604.753 515.839 584.811 550.327C564.235 585.92 726.71 807.814 691.148 828.413C656.676 848.364 546.219 597.317 503.52 597.317C460.821 597.317 350.363 848.364 315.892 828.413C280.316 807.828 442.804 585.92 422.228 550.327C402.286 515.826 128.52 546.232 128.52 503.526C128.52 460.807 402.286 491.213 422.228 456.725C442.804 421.133 280.329 199.225 315.892 178.64C350.363 158.688 460.821 409.735 503.52 409.735C546.219 409.735 656.676 158.688 691.148 178.64C726.723 199.225 564.235 421.133 584.811 456.725C604.753 491.213 878.52 460.807 878.52 503.526Z" stroke="white" stroke-width="1.76056" stroke-miterlimit="10"/>
</g>
<g clip-path="url(#clip3_6653_926)">
<path d="M442.807 570.118C434.927 563.503 482.93 517.665 479.657 508.639C476.28 499.327 410.182 494.965 411.894 485.209C413.552 475.751 476.968 494.235 483.579 486.351C490.19 478.467 460.987 419.195 470.006 415.92C479.31 412.542 495.083 476.909 504.834 478.62C514.288 480.278 551.072 425.021 558.952 431.636C566.832 438.25 518.829 484.089 522.103 493.115C525.48 502.427 591.578 506.789 589.868 516.545C588.211 526.003 524.795 507.519 518.184 515.403C511.572 523.287 540.776 582.559 531.757 585.834C522.45 589.212 506.677 524.844 496.928 523.134C487.472 521.475 450.687 576.733 442.807 570.118Z" stroke="white" stroke-width="1.76056" stroke-miterlimit="10"/>
<path d="M486.745 411.604C496.906 409.994 499.991 476.312 508.945 479.762C518.184 483.32 564.84 436.274 571.075 443.966C577.122 451.421 521.574 487.179 523.183 497.344C524.792 507.509 588.665 524.341 585.216 533.303C581.661 542.546 522.758 512.229 515.069 518.467C507.618 524.517 525.168 588.544 515.008 590.154C504.847 591.763 501.762 525.445 492.808 521.995C483.573 518.434 436.919 565.48 430.681 557.791C424.634 550.336 480.182 514.578 478.573 504.413C476.961 494.248 413.091 477.412 416.537 468.454C420.092 459.211 478.995 489.529 486.684 483.29C494.135 477.24 476.588 413.213 486.745 411.604Z" stroke="white" stroke-width="1.76056" stroke-miterlimit="10"/>
<path d="M577.495 548.775C572.045 557.502 519.991 516.321 511.514 520.823C502.768 525.464 507.65 591.559 497.756 591.221C488.166 590.894 497.632 525.494 488.909 520.041C480.186 514.588 425.584 551.77 421.085 543.29C416.446 534.539 477.96 509.957 478.298 500.057C478.625 490.463 418.811 461.707 424.261 452.979C429.711 444.252 481.766 485.433 490.242 480.931C498.988 476.289 494.109 410.198 504.004 410.533C513.593 410.86 504.127 476.26 512.85 481.713C521.574 487.166 576.175 449.983 580.675 458.464C585.314 467.215 523.799 491.797 523.465 501.7C523.134 511.294 582.945 540.047 577.495 548.775Z" stroke="white" stroke-width="1.76056" stroke-miterlimit="10"/>
<path d="M414.483 527.305C411.476 517.464 476.689 505.176 478.856 495.822C481.091 486.173 428.034 446.498 434.778 439.247C441.315 432.22 484.439 482.274 494.275 479.266C504.114 476.26 511.887 410.636 521.233 412.804C530.878 415.041 509.065 477.617 516.312 484.368C523.335 490.908 584.269 464.612 587.276 474.452C590.284 484.293 525.071 496.581 522.904 505.932C520.669 515.581 573.726 555.256 566.981 562.507C560.445 569.534 517.321 519.479 507.485 522.488C497.649 525.497 489.876 591.121 480.526 588.953C470.882 586.716 492.695 524.14 485.448 517.389C478.421 510.846 417.49 537.146 414.483 527.305Z" stroke="white" stroke-width="1.76056" stroke-miterlimit="10"/>
<path d="M537.626 418.303C547.024 422.49 513.506 479.792 519.141 487.562C524.954 495.582 589.69 481.547 590.734 491.398C591.747 500.947 525.697 500.668 521.512 510.067C517.327 519.47 561.732 568.391 553.963 574.026C545.947 579.842 513.055 522.316 503.209 523.361C493.665 524.374 473.529 587.635 464.134 583.448C454.736 579.261 488.254 521.959 482.619 514.189C476.805 506.172 412.066 520.206 411.025 510.356C410.013 500.807 476.062 501.086 480.247 491.687C484.432 482.284 440.027 433.362 447.797 427.728C455.813 421.912 488.705 479.438 498.55 478.393C508.091 477.38 528.227 414.119 537.626 418.303Z" stroke="white" stroke-width="1.76056" stroke-miterlimit="10"/>
<path d="M539.059 582.796C529.736 587.145 508.5 524.244 498.94 523.4C489.078 522.527 457.192 580.618 449.078 574.944C441.211 569.446 484.757 519.755 480.41 510.427C476.062 501.099 410.026 502.534 410.873 492.969C411.745 483.102 476.718 496.004 482.388 487.883C487.884 480.012 453.377 423.304 462.697 418.955C472.02 414.606 493.256 477.507 502.816 478.35C512.679 479.224 544.565 421.133 552.678 426.806C560.545 432.304 517 481.995 521.347 491.323C525.694 500.651 591.73 499.217 590.884 508.782C590.011 518.649 525.039 505.747 519.368 513.868C513.872 521.738 548.383 578.447 539.059 582.796Z" stroke="white" stroke-width="1.76056" stroke-miterlimit="10"/>
<path d="M414.036 475.962C416.871 466.069 478.252 491.301 485.162 484.637C492.289 477.763 469.389 415.576 478.995 413.171C488.306 410.841 497.22 476.319 507.108 479.155C516.996 481.992 559.238 431.191 565.898 438.104C572.766 445.235 520.409 485.832 522.813 495.439C525.142 504.754 590.559 515.899 587.724 525.792C584.889 535.685 523.507 510.453 516.597 517.117C509.47 523.991 532.37 586.178 522.764 588.583C513.454 590.913 504.539 525.435 494.651 522.599C484.766 519.762 442.522 570.563 435.865 563.653C428.994 556.519 481.35 515.922 478.946 506.315C476.617 497 411.2 485.854 414.036 475.962Z" stroke="white" stroke-width="1.76056" stroke-miterlimit="10"/>
<path d="M576.649 451.648C582.251 460.279 522.949 490.074 523.442 499.661C523.952 509.554 585.885 533.059 581.398 541.891C577.048 550.449 521.807 514.225 513.181 519.83C504.555 525.435 515.163 590.66 505.58 591.153C495.692 591.663 499.42 525.494 490.596 521.005C482.038 516.656 430.713 558.739 425.111 550.105C419.508 541.475 478.81 511.68 478.317 502.092C477.808 492.2 415.875 468.695 420.361 459.863C424.712 451.304 479.952 487.529 488.578 481.924C497.204 476.319 486.596 411.094 496.179 410.601C506.067 410.091 502.34 476.26 511.163 480.749C519.721 485.101 571.046 443.018 576.649 451.648Z" stroke="white" stroke-width="1.76056" stroke-miterlimit="10"/>
<path d="M488.306 590.387C478.119 588.956 494.551 524.63 486.992 518.713C479.196 512.608 420.832 543.952 417.114 534.77C413.51 525.87 477.081 507.925 478.512 497.734C479.942 487.542 423.781 452.762 429.698 445.199C435.8 437.4 483.268 483.625 492.445 479.905C501.34 476.299 503.267 409.935 513.454 411.37C523.64 412.801 507.209 477.127 514.768 483.044C522.563 489.149 580.928 457.805 584.645 466.987C588.25 475.887 524.678 493.832 523.248 504.024C521.817 514.215 577.979 548.995 572.062 556.558C565.959 564.357 518.492 518.132 509.314 521.852C500.419 525.455 498.492 591.819 488.306 590.387Z" stroke="white" stroke-width="1.76056" stroke-miterlimit="10"/>
<path d="M441.607 432.661C449.37 425.907 487.115 480.515 496.536 478.691C506.255 476.809 520.902 412.178 530.268 415.395C539.345 418.51 511.176 478.286 517.927 486.052C524.675 493.819 587.76 474.232 589.58 483.657C591.461 493.381 525.447 498.899 522.236 508.266C519.121 517.347 567.916 562.342 560.152 569.093C552.389 575.843 514.644 521.239 505.224 523.059C495.504 524.942 480.857 589.573 471.492 586.356C462.415 583.24 490.583 523.465 483.832 515.698C477.084 507.931 414 527.519 412.18 518.094C410.298 508.37 476.312 502.852 479.524 493.485C482.641 484.407 433.844 439.412 441.607 432.661Z" stroke="white" stroke-width="1.76056" stroke-miterlimit="10"/>
<path d="M591.224 500.879C591.224 511.171 525.269 503.845 520.464 512.154C515.507 520.729 554.651 574.188 546.083 579.151C537.778 583.958 511.167 523.475 500.88 523.475C490.593 523.475 463.981 583.958 455.677 579.151C447.106 574.191 486.252 520.729 481.295 512.154C476.491 503.842 410.535 511.167 410.535 500.879C410.535 490.587 476.491 497.912 481.295 489.603C486.252 481.028 447.109 427.566 455.677 422.606C463.981 417.8 490.593 478.282 500.88 478.282C511.167 478.282 537.778 417.8 546.083 422.606C554.654 427.566 515.507 481.028 520.464 489.603C525.269 497.912 591.224 490.587 591.224 500.879Z" stroke="white" stroke-width="1.76056" stroke-miterlimit="10"/>
</g>
<path fill-rule="evenodd" clip-rule="evenodd" d="M375.108 720.008V550.65H294.012V481.676H375.108V457.174H294.012V389.748H375.108V279.926H559.331C607.614 279.926 643.357 291.09 666.534 313.412C689.711 335.521 701.311 369.64 701.311 415.774C701.311 450.744 692.764 478.858 675.64 500.122C658.516 521.167 634.721 535.817 604.15 544.036L707.799 720.008H611.95L516.753 550.984H461.54V720.008H375.108ZM461.54 481.803H570.713C597.785 481.803 611.326 467.154 611.326 437.883V392.693C611.326 377.951 608.297 367.426 602.214 361.087C596.385 354.565 585.873 351.292 570.713 351.292H461.54V481.803Z" fill="white" stroke="#0151AF" stroke-width="17.6056" stroke-linecap="round" stroke-linejoin="round"/>
<circle cx="500" cy="500" r="491.197" stroke="#0151AF" stroke-width="17.6056"/>
<circle cx="500.002" cy="499.998" r="482.394" stroke="white" stroke-width="17.6056"/>
</g>
<defs>
<clipPath id="clip0_6653_926">
<rect width="1000" height="1000" rx="500" fill="white"/>
</clipPath>
<clipPath id="clip1_6653_926">
<rect width="1244.72" height="1237.68" fill="white" transform="translate(-123.238 -117.961)"/>
</clipPath>
<clipPath id="clip2_6653_926">
<rect width="744.718" height="744.718" fill="white" transform="translate(128.52 128.52)"/>
</clipPath>
<clipPath id="clip3_6653_926">
<rect width="181.338" height="181.338" fill="white" transform="translate(410.211 410.211)"/>
</clipPath>
</defs>
</svg>
