<svg width="24" height="24" viewBox="0 0 24 24" fill="none" xmlns="http://www.w3.org/2000/svg">
<g clip-path="url(#clip0_14_2199)">
<rect width="24" height="24" fill="white"/>
<rect width="24" height="24" fill="#FF5C16"/>
<rect width="24" height="24" fill="white" fill-opacity="0.9"/>
<mask id="mask0_14_2199" style="mask-type:luminance" maskUnits="userSpaceOnUse" x="0" y="0" width="24" height="24">
<path d="M24 0.0117188H0.0234375V23.9883H24V0.0117188Z" fill="white"/>
</mask>
<g mask="url(#mask0_14_2199)">
<path d="M18.7715 18.7363L15.4201 17.7384L12.8926 19.2492L11.1293 19.2485L8.60038 17.7384L5.25045 18.7363L4.23145 15.2963L5.25045 11.4785L4.23145 8.25058L5.25045 4.25L10.485 7.37738H13.5369L18.7715 4.25L19.7905 8.25058L18.7715 11.4785L19.7905 15.2963L18.7715 18.7363Z" fill="#FF5C16"/>
<path d="M5.25293 4.25L10.4875 7.37957L10.2793 9.52735L5.25293 4.25Z" fill="#FF5C16"/>
<path d="M8.60156 15.298L10.9047 17.0524L8.60156 17.7385V15.298Z" fill="#FF5C16"/>
<path d="M10.721 12.3973L10.2783 9.52893L7.44483 11.4793L7.44336 11.4786V11.48L7.45212 13.4877L8.60116 12.3973H8.60189H10.721Z" fill="#FF5C16"/>
<path d="M18.7717 4.25L13.5371 7.37957L13.7446 9.52735L18.7717 4.25Z" fill="#FF5C16"/>
<path d="M15.4233 15.298L13.1201 17.0524L15.4233 17.7385V15.298Z" fill="#FF5C16"/>
<path d="M16.5796 11.48V11.4786L16.5789 11.4793L13.7454 9.52893L13.3027 12.3973H15.4218L16.5716 13.4877L16.5796 11.48Z" fill="#FF5C16"/>
<path d="M8.60038 17.7384L5.25045 18.7364L4.23145 15.2979H8.60038V17.7384Z" fill="#E34807"/>
<path d="M10.7208 12.3965L11.3607 16.5431L10.4739 14.2375L7.45117 13.4876L8.60094 12.3965H10.72H10.7208Z" fill="#E34807"/>
<path d="M15.4219 17.7384L18.7718 18.7364L19.7908 15.2979H15.4219V17.7384Z" fill="#E34807"/>
<path d="M13.304 12.3965L12.6641 16.5431L13.5509 14.2375L16.5735 13.4876L15.4231 12.3965H13.304Z" fill="#E34807"/>
<path d="M4.23145 15.2965L5.25045 11.4786H7.44187L7.44989 13.487L10.4726 14.2369L11.3594 16.5425L10.9036 17.0502L8.6004 15.2958H4.23145V15.2965Z" fill="#FF8D5D"/>
<path d="M19.792 15.2965L18.773 11.4786H16.5816L16.5735 13.487L13.5509 14.2369L12.6641 16.5425L13.1199 17.0502L15.4231 15.2958H19.792V15.2965Z" fill="#FF8D5D"/>
<path d="M13.5387 7.37744H12.0127H10.4868L10.2793 9.52523L11.3611 16.5402H12.6643L13.7469 9.52523L13.5387 7.37744Z" fill="#FF8D5D"/>
<path d="M5.25045 4.25L4.23145 8.25057L5.25045 11.4785H7.44187L10.2768 9.52735L5.25045 4.25Z" fill="#661800"/>
<path d="M10.087 13.2293H9.09425L8.55371 13.759L10.4741 14.2353L10.087 13.2285V13.2293Z" fill="#661800"/>
<path d="M18.7715 4.25L19.7905 8.25057L18.7715 11.4785H16.5801L13.7451 9.52735L18.7715 4.25Z" fill="#661800"/>
<path d="M13.9377 13.2293H14.9319L15.4724 13.7598L13.5498 14.2367L13.9377 13.2285V13.2293Z" fill="#661800"/>
<path d="M12.8914 17.8809L13.1179 17.0517L12.6621 16.5439H11.3582L10.9023 17.0517L11.1288 17.8809" fill="#661800"/>
<path d="M12.8925 17.8807V19.25H11.1299V17.8807H12.8925Z" fill="#C0C4CD"/>
<path d="M8.60156 17.737L11.1312 19.2493V17.8801L10.9047 17.0509L8.60156 17.737Z" fill="#E7EBF6"/>
<path d="M15.4232 17.737L12.8936 19.2493V17.8801L13.12 17.0509L15.4232 17.737Z" fill="#E7EBF6"/>
</g>
</g>
<defs>
<clipPath id="clip0_14_2199">
<rect width="24" height="24" fill="white"/>
</clipPath>
</defs>
</svg>
