<svg width="16" height="16" viewBox="0 0 16 16" fill="none" xmlns="http://www.w3.org/2000/svg">
<path d="M13.53 6.6872C13.53 6.55769 13.6351 6.45262 13.7646 6.45262C13.8941 6.45262 13.9992 6.55769 13.9992 6.6872V7.81058C13.9992 7.94009 13.8941 8.04516 13.7646 8.04516C13.6351 8.04516 13.53 7.94009 13.53 7.81058V6.6872ZM8.80651 9.889V9.85944C8.80083 9.64504 8.71169 9.45071 8.56996 9.30854C8.42496 9.16255 8.22266 9.07254 7.9989 9.07254C7.77599 9.07254 7.57369 9.1631 7.42783 9.30909C7.28654 9.45038 7.19696 9.6446 7.19129 9.85909V9.88866C7.19369 10.1077 7.2837 10.3068 7.42783 10.4503C7.57382 10.5963 7.776 10.6869 7.9989 10.6869C8.22181 10.6869 8.4241 10.5963 8.56996 10.4503C8.71398 10.3063 8.80411 10.1081 8.80651 9.889ZM8.80651 8.89131V5.51074C8.58644 5.69045 8.30539 5.79836 7.99942 5.79836C7.69346 5.79836 7.41188 5.69045 7.19234 5.51074V8.89075C7.41241 8.71105 7.69346 8.60314 7.99942 8.60314C8.30539 8.60314 8.58643 8.71107 8.80651 8.89131ZM8.80651 4.53788V4.49795C8.8004 4.28399 8.71125 4.0911 8.56996 3.94935C8.42496 3.80336 8.22266 3.71334 7.9989 3.71334C7.77599 3.71334 7.57369 3.8039 7.42783 3.94989C7.28708 4.09064 7.1974 4.28398 7.19129 4.49749V4.53743C7.19554 4.7491 7.28043 4.94048 7.41649 5.08134L7.42772 5.0917C7.57371 5.23769 7.77589 5.32825 7.99879 5.32825C8.22168 5.32825 8.42399 5.23769 8.56985 5.0917C8.71245 4.9491 8.80182 4.75413 8.80651 4.53788ZM9.27579 4.7561V9.88547C9.27393 10.2355 9.13177 10.5522 8.90231 10.7822C8.67144 11.0131 8.35186 11.1562 7.99945 11.1562C7.64704 11.1562 7.32744 11.0131 7.09659 10.7822C6.86713 10.5528 6.72443 10.2356 6.72311 9.88547V4.7561H4.66075C4.58427 4.75512 4.50963 4.71759 4.46458 4.64863L2.53969 1.68005C2.49376 1.79734 2.46834 1.92456 2.46834 2.05735V13.9428C2.46834 14.2296 2.58617 14.4909 2.77525 14.6801C2.96433 14.8692 3.22531 14.987 3.51251 14.987H12.4867C12.7734 14.987 13.0347 14.8692 13.2239 14.6801C13.413 14.491 13.5308 14.23 13.5308 13.9428V8.93245C13.5308 8.80294 13.6359 8.69787 13.7654 8.69787C13.8949 8.69787 14 8.80294 14 8.93245V13.9428C14 14.3591 13.8297 14.7378 13.556 15.0118C13.2819 15.2859 12.9033 15.4557 12.4871 15.4557H3.51292C3.09668 15.4557 2.71796 15.2854 2.44397 15.0118C2.16989 14.7377 2 14.3591 2 13.9428V2.05735C2 1.64111 2.17032 1.26239 2.44397 0.988407C2.71805 0.714328 3.09665 0.544434 3.51292 0.544434H12.4871C12.9033 0.544434 13.282 0.714752 13.556 0.988407C13.8301 1.26249 14 1.64109 14 2.05735V5.56278C14 5.69229 13.8949 5.79736 13.7654 5.79736C13.6359 5.79736 13.5308 5.69229 13.5308 5.56278V2.05735C13.5308 1.92457 13.5055 1.79691 13.4595 1.68005L11.5458 4.63131C11.5064 4.7055 11.4285 4.75613 11.3384 4.75613L9.27579 4.7561ZM7.99889 3.24472C8.35089 3.24472 8.66989 3.38787 8.90078 3.61917C9.0796 3.79702 9.20585 4.02831 9.25364 4.2869H11.2109L13.1678 1.26973C12.9848 1.11065 12.7454 1.01441 12.4855 1.01441H3.51136C3.25136 1.01441 3.01253 1.11108 2.8291 1.26973L4.78597 4.2869H6.74325C6.79115 4.02832 6.91684 3.79701 7.09566 3.61872C7.32654 3.38785 7.64648 3.24472 7.99889 3.24472Z" fill="#808080" stroke="#808080" stroke-width="0.2"/>
</svg>