<svg width="16" height="16" viewBox="0 0 16 16" fill="none" xmlns="http://www.w3.org/2000/svg">
<g clip-path="url(#clip0_10326_226180)">
<path d="M8 16C12.4183 16 16 12.4183 16 8C16 3.58173 12.4183 0 8 0C3.58173 0 0 3.58173 0 8C0 12.4183 3.58173 16 8 16Z" fill="#0071F3"/>
<path d="M9.27073 3.2019H8.39233H6.4561C6.1444 3.2019 5.8705 3.42858 5.82327 3.74028L5.62493 5.01535V5.02481H4.6804C4.4254 5.02481 4.22703 5.23261 4.22703 5.47818C4.22703 5.73318 4.43483 5.93155 4.6804 5.94098H5.48323L5.34157 6.81938L5.33213 6.88548H4.3876C4.1326 6.88548 3.93423 7.09328 3.93423 7.33885C3.93423 7.58441 4.14203 7.79221 4.3876 7.79221H5.19043L4.75597 10.5407L4.6143 11.4569L4.53873 11.9481C4.48207 12.3353 4.77487 12.6848 5.17157 12.6848H5.77603H6.6072H7.28727C7.59893 12.6848 7.8634 12.4581 7.92007 12.1464L8.32623 9.62458H8.56233H9.31797C11.1031 9.62458 12.5576 8.15115 12.5293 6.35658C12.501 4.59035 11.0275 3.2019 9.27073 3.2019ZM6.40887 5.94098L9.26127 5.95041C9.5163 5.95041 9.73353 6.15821 9.73353 6.42268C9.73353 6.67771 9.52573 6.89495 9.26127 6.89495H6.25773L6.40887 5.94098ZM9.28017 8.69895H8.79847H8.5718H8.0901C7.7784 8.69895 7.51393 8.92565 7.45727 9.23731L7.05113 11.7686H5.50213L6.11607 7.80168H9.26127C10.0263 7.80168 10.6403 7.17828 10.6403 6.42268C10.6403 5.66708 10.0169 5.04371 9.26127 5.04371L6.55997 5.03425L6.70167 4.12751H9.3274C10.6119 4.12751 11.6509 5.18538 11.6226 6.46991C11.5848 7.71665 10.5364 8.69895 9.28017 8.69895Z" fill="white"/>
</g>
<defs>
<clipPath id="clip0_10326_226180">
<rect width="16" height="16" fill="white"/>
</clipPath>
</defs>
</svg>
