<svg width="20" height="20" viewBox="0 0 20 20" fill="none" xmlns="http://www.w3.org/2000/svg">
<g clip-path="url(#clip0_11186_185919)">
<rect width="20" height="20" fill="#2150A9"/>
<path d="M5.19531 8.32432C5.19531 8.39918 5.27017 8.47404 5.34503 8.47404H7.16388V9.39861H5.34503C5.27017 9.39861 5.19531 9.47347 5.19531 9.54832V11.0729C5.19531 11.1478 5.27017 11.2226 5.34503 11.2226H7.16388V14.8718C7.16388 14.9466 7.2136 14.9969 7.28846 14.9969H9.03303C9.10788 14.9969 9.1576 14.9472 9.1576 14.8718V11.4238C9.1576 11.3489 9.20731 11.2986 9.28217 11.2986H10.6782C10.7279 11.2986 10.7776 11.3238 10.8027 11.3735L12.3479 14.9478C12.373 14.9975 12.4227 15.0226 12.4725 15.0226H14.3416C14.441 15.0226 14.4913 14.9226 14.4662 14.8478L12.921 11.3483C12.8959 11.2735 12.921 11.1986 12.9959 11.1735C13.7433 10.8986 14.217 10.2238 14.217 9.32375V7.07404C14.217 5.92432 13.2702 4.97461 12.1233 4.97461H7.28846C7.2136 4.97461 7.16388 5.02489 7.16388 5.09975V6.64947H5.34503C5.27017 6.64947 5.19531 6.72432 5.19531 6.79918V8.32432Z" fill="#F9EDDD"/>
<path d="M9.15625 7.00014C9.15625 6.92529 9.20596 6.875 9.28082 6.875H11.6237C11.9477 6.875 12.222 7.14986 12.222 7.475V8.82471C12.222 9.14986 11.9477 9.42471 11.6237 9.42471H9.28082C9.20596 9.42471 9.15625 9.37443 9.15625 9.29957V7.00014Z" fill="#2150A9"/>
</g>
<defs>
<clipPath id="clip0_11186_185919">
<rect width="20" height="20" fill="white"/>
</clipPath>
</defs>
</svg>
