<svg width="16" height="16" viewBox="0 0 16 16" fill="none" xmlns="http://www.w3.org/2000/svg">
<g clip-path="url(#clip0_10326_226185)">
<path d="M8 14C11.3137 14 14 11.3137 14 8C14 4.6863 11.3137 2 8 2C4.6863 2 2 4.6863 2 8C2 11.3137 4.6863 14 8 14Z" fill="#0071F3"/>
<path d="M8.95305 4.40137H8.29425H6.84207C6.6083 4.40137 6.40288 4.57137 6.36745 4.80515L6.2187 5.76145V5.76855H5.5103C5.31905 5.76855 5.17027 5.9244 5.17027 6.10857C5.17027 6.29982 5.32612 6.4486 5.5103 6.45567H6.11242L6.00618 7.11447L5.9991 7.16405H5.2907C5.09945 7.16405 4.95068 7.3199 4.95068 7.50407C4.95068 7.68825 5.10652 7.8441 5.2907 7.8441H5.89282L5.56698 9.9055L5.46073 10.5926L5.40405 10.961C5.36155 11.2514 5.58115 11.5135 5.87867 11.5135H6.33203H6.9554H7.46545C7.6992 11.5135 7.89755 11.3435 7.94005 11.1097L8.24468 9.21838H8.42175H8.98847C10.3273 9.21838 11.4182 8.1133 11.397 6.76737C11.3757 5.4427 10.2706 4.40137 8.95305 4.40137ZM6.80665 6.45567L8.94595 6.46275C9.13723 6.46275 9.30015 6.6186 9.30015 6.81695C9.30015 7.00822 9.1443 7.17115 8.94595 7.17115H6.6933L6.80665 6.45567ZM8.96012 8.52415H8.59885H8.42885H8.06757C7.8338 8.52415 7.63545 8.69418 7.59295 8.92793L7.28835 10.8264H6.1266L6.58705 7.8512H8.94595C9.51975 7.8512 9.9802 7.38365 9.9802 6.81695C9.9802 6.25025 9.51268 5.78272 8.94595 5.78272L6.91997 5.77562L7.02625 5.09557H8.99555C9.95895 5.09557 10.7382 5.88897 10.7169 6.85237C10.6886 7.78742 9.90227 8.52415 8.96012 8.52415Z" fill="white"/>
<rect x="0.5" y="0.5" width="15" height="15" rx="7.5" stroke="url(#paint0_linear_10326_226185)"/>
</g>
<defs>
<linearGradient id="paint0_linear_10326_226185" x1="15" y1="1" x2="1" y2="15" gradientUnits="userSpaceOnUse">
<stop stop-color="#B4519F"/>
<stop offset="1" stop-color="#31B8C5"/>
</linearGradient>
<clipPath id="clip0_10326_226185">
<rect width="16" height="16" fill="white"/>
</clipPath>
</defs>
</svg>
