<svg width="24" height="24" viewBox="0 0 24 24" fill="none" xmlns="http://www.w3.org/2000/svg">
<g clip-path="url(#clip0_14_2151)">
<rect width="24" height="24" fill="#13FF7F"/>
<rect width="24" height="24" fill="#13FF7F"/>
<path d="M18.6211 11.9951H16.995C16.5079 11.9951 16.1162 12.3901 16.1162 12.874V15.2341C16.1162 15.7213 15.7212 16.113 15.2373 16.113H8.76266C8.27549 16.113 7.88379 16.508 7.88379 16.9918V18.6212C7.88379 19.1083 8.27879 19.5001 8.76266 19.5001H15.6093C16.0964 19.5001 16.4816 19.1051 16.4816 18.6212V17.3177C16.4816 16.8305 16.8765 16.4882 17.3604 16.4882H18.6211C19.1083 16.4882 19.5 16.0932 19.5 15.6093V12.8674C19.5 12.3769 19.105 11.9951 18.6211 11.9951Z" fill="#131313"/>
<path d="M7.8838 8.76267C7.8838 8.27551 8.2788 7.8838 8.76267 7.8838H15.2307C15.7179 7.8838 16.1096 7.48881 16.1096 7.00494V5.37887C16.1096 4.89171 15.7146 4.5 15.2307 4.5H8.38743C7.90026 4.5 7.50856 4.895 7.50856 5.37887V6.63298C7.50856 7.12014 7.11356 7.51185 6.62969 7.51185H5.37887C4.89171 7.51185 4.5 7.90685 4.5 8.39072V11.1359C4.5 11.6231 4.895 11.9951 5.38216 11.9951H7.00823C7.49539 11.9951 7.8871 11.6001 7.8871 11.1162L7.8838 8.76267Z" fill="#131313"/>
<path d="M11.2312 10.2867H12.7948C13.305 10.2867 13.7164 10.7015 13.7164 11.2084V12.7719C13.7164 13.2821 13.3017 13.6936 12.7948 13.6936H11.2312C10.721 13.6936 10.3096 13.2788 10.3096 12.7719V11.2084C10.3096 10.6982 10.7243 10.2867 11.2312 10.2867Z" fill="#131313"/>
</g>
<defs>
<clipPath id="clip0_14_2151">
<rect width="24" height="24" fill="white"/>
</clipPath>
</defs>
</svg>
