<svg width="24" height="24" viewBox="0 0 24 24" fill="none" xmlns="http://www.w3.org/2000/svg">
<g clip-path="url(#clip0_4230_178504)">
<rect x="0.75" y="0.75" width="22.5" height="22.5" rx="11.25" stroke="url(#paint0_linear_4230_178504)" stroke-width="1.5"/>
<path d="M12 21C16.9875 21 21 16.9875 21 12C21 7.01247 16.9875 3 12 3C7.01247 3 3 7.01247 3 12C3 16.9875 7.01247 21 12 21Z" fill="#2775CA"/>
<path d="M14.4752 13.4252C14.4752 12.1127 13.6877 11.6627 12.1127 11.4753C10.9877 11.3252 10.7627 11.0253 10.7627 10.5002C10.7627 9.97514 11.1377 9.63773 11.8877 9.63773C12.5627 9.63773 12.9377 9.86273 13.1252 10.4252C13.1627 10.5377 13.2752 10.6127 13.3877 10.6127H13.9876C14.1377 10.6127 14.2502 10.5002 14.2502 10.3503V10.3127C14.1001 9.4877 13.4251 8.85023 12.5627 8.77526V7.87526C12.5627 7.72523 12.4502 7.61273 12.2627 7.5752H11.7002C11.5502 7.5752 11.4377 7.6877 11.4001 7.87526V8.73773C10.2751 8.88776 9.5627 9.63773 9.5627 10.5753C9.5627 11.8128 10.3127 12.3002 11.8877 12.4878C12.9377 12.6752 13.2752 12.9002 13.2752 13.5003C13.2752 14.1003 12.7501 14.5128 12.0377 14.5128C11.0626 14.5128 10.7251 14.1002 10.6126 13.5377C10.5752 13.3878 10.4627 13.3127 10.3502 13.3127H9.71264C9.5627 13.3127 9.4502 13.4252 9.4502 13.5752V13.6128C9.60014 14.5502 10.2002 15.2252 11.4377 15.4128V16.3128C11.4377 16.4627 11.5502 16.5752 11.7376 16.6127H12.3001C12.4502 16.6127 12.5627 16.5002 12.6002 16.3128V15.4128C13.7252 15.2252 14.4752 14.4377 14.4752 13.4252V13.4252Z" fill="white"/>
<path d="M10.0875 17.3624C7.1625 16.3125 5.66247 13.05 6.75003 10.1624C7.31253 8.58744 8.55003 7.38747 10.0875 6.82497C10.2375 6.75 10.3125 6.6375 10.3125 6.44994V5.92497C10.3125 5.77494 10.2375 5.66244 10.0875 5.625C10.05 5.625 9.975 5.625 9.93747 5.66244C6.375 6.78744 4.42497 10.575 5.54997 14.1375C6.22497 16.2374 7.8375 17.85 9.93747 18.525C10.0875 18.5999 10.2375 18.525 10.275 18.3749C10.3125 18.3375 10.3125 18.3 10.3125 18.225V17.6999C10.3125 17.5874 10.2 17.4375 10.0875 17.3624ZM14.0625 5.66244C13.9125 5.58747 13.7625 5.66244 13.725 5.81247C13.6875 5.85 13.6875 5.88744 13.6875 5.9625V6.48747C13.6875 6.6375 13.8 6.78744 13.9125 6.8625C16.8375 7.91244 18.3375 11.1749 17.25 14.0625C16.6875 15.6375 15.45 16.8375 13.9125 17.4C13.7625 17.4749 13.6875 17.5874 13.6875 17.775V18.3C13.6875 18.45 13.7625 18.5625 13.9125 18.5999C13.95 18.5999 14.025 18.5999 14.0625 18.5625C17.625 17.4375 19.575 13.6499 18.45 10.0875C17.775 7.94997 16.125 6.33744 14.0625 5.66244V5.66244Z" fill="white"/>
</g>
<defs>
<linearGradient id="paint0_linear_4230_178504" x1="22.5" y1="1.5" x2="1.5" y2="22.5" gradientUnits="userSpaceOnUse">
<stop stop-color="#B4519F"/>
<stop offset="1" stop-color="#31B8C5"/>
</linearGradient>
<clipPath id="clip0_4230_178504">
<rect width="24" height="24" fill="white"/>
</clipPath>
</defs>
</svg>