<svg xmlns="http://www.w3.org/2000/svg" height="256" width="256" viewBox="0 0 682.667 682.667" fill-rule="evenodd" xmlns:v="https://vecta.io/nano">
  <circle r="341.333" cy="341.333" cx="341.333" opacity=".98" fill="#1a202c" />
  <path d="M201.582 373.702l7.042 49.432-35.221 7.061-28.18-7.061-42.27-70.615 14.09-127.115 49.311-63.554 63.401-7.061 63.401-35.311 84.545 42.372-21.138 21.183c61.054 9.414 100.976 16.482 119.76 21.189 28.18 7.061 77.497 42.372 84.539 49.432 7.048 7.061 3.687 39.52 0 63.554-2.462 16.022-7.157 27.791-14.09 35.311l28.18 162.419h-63.401l14.09-14.122-56.359-120.054-154.988 21.189-56.347 112.987h-63.401l21.132-35.311 42.27-148.297-28.18-28.243-63.414 14.122-7.048 56.493 21.132 21.189 21.138-21.189zm99.101 83.404l21.049-43.373 28.065-7.227 21.049 108.432h-70.162l14.032-7.227zm135.222-49.101l21.049-14.256 35.081 60.595-7.016 60.595h-63.146l14.032-21.387z" fill="#fff" />
</svg>