<svg width="93" height="93" viewBox="0 0 93 93" fill="none" xmlns="http://www.w3.org/2000/svg">
<path fill-rule="evenodd" clip-rule="evenodd" d="M70.6968 2.94838C72.4236 3.14856 73.518 4.89994 72.9409 6.53977L64.4966 30.5353C63.7426 32.6777 60.8458 32.9978 59.6423 31.0717L57.84 28.1875L25.2509 48.5515L21.8992 43.1876C16.5459 34.6205 19.1512 23.3358 27.7183 17.9825L44.7953 7.31158L42.8179 4.14704C41.6143 2.22096 43.1719 -0.242323 45.428 0.0192029L70.6968 2.94838ZM36.5299 58.5862C24.756 65.3838 20.722 80.439 27.5196 92.2129L60.6794 73.0681C69.4281 68.017 72.4256 56.8301 67.3745 48.0814L64.2121 42.6039L36.5299 58.5862Z" fill="#07C166"/>
</svg>
