<svg width="24" height="42" viewBox="0 0 24 42" fill="none" xmlns="http://www.w3.org/2000/svg">
<g clip-path="url(#clip0_6225_264297)">
<path d="M12 0.5C17.5234 0.5 22 4.97754 22 10.5C22 16.0234 17.5234 20.5 12 20.5C6.47754 20.5 2 16.0229 2 10.5C2 4.97754 6.47754 0.5 12 0.5Z" fill="#F5AC37"/>
<path d="M12.3652 11.2061H16.1651C16.2461 11.2061 16.2843 11.2061 16.2902 11.0999C16.3212 10.7134 16.3212 10.3246 16.2902 9.93758C16.2902 9.86243 16.2528 9.83138 16.1714 9.83138H8.60905C8.51545 9.83138 8.49025 9.86243 8.49025 9.95018V11.0626C8.49025 11.2061 8.49025 11.2061 8.6401 11.2061H12.3652V11.2061ZM15.8658 8.53131C15.8766 8.50296 15.8766 8.47191 15.8658 8.44401C15.8024 8.30586 15.7272 8.17401 15.6399 8.05026C15.5085 7.83876 15.3537 7.6439 15.1773 7.46885C15.0941 7.3631 14.9978 7.26815 14.8898 7.1876C14.3489 6.72724 13.7058 6.40144 13.0146 6.23764C12.6658 6.15934 12.3094 6.12199 11.9521 6.12514H8.596C8.5024 6.12514 8.4898 6.16249 8.4898 6.24394V8.46246C8.4898 8.55606 8.4898 8.58126 8.6086 8.58126H15.8208C15.8208 8.58126 15.8834 8.56866 15.896 8.53131H15.8654H15.8658ZM15.8658 12.5062C15.7596 12.4945 15.6525 12.4945 15.5463 12.5062H8.61535C8.52175 12.5062 8.49025 12.5062 8.49025 12.6313V14.8003C8.49025 14.9002 8.49025 14.9254 8.61535 14.9254H11.8153C11.9683 14.9371 12.1213 14.9263 12.2712 14.8944C12.7356 14.8611 13.1924 14.7603 13.628 14.5942C13.7864 14.5393 13.9394 14.4678 14.0838 14.3818H14.1275C14.8776 13.9917 15.4869 13.3788 15.8712 12.6264C15.8712 12.6264 15.9149 12.5319 15.8658 12.5071V12.5062ZM7.23429 16.05V16.0126V14.5564V14.0628V12.594C7.23429 12.5125 7.23429 12.5004 7.13439 12.5004H5.77808C5.70293 12.5004 5.67188 12.5004 5.67188 12.4005V11.2129H7.12179C7.20279 11.2129 7.23429 11.2129 7.23429 11.1067V9.93173C7.23429 9.85658 7.23429 9.83813 7.13439 9.83813H5.77808C5.70293 9.83813 5.67188 9.83813 5.67188 9.73822V8.63841C5.67188 8.56956 5.67188 8.55111 5.77178 8.55111H7.11549C7.20909 8.55111 7.23429 8.55111 7.23429 8.43231V5.06358C7.23429 4.96368 7.23429 4.93848 7.35939 4.93848H12.0466C12.3868 4.95198 12.7248 4.98933 13.0591 5.05098C13.7481 5.17833 14.4101 5.42448 15.0153 5.77593C15.4167 6.01219 15.7862 6.29749 16.1151 6.62599C16.3626 6.88295 16.5858 7.16105 16.7838 7.45715C16.9805 7.75731 17.1438 8.07816 17.2721 8.41341C17.2878 8.50071 17.3715 8.55966 17.4588 8.54481H18.5776C18.7211 8.54481 18.7211 8.54481 18.7274 8.68251V9.70762C18.7274 9.80753 18.6901 9.83273 18.5897 9.83273H17.727C17.6397 9.83273 17.6145 9.83273 17.6208 9.94523C17.655 10.3259 17.655 10.708 17.6208 11.0887C17.6208 11.1949 17.6208 11.2075 17.7401 11.2075H18.727C18.7706 11.2637 18.727 11.32 18.727 11.3767C18.7333 11.4491 18.7333 11.5225 18.727 11.5949V12.3514C18.727 12.4576 18.6959 12.4891 18.6019 12.4891H17.4206C17.3382 12.4734 17.2581 12.526 17.2392 12.6079C16.958 13.3392 16.508 13.9948 15.9266 14.5204C15.7142 14.7117 15.491 14.8917 15.2579 15.0577C15.0077 15.2017 14.7642 15.3516 14.5077 15.4704C14.0357 15.6828 13.5407 15.8394 13.0326 15.9388C12.5502 16.0252 12.061 16.0644 11.5701 16.0576H7.23249V16.0513L7.23429 16.05Z" fill="#FEFEFD"/>
</g>
<rect x="1.75" y="0.25" width="20.5" height="20.5" rx="10.25" stroke="#F9F8F4" stroke-width="0.5"/>
<g clip-path="url(#clip1_6225_264297)">
<g clip-path="url(#clip2_6225_264297)">
<path d="M12 10.5C17.5226 10.5 22 14.9774 22 20.5C22 26.0226 17.5224 30.5 12 30.5C6.4776 30.5 2 26.0238 2 20.5C2 14.9762 6.4768 10.5 12 10.5Z" fill="#53AE94"/>
<path d="M13.2344 19.1673V17.6797H16.6362V15.4131H7.37295V17.6797H10.7752V19.1661C8.01015 19.2931 5.93115 19.8407 5.93115 20.4967C5.93115 21.1527 8.01115 21.7003 10.7752 21.8281V26.5931H13.2352V21.8277C15.9952 21.7003 18.07 21.1531 18.07 20.4977C18.07 19.8423 15.9952 19.2951 13.2352 19.1677M13.2352 21.4241V21.4229C13.1658 21.4273 12.8092 21.4487 12.0152 21.4487C11.3804 21.4487 10.9338 21.4307 10.7764 21.4225V21.4245C8.33355 21.3163 6.51015 20.8909 6.51015 20.3819C6.51015 19.8729 8.33375 19.4481 10.7764 19.3397V21.0007C10.9364 21.0117 11.394 21.0387 12.0256 21.0387C12.7842 21.0387 13.1656 21.0071 13.2356 21.0007V19.3397C15.6736 19.4483 17.4928 19.8741 17.4928 20.3813C17.4928 20.8885 15.6728 21.3145 13.2356 21.4231" fill="white"/>
</g>
</g>
<rect x="1.75" y="10.25" width="20.5" height="20.5" rx="10.25" stroke="#F9F8F4" stroke-width="0.5"/>
<path d="M12 40.75C17.6798 40.75 22.25 36.1798 22.25 30.5C22.25 24.8202 17.6798 20.25 12 20.25C6.32023 20.25 1.75 24.8202 1.75 30.5C1.75 36.1798 6.32023 40.75 12 40.75Z" fill="#2775CA" stroke="#F9F8F4" stroke-width="0.5"/>
<path d="M14.7498 32.0835C14.7498 30.6252 13.8748 30.1252 12.1248 29.9169C10.8748 29.7502 10.6248 29.4169 10.6248 28.8335C10.6248 28.2501 11.0415 27.8752 11.8748 27.8752C12.6248 27.8752 13.0415 28.1252 13.2498 28.7502C13.2915 28.8752 13.4165 28.9585 13.5415 28.9585H14.2081C14.3748 28.9585 14.4998 28.8335 14.4998 28.6669V28.6252C14.3331 27.7085 13.5831 27.0002 12.6248 26.9169V25.9169C12.6248 25.7502 12.4998 25.6252 12.2915 25.5835H11.6665C11.4998 25.5835 11.3748 25.7085 11.3331 25.9169V26.8752C10.0831 27.0419 9.2915 27.8752 9.2915 28.9169C9.2915 30.2919 10.1248 30.8335 11.8748 31.0419C13.0415 31.2502 13.4165 31.5002 13.4165 32.1669C13.4165 32.8336 12.8331 33.2919 12.0415 33.2919C10.9581 33.2919 10.5831 32.8335 10.4581 32.2085C10.4165 32.0419 10.2915 31.9585 10.1665 31.9585H9.4581C9.2915 31.9585 9.1665 32.0835 9.1665 32.2502V32.2919C9.3331 33.3335 9.9998 34.0835 11.3748 34.2919V35.2919C11.3748 35.4585 11.4998 35.5835 11.7081 35.6252H12.3331C12.4998 35.6252 12.6248 35.5002 12.6665 35.2919V34.2919C13.9165 34.0835 14.7498 33.2085 14.7498 32.0835V32.0835Z" fill="white"/>
<path d="M9.87484 36.4583C6.62484 35.2917 4.95814 31.6667 6.16654 28.4583C6.79154 26.7083 8.16654 25.375 9.87484 24.75C10.0415 24.6667 10.1248 24.5417 10.1248 24.3333V23.75C10.1248 23.5833 10.0415 23.4583 9.87484 23.4167C9.83314 23.4167 9.74984 23.4167 9.70814 23.4583C5.74984 24.7083 3.58314 28.9167 4.83314 32.875C5.58314 35.2083 7.37484 37 9.70814 37.75C9.87484 37.8333 10.0415 37.75 10.0831 37.5833C10.1248 37.5417 10.1248 37.5 10.1248 37.4167V36.8333C10.1248 36.7083 9.99984 36.5417 9.87484 36.4583ZM14.2915 23.4583C14.1248 23.375 13.9581 23.4583 13.9165 23.625C13.8748 23.6667 13.8748 23.7083 13.8748 23.7917V24.375C13.8748 24.5417 13.9998 24.7083 14.1248 24.7917C17.3748 25.9583 19.0415 29.5833 17.8331 32.7917C17.2081 34.5417 15.8331 35.875 14.1248 36.5C13.9581 36.5833 13.8748 36.7083 13.8748 36.9167V37.5C13.8748 37.6667 13.9581 37.7917 14.1248 37.8333C14.1665 37.8333 14.2498 37.8333 14.2915 37.7917C18.2498 36.5417 20.4165 32.3333 19.1665 28.375C18.4165 26 16.5831 24.2083 14.2915 23.4583V23.4583Z" fill="white"/>
<defs>
<clipPath id="clip0_6225_264297">
<rect x="2" y="0.5" width="20" height="20" rx="10" fill="white"/>
</clipPath>
<clipPath id="clip1_6225_264297">
<rect x="2" y="10.5" width="20" height="20" rx="10" fill="white"/>
</clipPath>
<clipPath id="clip2_6225_264297">
<rect width="20" height="20" fill="white" transform="translate(2 10.5)"/>
</clipPath>
</defs>
</svg>

