<svg width="16" height="32" viewBox="0 0 16 32" fill="none" xmlns="http://www.w3.org/2000/svg">
<g clip-path="url(#clip0_6225_264297)">
<g clip-path="url(#clip1_6225_264297)">
<path d="M8 0C12.4187 0 16 3.58204 16 8C16 12.4187 12.4187 16 8 16C3.58204 16 0 12.4183 0 8C0 3.58204 3.58204 0 8 0Z" fill="#F5AC37"/>
<path d="M8.29219 8.56491H11.3321C11.3969 8.56491 11.4275 8.56491 11.4321 8.47995C11.457 8.17071 11.457 7.85966 11.4321 7.55006C11.4321 7.48994 11.4023 7.4651 11.3371 7.4651H5.28724C5.21236 7.4651 5.1922 7.48994 5.1922 7.56014V8.45007C5.1922 8.56491 5.1922 8.56491 5.31208 8.56491H8.29219ZM11.0927 6.42505C11.1013 6.40237 11.1013 6.37753 11.0927 6.35521C11.0419 6.24469 10.9818 6.13921 10.9119 6.04021C10.8068 5.871 10.683 5.71512 10.5419 5.57508C10.4753 5.49048 10.3982 5.41452 10.3118 5.35008C9.87909 4.9818 9.36464 4.72115 8.81168 4.59011C8.53268 4.52747 8.24755 4.49759 7.96171 4.50011H5.2768C5.20192 4.50011 5.19184 4.52999 5.19184 4.59515V6.36997C5.19184 6.44485 5.19184 6.46501 5.28688 6.46501H11.0567C11.0567 6.46501 11.1067 6.45493 11.1168 6.42505H11.0923H11.0927ZM11.0927 9.60496C11.0077 9.5956 10.922 9.5956 10.8371 9.60496H5.29228C5.2174 9.60496 5.1922 9.60496 5.1922 9.70504V11.4403C5.1922 11.5202 5.1922 11.5403 5.29228 11.5403H7.85227C7.97467 11.5497 8.09707 11.5411 8.21695 11.5155C8.58848 11.4889 8.95388 11.4082 9.30236 11.2754C9.42908 11.2315 9.55149 11.1742 9.66705 11.1055H9.70197C10.3021 10.7933 10.7895 10.303 11.097 9.70108C11.097 9.70108 11.1319 9.62548 11.0927 9.60568V9.60496ZM4.18743 12.44V12.4101V11.2451V10.8502V9.67516C4.18743 9.61 4.18743 9.60028 4.10751 9.60028H3.02246C2.96234 9.60028 2.9375 9.60028 2.9375 9.52036V8.57031H4.09743C4.16223 8.57031 4.18743 8.57031 4.18743 8.48535V7.54538C4.18743 7.48526 4.18743 7.4705 4.10751 7.4705H3.02246C2.96234 7.4705 2.9375 7.4705 2.9375 7.39058V6.51073C2.9375 6.45565 2.9375 6.44089 3.01742 6.44089H4.09239C4.16727 6.44089 4.18743 6.44089 4.18743 6.34585V3.65086C4.18743 3.57094 4.18743 3.55078 4.28751 3.55078H8.03731C8.30947 3.56158 8.57984 3.59146 8.84732 3.64078C9.39848 3.74266 9.92805 3.93959 10.4123 4.22075C10.7334 4.40975 11.0289 4.63799 11.2921 4.90079C11.4901 5.10636 11.6687 5.32884 11.8271 5.56572C11.9844 5.80584 12.1151 6.06253 12.2177 6.33073C12.2303 6.40057 12.2972 6.44773 12.3671 6.43585H13.262C13.3769 6.43585 13.3769 6.43585 13.3819 6.54601V7.3661C13.3819 7.44602 13.352 7.46618 13.2718 7.46618H12.5816C12.5118 7.46618 12.4916 7.46618 12.4967 7.55618C12.524 7.86074 12.524 8.16639 12.4967 8.47095C12.4967 8.55591 12.4967 8.56599 12.5921 8.56599H13.3816C13.4165 8.61099 13.3816 8.65599 13.3816 8.70135C13.3866 8.75931 13.3866 8.81799 13.3816 8.87596V9.48112C13.3816 9.56608 13.3567 9.59128 13.2815 9.59128H12.3365C12.2706 9.57868 12.2065 9.6208 12.1914 9.68632C11.9664 10.2713 11.6064 10.7959 11.1413 11.2163C10.9713 11.3693 10.7928 11.5133 10.6063 11.6462C10.4061 11.7614 10.2114 11.8813 10.0062 11.9763C9.62853 12.1462 9.23252 12.2715 8.82608 12.3511C8.44016 12.4202 8.04883 12.4515 7.65607 12.4461H4.18599V12.4411L4.18743 12.44Z" fill="#FEFEFD"/>
</g>
<rect x="-0.2" y="-0.2" width="16.4" height="16.4" rx="8.2" stroke="#F9F8F4" stroke-width="0.4"/>
<g clip-path="url(#clip2_6225_264297)">
<g clip-path="url(#clip3_6225_264297)">
<path d="M8 8C12.4181 8 16 11.5819 16 16C16 20.4181 12.4179 24 8 24C3.58208 24 0 20.419 0 16C0 11.581 3.58144 8 8 8Z" fill="#53AE94"/>
<path d="M8.98758 14.9338V13.7437H11.709V11.9304H4.29846V13.7437H7.02022V14.9328C4.80822 15.0344 3.14502 15.4725 3.14502 15.9973C3.14502 16.5221 4.80902 16.9602 7.02022 17.0624V20.8744H8.98822V17.0621C11.1962 16.9602 12.8561 16.5224 12.8561 15.9981C12.8561 15.4738 11.1962 15.036 8.98822 14.9341M8.98822 16.7392V16.7383C8.9327 16.7418 8.64742 16.7589 8.01222 16.7589C7.50438 16.7589 7.1471 16.7445 7.02118 16.7379V16.7395C5.06694 16.653 3.60822 16.3127 3.60822 15.9055C3.60822 15.4983 5.0671 15.1584 7.02118 15.0717V16.4005C7.14918 16.4093 7.51526 16.4309 8.02054 16.4309C8.62742 16.4309 8.93254 16.4056 8.98854 16.4005V15.0717C10.9389 15.1586 12.3943 15.4992 12.3943 15.905C12.3943 16.3107 10.9383 16.6515 8.98854 16.7384" fill="white"/>
</g>
</g>
<rect x="-0.2" y="7.8" width="16.4" height="16.4" rx="8.2" stroke="#F9F8F4" stroke-width="0.4"/>
<path d="M8 32.2C12.5438 32.2 16.2 28.5438 16.2 24C16.2 19.4562 12.5438 15.8 8 15.8C3.45618 15.8 -0.2 19.4562 -0.2 24C-0.2 28.5438 3.45618 32.2 8 32.2Z" fill="#2775CA" stroke="#F9F8F4" stroke-width="0.4"/>
<path d="M10.1995 25.2667C10.1995 24.1 9.49955 23.7 8.09955 23.5334C7.09955 23.4 6.89955 23.1334 6.89955 22.6667C6.89955 22.1999 7.23291 21.9 7.89955 21.9C8.49955 21.9 8.83291 22.1 8.99955 22.6C9.03291 22.7 9.13291 22.7667 9.23291 22.7667H9.76619C9.89955 22.7667 9.99955 22.6667 9.99955 22.5334V22.5C9.86619 21.7667 9.26619 21.2 8.49955 21.1334V20.3334C8.49955 20.2 8.39955 20.1 8.23291 20.0667H7.73291C7.59955 20.0667 7.49955 20.1667 7.46619 20.3334V21.1C6.46619 21.2334 5.83291 21.9 5.83291 22.7334C5.83291 23.8334 6.49955 24.2667 7.89955 24.4334C8.83291 24.6 9.13291 24.8 9.13291 25.3334C9.13291 25.8667 8.66619 26.2334 8.03291 26.2334C7.16619 26.2334 6.86619 25.8667 6.76619 25.3667C6.73291 25.2334 6.63291 25.1667 6.53291 25.1667H5.96619C5.83291 25.1667 5.73291 25.2667 5.73291 25.4V25.4334C5.86619 26.2667 6.39955 26.8667 7.49955 27.0334V27.8334C7.49955 27.9667 7.59955 28.0667 7.76619 28.1H8.26619C8.39955 28.1 8.49955 28 8.53291 27.8334V27.0334C9.53291 26.8667 10.1995 26.1667 10.1995 25.2667V25.2667Z" fill="white"/>
<path d="M6.30016 28.7665C3.70016 27.8333 2.3668 24.9333 3.33352 22.3665C3.83352 20.9665 4.93352 19.8999 6.30016 19.3999C6.43352 19.3333 6.50016 19.2333 6.50016 19.0665V18.5999C6.50016 18.4665 6.43352 18.3665 6.30016 18.3333C6.2668 18.3333 6.20016 18.3333 6.1668 18.3665C3.00016 19.3665 1.2668 22.7333 2.2668 25.8999C2.8668 27.7665 4.30016 29.1999 6.1668 29.7999C6.30016 29.8665 6.43352 29.7999 6.4668 29.6665C6.50016 29.6333 6.50016 29.5999 6.50016 29.5333V29.0665C6.50016 28.9665 6.40016 28.8333 6.30016 28.7665ZM9.83352 18.3665C9.70016 18.2999 9.5668 18.3665 9.53352 18.4999C9.50016 18.5333 9.50016 18.5665 9.50016 18.6333V19.0999C9.50016 19.2333 9.60016 19.3665 9.70016 19.4333C12.3002 20.3665 13.6335 23.2665 12.6668 25.8333C12.1668 27.2333 11.0668 28.2999 9.70016 28.7999C9.5668 28.8665 9.50016 28.9665 9.50016 29.1333V29.5999C9.50016 29.7333 9.5668 29.8333 9.70016 29.8665C9.73352 29.8665 9.80016 29.8665 9.83352 29.8333C13.0002 28.8333 14.7335 25.4665 13.7335 22.2999C13.1335 20.3999 11.6668 18.9665 9.83352 18.3665V18.3665Z" fill="white"/>
</g>
<defs>
<clipPath id="clip0_6225_264297">
<rect width="16" height="32" fill="white"/>
</clipPath>
<clipPath id="clip1_6225_264297">
<rect width="16" height="16" rx="8" fill="white"/>
</clipPath>
<clipPath id="clip2_6225_264297">
<rect y="8" width="16" height="16" rx="8" fill="white"/>
</clipPath>
<clipPath id="clip3_6225_264297">
<rect width="16" height="16" fill="white" transform="translate(0 8)"/>
</clipPath>
</defs>
</svg>
