<svg width="24" height="42" viewBox="0 0 24 42" fill="none" xmlns="http://www.w3.org/2000/svg">
<g clip-path="url(#clip0_6231_264294)">
<path d="M18.3079 5.19738L17.7588 5.74653C19.0691 7.1795 19.7958 9.05097 19.7958 10.9927C19.7958 12.9345 19.0691 14.806 17.7588 16.2389L18.3079 16.7881C19.7652 15.2074 20.5743 13.1362 20.5743 10.9863C20.5743 8.83642 19.7652 6.76524 18.3079 5.18457V5.19738Z" fill="#5A5564"/>
<path d="M6.75923 5.24491C8.1922 3.93455 10.0637 3.20788 12.0054 3.20788C13.9472 3.20788 15.8187 3.93455 17.2516 5.24491L17.8008 4.69576C16.2201 3.2385 14.1489 2.42944 11.999 2.42944C9.84911 2.42944 7.77793 3.2385 6.19727 4.69576L6.75923 5.24491Z" fill="#5A5564"/>
<path d="M6.24515 16.2446C4.93634 14.8119 4.21064 12.9416 4.21064 11.0011C4.21064 9.06062 4.93634 7.19029 6.24515 5.75764L5.696 5.2085C4.23874 6.78916 3.42969 8.86034 3.42969 11.0103C3.42969 13.1602 4.23874 15.2313 5.696 16.812L6.24515 16.2446Z" fill="#5A5564"/>
<path d="M17.2447 16.7515C15.8117 18.0618 13.9402 18.7885 11.9985 18.7885C10.0567 18.7885 8.18524 18.0618 6.75227 16.7515L6.20312 17.3006C7.78379 18.7579 9.85497 19.5669 12.0049 19.5669C14.1548 19.5669 16.226 18.7579 17.8066 17.3006L17.2447 16.7515Z" fill="#5A5564"/>
<path d="M15.4671 9.16772C15.3573 8.02183 14.3688 7.63742 13.1186 7.52027V5.94238H12.1521V7.49098C11.8976 7.49098 11.6377 7.49098 11.3796 7.49098V5.94238H10.4204V7.53125H8.45996V8.56548C8.45996 8.56548 9.17385 8.55267 9.16287 8.56548C9.29159 8.55132 9.42078 8.58768 9.52322 8.6669C9.62566 8.74612 9.69335 8.86202 9.71202 8.99016V13.3394C9.70927 13.3846 9.69748 13.4288 9.67736 13.4694C9.65724 13.5099 9.62919 13.546 9.59487 13.5756C9.56119 13.6056 9.52178 13.6286 9.479 13.6431C9.43622 13.6576 9.39095 13.6632 9.34592 13.6598C9.35873 13.6707 8.64301 13.6598 8.64301 13.6598L8.45996 14.8148H10.4021V16.4293H11.3686V14.8386H12.1411V16.422H13.1094V14.8258C14.7422 14.7269 15.8808 14.3242 16.0236 12.7958C16.1389 11.5657 15.5605 11.0165 14.6361 10.795C15.198 10.5186 15.5458 10.0061 15.4671 9.16772ZM14.1125 12.6054C14.1125 13.8062 12.0551 13.6689 11.3997 13.6689V11.5382C12.0551 11.54 14.1125 11.3515 14.1125 12.6054ZM13.6641 9.60337C13.6641 10.7017 11.9471 10.568 11.4016 10.568V8.63138C11.9471 8.63138 13.6641 8.45931 13.6641 9.60337Z" fill="#F09242"/>
<path d="M11.9982 21C10.0205 20.9996 8.08737 20.4129 6.44316 19.3139C4.79895 18.215 3.51751 16.6532 2.76086 14.826C2.00421 12.9988 1.80633 10.9883 2.19224 9.04865C2.57815 7.10901 3.53052 5.32735 4.92894 3.92894C6.32735 2.53052 8.10901 1.57815 10.0487 1.19224C11.9883 0.80633 13.9988 1.00421 15.826 1.76086C17.6532 2.51751 19.215 3.79895 20.3139 5.44316C21.4129 7.08737 21.9996 9.02052 22 10.9982C22.0002 12.3117 21.7417 13.6124 21.2391 14.826C20.7366 16.0396 19.9999 17.1423 19.0711 18.0711C18.1423 18.9999 17.0396 19.7366 15.826 20.2391C14.6124 20.7417 13.3117 21.0002 11.9982 21V21ZM11.9982 1.7798C10.1761 1.78124 8.39544 2.32282 6.88113 3.33606C5.36682 4.3493 4.18688 5.78874 3.49046 7.47242C2.79403 9.1561 2.61238 11.0085 2.96846 12.7954C3.32454 14.5823 4.20237 16.2235 5.491 17.5116C6.77963 18.7997 8.4212 19.6769 10.2082 20.0323C11.9953 20.3876 13.8476 20.2052 15.531 19.5081C17.2144 18.8111 18.6533 17.6305 19.666 16.1158C20.6786 14.6011 21.2195 12.8202 21.2202 10.9982C21.2207 9.78716 20.9825 8.58792 20.5191 7.46904C20.0558 6.35016 19.3765 5.33358 18.52 4.47743C17.6635 3.62128 16.6467 2.94235 15.5276 2.47947C14.4085 2.01659 13.2092 1.77883 11.9982 1.7798V1.7798Z" fill="#282138"/>
</g>
<rect x="1.75" y="0.75" width="20.5" height="20.5" rx="10.25" stroke="#F9F8F4" stroke-width="0.5"/>
<g clip-path="url(#clip1_6231_264294)">
<g clip-path="url(#clip2_6231_264294)">
<path d="M12 11C17.5226 11 22 15.4774 22 21C22 26.5226 17.5224 31 12 31C6.4776 31 2 26.5238 2 21C2 15.4762 6.4768 11 12 11Z" fill="#53AE94"/>
<path d="M13.2344 19.6673V18.1797H16.6362V15.9131H7.37295V18.1797H10.7752V19.6661C8.01015 19.7931 5.93115 20.3407 5.93115 20.9967C5.93115 21.6527 8.01115 22.2003 10.7752 22.3281V27.0931H13.2352V22.3277C15.9952 22.2003 18.07 21.6531 18.07 20.9977C18.07 20.3423 15.9952 19.7951 13.2352 19.6677M13.2352 21.9241V21.9229C13.1658 21.9273 12.8092 21.9487 12.0152 21.9487C11.3804 21.9487 10.9338 21.9307 10.7764 21.9225V21.9245C8.33355 21.8163 6.51015 21.3909 6.51015 20.8819C6.51015 20.3729 8.33375 19.9481 10.7764 19.8397V21.5007C10.9364 21.5117 11.394 21.5387 12.0256 21.5387C12.7842 21.5387 13.1656 21.5071 13.2356 21.5007V19.8397C15.6736 19.9483 17.4928 20.3741 17.4928 20.8813C17.4928 21.3885 15.6728 21.8145 13.2356 21.9231" fill="white"/>
</g>
</g>
<rect x="1.75" y="10.75" width="20.5" height="20.5" rx="10.25" stroke="#F9F8F4" stroke-width="0.5"/>
<g clip-path="url(#clip3_6231_264294)">
<path fill-rule="evenodd" clip-rule="evenodd" d="M12 41C17.508 41 22 36.508 22 31C22 25.493 17.508 21 12 21C6.493 21 2 25.493 2 31C1.999 36.508 6.492 41 12 41Z" fill="#627EEA"/>
<path d="M11.9981 23.5L11.8975 23.8418V33.7602L11.9981 33.8606L16.602 31.1392L11.9981 23.5Z" fill="#C1CCF6"/>
<path d="M11.9976 23.5L7.39355 31.1392L11.9976 33.8606V29.0465V23.5Z" fill="white"/>
<path d="M11.9981 34.7322L11.9414 34.8014V38.3345L11.9981 38.5L16.6049 32.0122L11.9981 34.7322Z" fill="#C1CCF6"/>
<path d="M11.9976 38.5V34.7322L7.39355 32.0122L11.9976 38.5Z" fill="white"/>
<path d="M11.998 33.8607L16.602 31.1393L11.998 29.0466V33.8607Z" fill="#8198EE"/>
<path d="M7.39355 31.1393L11.9976 33.8607V29.0466L7.39355 31.1393Z" fill="#C1CCF6"/>
</g>
<rect x="1.75" y="20.75" width="20.5" height="20.5" rx="10.25" stroke="#F9F8F4" stroke-width="0.5"/>
<defs>
<clipPath id="clip0_6231_264294">
<rect x="2" y="1" width="20" height="20" rx="10" fill="white"/>
</clipPath>
<clipPath id="clip1_6231_264294">
<rect x="2" y="11" width="20" height="20" rx="10" fill="white"/>
</clipPath>
<clipPath id="clip2_6231_264294">
<rect width="20" height="20" fill="white" transform="translate(2 11)"/>
</clipPath>
<clipPath id="clip3_6231_264294">
<rect x="2" y="21" width="20" height="20" rx="10" fill="white"/>
</clipPath>
</defs>
</svg>
