<svg width="16" height="32" viewBox="0 0 16 32" fill="none" xmlns="http://www.w3.org/2000/svg">
<g clip-path="url(#clip0_6231_264294)">
<g clip-path="url(#clip1_6231_264294)">
<path d="M13.0463 3.35791L12.6069 3.79723C13.6552 4.9436 14.2366 6.44078 14.2366 7.99419C14.2366 9.5476 13.6552 11.0448 12.6069 12.1911L13.0463 12.6305C14.2121 11.3659 14.8593 9.70899 14.8593 7.98906C14.8593 6.26913 14.2121 4.61219 13.0463 3.34766V3.35791Z" fill="#5A5564"/>
<path d="M3.80748 3.39592C4.95386 2.34764 6.45103 1.76631 8.00444 1.76631C9.55785 1.76631 11.055 2.34764 12.2014 3.39592L12.6407 2.95661C11.3762 1.7908 9.71924 1.14355 7.99932 1.14355C6.27939 1.14355 4.62244 1.7908 3.35791 2.95661L3.80748 3.39592Z" fill="#5A5564"/>
<path d="M3.39592 12.1955C2.34888 11.0494 1.76831 9.55317 1.76831 8.00078C1.76831 6.4484 2.34888 4.95214 3.39592 3.80602L2.95661 3.3667C1.7908 4.63123 1.14355 6.28818 1.14355 8.00811C1.14355 9.72803 1.7908 11.385 2.95661 12.6495L3.39592 12.1955Z" fill="#5A5564"/>
<path d="M12.1955 12.6011C11.0492 13.6494 9.552 14.2307 7.99859 14.2307C6.44517 14.2307 4.948 13.6494 3.80162 12.6011L3.3623 13.0404C4.62684 14.2062 6.28378 14.8534 8.00371 14.8534C9.72364 14.8534 11.3806 14.2062 12.6451 13.0404L12.1955 12.6011Z" fill="#5A5564"/>
<path d="M10.7737 6.53412C10.6858 5.61741 9.89504 5.30989 8.89486 5.21617V3.95386H8.12166V5.19274C7.91811 5.19274 7.71016 5.19274 7.50368 5.19274V3.95386H6.73634V5.22495H5.16797V6.05234C5.16797 6.05234 5.73908 6.04209 5.7303 6.05234C5.83327 6.04101 5.93663 6.0701 6.01858 6.13347C6.10053 6.19685 6.15468 6.28956 6.16962 6.39208V9.87149C6.16742 9.90764 6.15799 9.94298 6.14189 9.97543C6.12579 10.0079 6.10335 10.0368 6.07589 10.0604C6.04895 10.0845 6.01742 10.1028 5.9832 10.1144C5.94897 10.126 5.91276 10.1305 5.87674 10.1278C5.88699 10.1365 5.31441 10.1278 5.31441 10.1278L5.16797 11.0518H6.72169V12.3434H7.4949V11.0708H8.11287V12.3375H8.88754V11.0606C10.1938 10.9815 11.1046 10.6593 11.2189 9.43656C11.3111 8.45248 10.8484 8.01316 10.1088 7.83597C10.5584 7.61485 10.8366 7.20482 10.7737 6.53412ZM9.69003 9.28426C9.69003 10.2449 8.04404 10.1351 7.51979 10.1351V8.43052C8.04404 8.43198 9.69003 8.28115 9.69003 9.28426ZM9.33125 6.88265C9.33125 7.76129 7.95764 7.65439 7.52125 7.65439V6.10506C7.95764 6.10506 9.33125 5.9674 9.33125 6.88265Z" fill="#F09242"/>
<path d="M7.99854 16C6.41641 15.9997 4.8699 15.5303 3.55453 14.6512C2.23916 13.772 1.21401 12.5225 0.608687 11.0608C0.00336759 9.59905 -0.154936 7.99063 0.153793 6.43892C0.462521 4.88721 1.22442 3.46188 2.34315 2.34315C3.46188 1.22442 4.88721 0.462521 6.43892 0.153793C7.99063 -0.154936 9.59905 0.00336759 11.0608 0.608687C12.5225 1.21401 13.772 2.23916 14.6512 3.55453C15.5303 4.8699 15.9997 6.41641 16 7.99854C16.0002 9.04936 15.7934 10.0899 15.3913 11.0608C14.9893 12.0317 14.3999 12.9138 13.6569 13.6569C12.9138 14.3999 12.0317 14.9893 11.0608 15.3913C10.0899 15.7934 9.04936 16.0002 7.99854 16ZM7.99854 0.623837C6.54091 0.624995 5.11635 1.05825 3.9049 1.86885C2.69345 2.67944 1.74951 3.83099 1.19237 5.17793C0.635226 6.52488 0.489905 8.00676 0.77477 9.43628C1.05964 10.8658 1.7619 12.1788 2.7928 13.2093C3.8237 14.2398 5.13696 14.9415 6.56659 15.2258C7.99622 15.5101 9.47805 15.3642 10.8248 14.8065C12.1715 14.2488 13.3227 13.3044 14.1328 12.0927C14.9429 10.8809 15.3756 9.45616 15.3762 7.99854C15.3766 7.02972 15.186 6.07033 14.8153 5.17523C14.4446 4.28013 13.9012 3.46686 13.216 2.78194C12.5308 2.09702 11.7173 1.55388 10.8221 1.18358C9.92682 0.813272 8.96735 0.623067 7.99854 0.623837Z" fill="#282138"/>
</g>
<rect x="-0.2" y="-0.2" width="16.4" height="16.4" rx="8.2" stroke="#F9F8F4" stroke-width="0.4"/>
<g clip-path="url(#clip2_6231_264294)">
<g clip-path="url(#clip3_6231_264294)">
<path d="M8 8C12.4181 8 16 11.5819 16 16C16 20.4181 12.4179 24 8 24C3.58208 24 0 20.419 0 16C0 11.581 3.58144 8 8 8Z" fill="#53AE94"/>
<path d="M8.98758 14.9338V13.7437H11.709V11.9304H4.29846V13.7437H7.02022V14.9328C4.80822 15.0344 3.14502 15.4725 3.14502 15.9973C3.14502 16.5221 4.80902 16.9602 7.02022 17.0624V20.8744H8.98822V17.0621C11.1962 16.9602 12.8561 16.5224 12.8561 15.9981C12.8561 15.4738 11.1962 15.036 8.98822 14.9341M8.98822 16.7392V16.7383C8.9327 16.7418 8.64742 16.7589 8.01222 16.7589C7.50438 16.7589 7.1471 16.7445 7.02118 16.7379V16.7395C5.06694 16.653 3.60822 16.3127 3.60822 15.9055C3.60822 15.4983 5.0671 15.1584 7.02118 15.0717V16.4005C7.14918 16.4093 7.51526 16.4309 8.02054 16.4309C8.62742 16.4309 8.93254 16.4056 8.98854 16.4005V15.0717C10.9389 15.1586 12.3943 15.4992 12.3943 15.905C12.3943 16.3107 10.9383 16.6515 8.98854 16.7384" fill="white"/>
</g>
</g>
<rect x="-0.2" y="7.8" width="16.4" height="16.4" rx="8.2" stroke="#F9F8F4" stroke-width="0.4"/>
<g clip-path="url(#clip4_6231_264294)">
<path fill-rule="evenodd" clip-rule="evenodd" d="M8 32C12.4064 32 16 28.4064 16 24C16 19.5944 12.4064 16 8 16C3.5944 16 1.33515e-07 19.5944 1.33515e-07 24C-0.000799867 28.4064 3.5936 32 8 32Z" fill="#627EEA"/>
<path d="M7.99897 18L7.91846 18.2735V26.2082L7.99897 26.2885L11.6821 24.1114L7.99897 18Z" fill="#C1CCF6"/>
<path d="M7.99866 18L4.31543 24.1114L7.99866 26.2885V22.4372V18Z" fill="white"/>
<path d="M7.99899 26.9858L7.95361 27.0412V29.8676L7.99899 30.0001L11.6844 24.8098L7.99899 26.9858Z" fill="#C1CCF6"/>
<path d="M7.99866 30.0001V26.9858L4.31543 24.8098L7.99866 30.0001Z" fill="white"/>
<path d="M7.99902 26.2885L11.6822 24.1114L7.99902 22.4373V26.2885Z" fill="#8198EE"/>
<path d="M4.31543 24.1114L7.99866 26.2885V22.4373L4.31543 24.1114Z" fill="#C1CCF6"/>
</g>
<rect x="-0.2" y="15.8" width="16.4" height="16.4" rx="8.2" stroke="#F9F8F4" stroke-width="0.4"/>
</g>
<defs>
<clipPath id="clip0_6231_264294">
<rect width="16" height="32" fill="white"/>
</clipPath>
<clipPath id="clip1_6231_264294">
<rect width="16" height="16" rx="8" fill="white"/>
</clipPath>
<clipPath id="clip2_6231_264294">
<rect y="8" width="16" height="16" rx="8" fill="white"/>
</clipPath>
<clipPath id="clip3_6231_264294">
<rect width="16" height="16" fill="white" transform="translate(0 8)"/>
</clipPath>
<clipPath id="clip4_6231_264294">
<rect y="16" width="16" height="16" rx="8" fill="white"/>
</clipPath>
</defs>
</svg>
