<svg width="24" height="32" viewBox="0 0 24 32" fill="none" xmlns="http://www.w3.org/2000/svg">
<g clip-path="url(#clip0_6231_264328)">
<g clip-path="url(#clip1_6231_264328)">
<mask id="mask0_6231_264328" style="mask-type:alpha" maskUnits="userSpaceOnUse" x="2" y="1" width="20" height="20">
<rect x="2" y="1" width="20" height="20" rx="10" fill="#D9D9D9"/>
</mask>
<g mask="url(#mask0_6231_264328)">
<rect x="2" y="1" width="20" height="20" rx="10" fill="black"/>
<path fill-rule="evenodd" clip-rule="evenodd" d="M18.3281 11C18.3281 14.4949 15.4949 17.3281 12 17.3281C8.50507 17.3281 5.67187 14.4949 5.67187 11C5.67187 7.50507 8.50507 4.67187 12 4.67187C15.4949 4.67187 18.3281 7.50507 18.3281 11ZM19.5 11C19.5 15.1421 16.1421 18.5 12 18.5C7.85787 18.5 4.5 15.1421 4.5 11C4.5 6.85787 7.85787 3.5 12 3.5C16.1421 3.5 19.5 6.85787 19.5 11ZM12.5859 6.61573V5.72656H11.4141V6.58993C11.3262 6.60465 11.2388 6.62312 11.1521 6.64536C10.6248 6.78064 10.1415 7.05071 9.74902 7.42895C9.35655 7.80716 9.06823 8.28069 8.91152 8.80341C8.75484 9.32612 8.73502 9.8806 8.85394 10.4132C8.97286 10.9459 9.22657 11.4389 9.59088 11.8445C9.90912 12.1987 10.3024 12.4757 10.7408 12.6555C10.7536 12.7081 10.7705 12.7598 10.7914 12.8102C10.8713 13.003 11.0066 13.1677 11.1802 13.2835C11.3537 13.3993 11.5578 13.4611 11.7664 13.4609C12.0458 13.4605 12.3136 13.3494 12.5112 13.1518C12.7087 12.9542 12.8199 12.6864 12.8203 12.407C12.8205 12.1984 12.7587 11.9944 12.6429 11.8208C12.5271 11.6472 12.3623 11.5119 12.1696 11.432C11.9768 11.3521 11.7647 11.3311 11.5601 11.3718C11.4093 11.4017 11.2676 11.4641 11.1445 11.5539C10.8858 11.441 10.6531 11.2733 10.4626 11.0613C10.2332 10.8059 10.0729 10.4947 9.99766 10.1579C9.92245 9.82105 9.93499 9.47033 10.0341 9.13988C10.1331 8.80946 10.3152 8.51082 10.5622 8.27274C10.8092 8.03469 11.1128 7.86526 11.4433 7.78046C11.7738 7.69569 12.1205 7.69829 12.4497 7.78808C12.7789 7.87787 13.08 8.05187 13.3234 8.29365C13.5669 8.53543 13.7445 8.83681 13.8386 9.16873L14.9661 8.84905C14.8172 8.32402 14.5359 7.84623 14.1492 7.46213C13.7624 7.07804 13.2833 6.80073 12.758 6.65748C12.7009 6.64191 12.6436 6.62802 12.5859 6.61573ZM11.8828 10.8242C11.651 10.8242 11.4245 10.7555 11.2318 10.6267C11.039 10.4979 10.8888 10.3149 10.8001 10.1008C10.7115 9.88667 10.6882 9.65105 10.7335 9.42373C10.7787 9.19639 10.8903 8.98759 11.0542 8.82371C11.2181 8.65981 11.4269 8.5482 11.6542 8.50299C11.8815 8.45778 12.1171 8.48098 12.3313 8.56967C12.5454 8.65836 12.7284 8.80857 12.8572 9.0013C12.9377 9.12181 12.9948 9.25559 13.0262 9.39561C13.325 9.51856 13.6046 9.68555 13.8545 9.89218C14.2762 10.2407 14.5996 10.6905 14.7914 11.1992C14.9832 11.708 15.0362 12.257 14.9446 12.7923C14.853 13.3275 14.6204 13.8289 14.2712 14.2484C13.9222 14.6677 13.4689 14.9906 12.9564 15.1878C12.7974 15.249 12.6344 15.2975 12.4687 15.3331V16.2734H11.2969V15.3718C10.7686 15.2943 10.2672 15.0895 9.8389 14.7743C9.39797 14.4498 9.04901 14.0189 8.82795 13.522L9.89862 13.0456C10.0357 13.3537 10.2537 13.6245 10.5335 13.8305C10.8134 14.0364 11.1452 14.17 11.4969 14.2165C11.8487 14.2631 12.2066 14.2207 12.5355 14.0941C12.8643 13.9676 13.1515 13.7618 13.3705 13.4986C13.5895 13.2356 13.7331 12.9241 13.7895 12.5946C13.8458 12.2652 13.8135 11.9271 13.6949 11.6126C13.5762 11.2979 13.3747 11.016 13.1079 10.7954C12.9748 10.6854 12.8277 10.5926 12.6705 10.519C12.4555 10.7145 12.1748 10.8238 11.8828 10.8242Z" fill="white"/>
</g>
</g>
<rect x="1.75" y="0.75" width="20.5" height="20.5" rx="10.25" stroke="#F9F8F4" stroke-width="0.5"/>
<g clip-path="url(#clip2_6231_264328)">
<path d="M12 31C17.5228 31 22 26.5228 22 21C22 15.4772 17.5228 11 12 11C6.47715 11 2 15.4772 2 21C2 26.5228 6.47715 31 12 31Z" fill="black" stroke="black" stroke-width="0.0434751" stroke-miterlimit="11.3386"/>
<path d="M6.48378 15.438C6.06213 15.8807 5.71428 16.2532 5.71076 16.2602C5.70725 16.2707 6.08673 16.6432 6.55405 17.0859C7.02137 17.5321 7.42896 17.9222 7.45707 17.9468L7.50978 17.996L7.41491 18.1541C6.58216 19.5314 6.40999 21.1899 6.93353 22.7149C7.03191 23.003 7.20057 23.3719 7.34463 23.6144C7.41491 23.7338 7.44653 23.8111 7.4395 23.8252C7.43248 23.8392 7.00732 24.289 6.49432 24.8266C5.98132 25.3607 5.56319 25.8069 5.55616 25.8139C5.55265 25.8245 6.98975 27.2124 7.12678 27.3248L7.17949 27.3705L7.99115 26.5237C8.4374 26.0564 8.85553 25.6172 8.91877 25.5504L9.03824 25.431L9.15068 25.5012C9.72341 25.8667 10.3945 26.1196 11.1359 26.2532C11.5084 26.3199 12.2181 26.3375 12.6152 26.2883C13.3812 26.2005 14.1401 25.944 14.7621 25.568L14.9237 25.4696L15.0959 25.6383C15.4718 26.0037 16.8773 27.3389 16.8914 27.3459C16.9054 27.3529 18.4479 25.7402 18.4444 25.7191C18.4409 25.7085 17.3833 24.6931 16.7368 24.0852L16.5224 23.8814L16.6208 23.7198C17.4465 22.3459 17.6187 20.6804 17.0846 19.1449C17.0073 18.9201 16.7719 18.4141 16.6349 18.1822L16.5681 18.0662L17.4711 17.121C17.9666 16.6045 18.3706 16.1723 18.3671 16.1618C18.3531 16.1267 16.7719 14.6333 16.7508 14.6333C16.7368 14.6333 16.3397 15.0374 15.8654 15.5364C15.391 16.0318 14.9975 16.4394 14.9869 16.4429C14.9799 16.4464 14.9342 16.4253 14.8921 16.3937C14.7726 16.3129 14.4704 16.1478 14.3018 16.0704C13.7888 15.835 13.3109 15.691 12.7557 15.6102C12.4676 15.568 11.6032 15.561 11.3362 15.5996C10.6967 15.691 10.1732 15.8491 9.63908 16.1161C9.48448 16.1899 9.30528 16.2883 9.23501 16.3305L9.10851 16.4078L8.96445 16.2672C8.88715 16.1899 8.53578 15.8596 8.18792 15.5258C7.84007 15.1955 7.48518 14.8582 7.40085 14.7739L7.24625 14.6228L6.48378 15.438ZM12.3833 17.7289C12.942 17.7957 13.4409 17.9854 13.9012 18.3087C14.1366 18.4738 14.488 18.8252 14.6531 19.0606C15.5913 20.3888 15.4121 22.1948 14.2315 23.3016C13.2231 24.2433 11.7649 24.4541 10.5386 23.8287C9.65314 23.3754 9.0277 22.5462 8.82742 21.5518C8.76417 21.2356 8.76417 20.6453 8.82742 20.3326C8.88715 20.0234 8.96796 19.802 9.11905 19.4928C9.72341 18.2771 11.034 17.5673 12.3833 17.7289Z" fill="white"/>
</g>
<rect x="1.75" y="10.75" width="20.5" height="20.5" rx="10.25" stroke="#F9F8F4" stroke-width="0.5"/>
<path d="M19.5 31.1125C22.0559 31.1125 24.1125 29.0559 24.1125 26.5C24.1125 23.9441 22.0559 21.8875 19.5 21.8875C16.9441 21.8875 14.8875 23.9441 14.8875 26.5C14.8875 29.0559 16.9441 31.1125 19.5 31.1125Z" fill="#2775CA" stroke="#F9F8F4" stroke-width="0.225"/>
<path d="M20.7371 27.2124C20.7371 26.5561 20.3433 26.3311 19.5558 26.2374C18.9933 26.1624 18.8808 26.0124 18.8808 25.7499C18.8808 25.4873 19.0684 25.3186 19.4433 25.3186C19.7808 25.3186 19.9684 25.4311 20.0621 25.7124C20.0809 25.7686 20.1371 25.8061 20.1934 25.8061H20.4933C20.5683 25.8061 20.6246 25.7499 20.6246 25.6749V25.6561C20.5496 25.2436 20.2121 24.9249 19.7808 24.8874V24.4374C19.7808 24.3624 19.7246 24.3061 19.6309 24.2874H19.3496C19.2746 24.2874 19.2183 24.3436 19.1996 24.4374V24.8686C18.6371 24.9436 18.2809 25.3186 18.2809 25.7874C18.2809 26.4061 18.6558 26.6499 19.4433 26.7436C19.9684 26.8374 20.1371 26.9499 20.1371 27.2499C20.1371 27.5499 19.8746 27.7561 19.5184 27.7561C19.0308 27.7561 18.8621 27.5499 18.8058 27.2686C18.7871 27.1936 18.7309 27.1561 18.6746 27.1561H18.3558C18.2809 27.1561 18.2246 27.2124 18.2246 27.2874V27.3061C18.2996 27.7749 18.5996 28.1124 19.2183 28.2061V28.6561C19.2183 28.7311 19.2746 28.7874 19.3683 28.8061H19.6496C19.7246 28.8061 19.7808 28.7499 19.7996 28.6561V28.2061C20.3621 28.1124 20.7371 27.7186 20.7371 27.2124V27.2124Z" fill="white"/>
<path d="M18.5441 29.1812C17.0816 28.6562 16.3316 27.025 16.8754 25.5812C17.1566 24.7937 17.7754 24.1937 18.5441 23.9125C18.6191 23.875 18.6566 23.8187 18.6566 23.725V23.4625C18.6566 23.3875 18.6191 23.3312 18.5441 23.3125C18.5254 23.3125 18.4879 23.3125 18.4691 23.3312C16.6879 23.8937 15.7129 25.7875 16.2754 27.5687C16.6129 28.6187 17.4191 29.425 18.4691 29.7625C18.5441 29.8 18.6191 29.7625 18.6379 29.6875C18.6566 29.6687 18.6566 29.65 18.6566 29.6125V29.35C18.6566 29.2937 18.6004 29.2187 18.5441 29.1812ZM20.5316 23.3312C20.4566 23.2937 20.3816 23.3312 20.3629 23.4062C20.3441 23.425 20.3441 23.4437 20.3441 23.4813V23.7437C20.3441 23.8187 20.4004 23.8937 20.4566 23.9313C21.9191 24.4562 22.6691 26.0875 22.1254 27.5313C21.8441 28.3188 21.2254 28.9187 20.4566 29.2C20.3816 29.2375 20.3441 29.2937 20.3441 29.3875V29.65C20.3441 29.725 20.3816 29.7812 20.4566 29.8C20.4754 29.8 20.5129 29.8 20.5316 29.7813C22.3129 29.2188 23.2879 27.325 22.7254 25.5437C22.3879 24.475 21.5629 23.6687 20.5316 23.3312V23.3312Z" fill="white"/>
</g>
<defs>
<clipPath id="clip0_6231_264328">
<rect width="24" height="32" fill="white"/>
</clipPath>
<clipPath id="clip1_6231_264328">
<rect x="2" y="1" width="20" height="20" rx="10" fill="white"/>
</clipPath>
<clipPath id="clip2_6231_264328">
<rect x="2" y="11" width="20" height="20" rx="10" fill="white"/>
</clipPath>
</defs>
</svg>