<svg width="16" height="24" viewBox="0 0 16 24" fill="none" xmlns="http://www.w3.org/2000/svg">
<g clip-path="url(#clip0_6231_264328)">
<g clip-path="url(#clip1_6231_264328)">
<mask id="mask0_6231_264328" style="mask-type:alpha" maskUnits="userSpaceOnUse" x="0" y="0" width="16" height="16">
<rect width="16" height="16" rx="8" fill="#D9D9D9"/>
</mask>
<g mask="url(#mask0_6231_264328)">
<rect width="16" height="16" rx="8" fill="black"/>
<path fill-rule="evenodd" clip-rule="evenodd" d="M13.0625 8C13.0625 10.7959 10.7959 13.0625 8 13.0625C5.20406 13.0625 2.9375 10.7959 2.9375 8C2.9375 5.20406 5.20406 2.9375 8 2.9375C10.7959 2.9375 13.0625 5.20406 13.0625 8ZM14 8C14 11.3137 11.3137 14 8 14C4.68629 14 2 11.3137 2 8C2 4.68629 4.68629 2 8 2C11.3137 2 14 4.68629 14 8ZM8.46875 4.49259V3.78125H7.53125V4.47194C7.46098 4.48372 7.39106 4.49849 7.3217 4.51629C6.89981 4.62451 6.51318 4.84057 6.19921 5.14316C5.88524 5.44572 5.65458 5.82455 5.52922 6.24273C5.40388 6.66089 5.38801 7.10448 5.48315 7.53059C5.57829 7.95671 5.78126 8.35115 6.07271 8.67556C6.32729 8.95897 6.64188 9.18056 6.99264 9.32437C7.00287 9.36644 7.01638 9.40784 7.0331 9.44817C7.09704 9.60237 7.20528 9.73415 7.34413 9.82681C7.48299 9.91947 7.64621 9.96888 7.81314 9.96875C8.03664 9.96841 8.25089 9.87948 8.40894 9.72144C8.56698 9.56339 8.65591 9.34914 8.65625 9.12564C8.65638 8.95871 8.60698 8.79549 8.51431 8.65662C8.42165 8.51778 8.28987 8.40954 8.13567 8.3456C7.98147 8.28166 7.81177 8.2649 7.64804 8.29743C7.52746 8.32139 7.4141 8.37131 7.31559 8.4431C7.10863 8.35276 6.92247 8.21864 6.77011 8.04905C6.58653 7.84469 6.45828 7.59577 6.39813 7.32631C6.33796 7.05684 6.34799 6.77626 6.42725 6.51191C6.50649 6.24757 6.65214 6.00866 6.84976 5.81819C7.04737 5.62775 7.29022 5.49221 7.55465 5.42437C7.81906 5.35655 8.09638 5.35863 8.35976 5.43046C8.62316 5.50229 8.86398 5.64149 9.05874 5.83492C9.25353 6.02834 9.39562 6.26945 9.4709 6.53499L10.3729 6.27924C10.2537 5.85922 10.0288 5.47698 9.71936 5.16971C9.40994 4.86243 9.02662 4.64058 8.60639 4.52598C8.56076 4.51353 8.51486 4.50241 8.46875 4.49259ZM7.90625 7.85938C7.72083 7.85938 7.53958 7.8044 7.38541 7.70137C7.23123 7.59836 7.11106 7.45194 7.04011 7.28064C6.96916 7.10934 6.9506 6.92084 6.98677 6.73899C7.02294 6.55711 7.11223 6.39007 7.24334 6.25897C7.37444 6.12785 7.54149 6.03856 7.72336 6.00239C7.90522 5.96622 8.09371 5.98479 8.26501 6.05574C8.43631 6.12669 8.58273 6.24686 8.68574 6.40104C8.75019 6.49745 8.79583 6.60448 8.82097 6.71649C9.06001 6.81485 9.28366 6.94844 9.48363 7.11374C9.82094 7.39258 10.0797 7.75242 10.2331 8.15936C10.3866 8.56638 10.4289 9.00556 10.3557 9.43381C10.2824 9.86199 10.0963 10.2631 9.81699 10.5987C9.53776 10.9341 9.17508 11.1925 8.76509 11.3503C8.63795 11.3992 8.50749 11.438 8.375 11.4665V12.2188H7.4375V11.4975C7.01491 11.4354 6.61376 11.2716 6.27112 11.0194C5.91838 10.7598 5.63921 10.4151 5.46236 10.0176L6.31889 9.63652C6.42854 9.88297 6.60294 10.0996 6.82678 10.2644C7.05071 10.4292 7.31615 10.536 7.59753 10.5732C7.87895 10.6105 8.16528 10.5766 8.42838 10.4753C8.69141 10.3741 8.92121 10.2094 9.09643 9.99892C9.27159 9.78851 9.38649 9.53926 9.43158 9.27569C9.47668 9.01218 9.45076 8.74171 9.35589 8.49007C9.26098 8.23831 9.0998 8.01279 8.88633 7.83633C8.77983 7.7483 8.66219 7.67405 8.53644 7.61519C8.36439 7.77163 8.13986 7.85902 7.90625 7.85938Z" fill="white"/>
</g>
</g>
<rect x="-0.2" y="-0.2" width="16.4" height="16.4" rx="8.2" stroke="#F9F8F4" stroke-width="0.4"/>
<g clip-path="url(#clip2_6231_264328)">
<path d="M8 24C12.4183 24 16 20.4183 16 16C16 11.5817 12.4183 8 8 8C3.58172 8 0 11.5817 0 16C0 20.4183 3.58172 24 8 24Z" fill="black" stroke="black" stroke-width="0.03478" stroke-miterlimit="11.3386"/>
<path d="M3.58683 11.5503C3.24951 11.9045 2.97122 12.2025 2.96841 12.2081C2.9656 12.2165 3.26919 12.5145 3.64304 12.8687C4.0169 13.2257 4.34297 13.5377 4.36546 13.5574L4.40763 13.5967L4.33173 13.7232C3.66553 14.8251 3.5278 16.1519 3.94663 17.3718C4.02534 17.6023 4.16026 17.8975 4.27551 18.0914C4.33173 18.187 4.35703 18.2489 4.35141 18.2601C4.34579 18.2713 4.00566 18.6312 3.59526 19.0612C3.18486 19.4885 2.85035 19.8455 2.84473 19.8511C2.84192 19.8595 3.9916 20.9699 4.10123 21.0598L4.1434 21.0964L4.79273 20.4189C5.14972 20.0451 5.48423 19.6937 5.53482 19.6403L5.6304 19.5447L5.72035 19.6009C6.17853 19.8933 6.71543 20.0957 7.30854 20.2025C7.6065 20.2559 8.17432 20.2699 8.49196 20.2306C9.10475 20.1603 9.71191 19.9551 10.2095 19.6543L10.3388 19.5756L10.4765 19.7106C10.7773 20.0029 11.9017 21.0711 11.9129 21.0767C11.9241 21.0823 13.1582 19.7921 13.1553 19.7752C13.1525 19.7668 12.3064 18.9544 11.7892 18.4681L11.6177 18.3051L11.6965 18.1758C12.357 17.0767 12.4948 15.7443 12.0675 14.5159C12.0057 14.336 11.8173 13.9312 11.7077 13.7457L11.6543 13.6529L12.3767 12.8968C12.7731 12.4836 13.0963 12.1378 13.0935 12.1294C13.0823 12.1013 11.8173 10.9066 11.8005 10.9066C11.7892 10.9066 11.4716 11.2299 11.0921 11.629C10.7126 12.0254 10.3978 12.3515 10.3894 12.3543C10.3837 12.3571 10.3472 12.3402 10.3135 12.3149C10.2179 12.2503 9.97614 12.1182 9.84122 12.0563C9.43082 11.868 9.04853 11.7527 8.60439 11.6881C8.37389 11.6543 7.6824 11.6487 7.46876 11.6796C6.95717 11.7527 6.53834 11.8792 6.11107 12.0929C5.98739 12.1519 5.84403 12.2306 5.78781 12.2643L5.68661 12.3262L5.57137 12.2137C5.50952 12.1519 5.22843 11.8877 4.95014 11.6206C4.67186 11.3564 4.38795 11.0865 4.32049 11.0191L4.1968 10.8982L3.58683 11.5503ZM8.30643 13.3831C8.75337 13.4365 9.15253 13.5883 9.52077 13.8469C9.7091 13.979 9.9902 14.2601 10.1223 14.4484C10.8728 15.511 10.7295 16.9558 9.785 17.8413C8.97825 18.5946 7.8117 18.7633 6.83068 18.2629C6.12231 17.9003 5.62196 17.2369 5.46174 16.4414C5.41114 16.1884 5.41114 15.7162 5.46174 15.466C5.50952 15.2186 5.57418 15.0416 5.69505 14.7942C6.17853 13.8216 7.22702 13.2538 8.30643 13.3831Z" fill="white"/>
</g>
<rect x="-0.2" y="7.8" width="16.4" height="16.4" rx="8.2" stroke="#F9F8F4" stroke-width="0.4"/>
<path d="M13 24.075C14.7039 24.075 16.075 22.7039 16.075 21C16.075 19.2961 14.7039 17.925 13 17.925C11.2961 17.925 9.925 19.2961 9.925 21C9.925 22.7039 11.2961 24.075 13 24.075Z" fill="#2775CA" stroke="#F9F8F4" stroke-width="0.15"/>
<path d="M13.8249 21.4749C13.8249 21.0374 13.5624 20.8874 13.0374 20.8249C12.6624 20.7749 12.5874 20.6749 12.5874 20.4999C12.5874 20.3249 12.7124 20.2124 12.9624 20.2124C13.1874 20.2124 13.3124 20.2874 13.3749 20.4749C13.3874 20.5124 13.4249 20.5374 13.4624 20.5374H13.6624C13.7124 20.5374 13.7499 20.4999 13.7499 20.4499V20.4374C13.6999 20.1624 13.4749 19.9499 13.1874 19.9249V19.6249C13.1874 19.5749 13.1499 19.5374 13.0874 19.5249H12.8999C12.8499 19.5249 12.8124 19.5624 12.7999 19.6249V19.9124C12.4249 19.9624 12.1874 20.2124 12.1874 20.5249C12.1874 20.9374 12.4374 21.0999 12.9624 21.1624C13.3124 21.2249 13.4249 21.2999 13.4249 21.4999C13.4249 21.6999 13.2499 21.8374 13.0124 21.8374C12.6874 21.8374 12.5749 21.6999 12.5374 21.5124C12.5249 21.4624 12.4874 21.4374 12.4499 21.4374H12.2374C12.1874 21.4374 12.1499 21.4749 12.1499 21.5249V21.5374C12.1999 21.8499 12.3999 22.0749 12.8124 22.1374V22.4374C12.8124 22.4874 12.8499 22.5249 12.9124 22.5374H13.0999C13.1499 22.5374 13.1874 22.4999 13.1999 22.4374V22.1374C13.5749 22.0749 13.8249 21.8124 13.8249 21.4749V21.4749Z" fill="white"/>
<path d="M12.3627 22.7875C11.3877 22.4375 10.8877 21.35 11.2503 20.3875C11.4378 19.8625 11.8503 19.4625 12.3627 19.275C12.4128 19.25 12.4377 19.2125 12.4377 19.15V18.975C12.4377 18.925 12.4128 18.8875 12.3627 18.875C12.3502 18.875 12.3252 18.875 12.3127 18.8875C11.1252 19.2625 10.4752 20.525 10.8502 21.7125C11.0752 22.4125 11.6127 22.95 12.3127 23.175C12.3627 23.2 12.4128 23.175 12.4252 23.125C12.4377 23.1125 12.4377 23.1 12.4377 23.075V22.9C12.4377 22.8625 12.4002 22.8125 12.3627 22.7875ZM13.6878 18.8875C13.6377 18.8625 13.5877 18.8875 13.5753 18.9375C13.5627 18.95 13.5627 18.9625 13.5627 18.9875V19.1625C13.5627 19.2125 13.6002 19.2625 13.6377 19.2875C14.6127 19.6375 15.1128 20.725 14.7502 21.6875C14.5627 22.2125 14.1502 22.6125 13.6377 22.8C13.5877 22.825 13.5627 22.8625 13.5627 22.925V23.1C13.5627 23.15 13.5877 23.1875 13.6377 23.2C13.6503 23.2 13.6752 23.2 13.6878 23.1875C14.8752 22.8125 15.5253 21.55 15.1503 20.3625C14.9253 19.65 14.3752 19.1125 13.6878 18.8875V18.8875Z" fill="white"/>
</g>
<defs>
<clipPath id="clip0_6231_264328">
<rect width="16" height="24" fill="white"/>
</clipPath>
<clipPath id="clip1_6231_264328">
<rect width="16" height="16" rx="8" fill="white"/>
</clipPath>
<clipPath id="clip2_6231_264328">
<rect y="8" width="16" height="16" rx="8" fill="white"/>
</clipPath>
</defs>
</svg>
