
<svg width="16" height="16" viewBox="0 0 16 16" fill="none" xmlns="http://www.w3.org/2000/svg">
<g clip-path="url(#clip0_2223_77345)">
<path fill-rule="evenodd" clip-rule="evenodd" d="M15.8578 9.50406C15.9511 9.0167 16 8.51388 16 8C16 3.5944 12.4064 0 8 0C3.5944 0 1.33471e-07 3.5944 1.33471e-07 8C-0.000799733 12.4064 3.5936 16 8 16C8.51388 16 9.0167 15.9511 9.50406 15.8578C8.58108 15.0337 8 13.8347 8 12.5C8 11.7045 8.20641 10.9572 8.56859 10.3088H7.2592C7.2152 10.3088 7.1792 10.3448 7.1792 10.3888V12.072C7.1792 12.116 7.144 12.152 7.1 12.152H5.948C5.904 12.152 5.868 12.116 5.868 12.072V10.3888C5.868 10.344 5.8328 10.3088 5.788 10.3088H4.38C4.3352 10.3088 4.3 10.2728 4.3 10.2288V9.08C4.3 9.0352 4.3352 9 4.38 9H5.788C5.8328 9 5.868 8.964 5.868 8.92V7.132C5.868 7.088 5.8328 7.052 5.788 7.052H4.38C4.3352 7.052 4.3 7.0168 4.3 6.972V5.8232C4.3 5.7792 4.3352 5.7432 4.38 5.7432H5.788C5.8328 5.7432 5.868 5.708 5.868 5.6632V3.98C5.8664 3.936 5.9032 3.9 5.9472 3.9H7.0992C7.1432 3.9 7.1784 3.936 7.1784 3.98V5.6632C7.1784 5.708 7.2144 5.7432 7.2584 5.7432H8.7376C8.7816 5.7432 8.8176 5.708 8.8176 5.6632V3.98C8.8176 3.936 8.8528 3.9 8.8976 3.9H10.0488C10.0928 3.9 10.1288 3.936 10.1288 3.98V5.6632C10.1288 5.708 10.164 5.7432 10.2088 5.7432H11.6168C11.6616 5.7432 11.6968 5.7792 11.6968 5.8232V6.972C11.6968 7.0168 11.6616 7.052 11.6168 7.052H10.2088C10.164 7.052 10.1288 7.088 10.1288 7.132V8.6747C10.8173 8.24699 11.6298 8 12.5 8C13.8347 8 15.0337 8.58108 15.8578 9.50406ZM8.8184 8.9208V7.132C8.8184 7.088 8.7824 7.052 8.7384 7.052H7.2592C7.2152 7.052 7.1792 7.088 7.1792 7.132V8.92C7.1792 8.964 7.2152 9 7.2592 9H8.7384C8.7824 9.0008 8.8184 8.964 8.8184 8.9208Z" fill="black"/>
<g clip-path="url(#clip1_2223_77345)">
<path d="M12.5 9C14.433 9 16 10.567 16 12.5C16 14.433 14.433 16 12.5 16C10.567 16 9 14.433 9 12.5C9 10.567 10.567 9 12.5 9Z" fill="#20678E"/>
<path d="M10.8188 11.8572C10.8188 11.8834 10.845 11.9096 10.8712 11.9096H11.5078V12.2332H10.8712C10.845 12.2332 10.8188 12.2594 10.8188 12.2856V12.8192C10.8188 12.8454 10.845 12.8716 10.8712 12.8716H11.5078V14.1488C11.5078 14.175 11.5252 14.1926 11.5514 14.1926H12.162C12.1882 14.1926 12.2056 14.1752 12.2056 14.1488V12.942C12.2056 12.9158 12.223 12.8982 12.2492 12.8982H12.7378C12.7552 12.8982 12.7726 12.907 12.7814 12.9244L13.3222 14.1754C13.331 14.1928 13.3484 14.2016 13.3658 14.2016H14.02C14.0548 14.2016 14.0724 14.1666 14.0636 14.1404L13.5228 12.9156C13.514 12.8894 13.5228 12.8632 13.549 12.8544C13.8106 12.7582 13.9764 12.522 13.9764 12.207V11.4196C13.9764 11.0172 13.645 10.6848 13.2436 10.6848H11.5514C11.5252 10.6848 11.5078 10.7024 11.5078 10.7286V11.271H10.8712C10.845 11.271 10.8188 11.2972 10.8188 11.3234V11.8572Z" fill="white"/>
<path d="M12.2061 11.3934C12.2061 11.3672 12.2235 11.3496 12.2497 11.3496H13.0697C13.1831 11.3496 13.2791 11.4458 13.2791 11.5596V12.032C13.2791 12.1458 13.1831 12.242 13.0697 12.242H12.2497C12.2235 12.242 12.2061 12.2244 12.2061 12.1982V11.3934Z" fill="#20678E"/>
</g>
</g>
<defs>
<clipPath id="clip0_2223_77345">
<rect width="16" height="16" fill="#fff"/>
</clipPath>
<clipPath id="clip1_2223_77345">
<rect x="9" y="9" width="7" height="7" rx="3.5" fill="#fff"/>
</clipPath>
</defs>
</svg>
