<svg width="16" height="16" viewBox="0 0 16 16" fill="none" xmlns="http://www.w3.org/2000/svg">
<g clip-path="url(#clip0_6602_621775)">
<path d="M0.5 8.00009V8C0.5 3.87054 3.87054 0.5 8 0.5C12.1302 0.5 15.5 3.87051 15.5 8C15.5 12.1303 12.1303 15.5 8 15.5C3.86966 15.5 0.49925 12.1302 0.5 8.00009Z" stroke="url(#paint0_linear_6602_621775)"/>
<path fill-rule="evenodd" clip-rule="evenodd" d="M8 14C11.3048 14 14 11.3048 14 8C14 4.6958 11.3048 2 8 2C4.6958 2 2 4.6958 2 8C1.9994 11.3048 4.6952 14 8 14Z" fill="black"/>
<path fill-rule="evenodd" clip-rule="evenodd" d="M6.46099 4.89014H7.32499C7.35799 4.89014 7.38439 4.91714 7.38439 4.95014V6.21254C7.38439 6.24614 7.41139 6.27254 7.44439 6.27254H8.55379C8.58679 6.27254 8.61379 6.24614 8.61379 6.21254V4.95014C8.61379 4.91714 8.64019 4.89014 8.67379 4.89014H9.53719C9.57019 4.89014 9.59719 4.91714 9.59719 4.95014V6.21254C9.59719 6.24614 9.62359 6.27254 9.65719 6.27254H10.7132C10.7468 6.27254 10.7732 6.29954 10.7732 6.33254V7.19414C10.7732 7.22774 10.7468 7.25414 10.7132 7.25414H9.65719C9.62359 7.25414 9.59719 7.28114 9.59719 7.31414V8.65514C9.59719 8.68814 9.62359 8.71514 9.65719 8.71514H10.7132C10.7468 8.71514 10.7732 8.74154 10.7732 8.77514V9.63674C10.7732 9.66974 10.7468 9.69674 10.7132 9.69674H9.65719C9.62359 9.69674 9.59719 9.72374 9.59719 9.75674V11.0191C9.59719 11.0521 9.57019 11.0791 9.53719 11.0791H8.67379C8.64019 11.0791 8.61379 11.0521 8.61379 11.0191V9.75674C8.61379 9.72314 8.58679 9.69674 8.55379 9.69674H7.44499C7.41199 9.69674 7.38499 9.72374 7.38499 9.75674V11.0191C7.38499 11.0521 7.35859 11.0791 7.32559 11.0791H6.46159C6.42859 11.0791 6.40159 11.0521 6.40159 11.0191V9.75674C6.40159 9.72314 6.37519 9.69674 6.34159 9.69674H5.28559C5.25199 9.69674 5.22559 9.66974 5.22559 9.63674V8.77514C5.22559 8.74154 5.25199 8.71514 5.28559 8.71514H6.34159C6.37519 8.71514 6.40159 8.68814 6.40159 8.65514V7.31414C6.40159 7.28114 6.37519 7.25414 6.34159 7.25414H5.28559C5.25199 7.25414 5.22559 7.22774 5.22559 7.19414V6.33254C5.22559 6.29954 5.25199 6.27254 5.28559 6.27254H6.34159C6.37519 6.27254 6.40159 6.24614 6.40159 6.21254V4.95014C6.40039 4.91714 6.42799 4.89014 6.46099 4.89014ZM8.61439 8.65574V7.31414C8.61439 7.28114 8.58739 7.25414 8.55439 7.25414H7.44499C7.41199 7.25414 7.38499 7.28114 7.38499 7.31414V8.65514C7.38499 8.68814 7.41199 8.71514 7.44499 8.71514H8.55439C8.58739 8.71574 8.61439 8.68814 8.61439 8.65574Z" fill="white"/>
</g>
<defs>
<linearGradient id="paint0_linear_6602_621775" x1="8" y1="0" x2="8" y2="16" gradientUnits="userSpaceOnUse">
<stop stop-color="white"/>
<stop offset="0.466997" stop-color="#DBDBDB"/>
<stop offset="1"/>
</linearGradient>
<clipPath id="clip0_6602_621775">
<rect width="16" height="16" fill="white"/>
</clipPath>
</defs>
</svg>
