<svg width="21" height="20" viewBox="0 0 21 20" fill="none" xmlns="http://www.w3.org/2000/svg">
<rect x="0.875" width="20" height="20" rx="10" fill="#2AABEE"/>
<path fill-rule="evenodd" clip-rule="evenodd" d="M7.02882 9.77565C9.09375 8.87599 10.4707 8.28288 11.1597 7.99631C13.1268 7.17812 13.5355 7.03599 13.8019 7.0313C13.8605 7.03027 13.9916 7.04479 14.0764 7.11365C14.1481 7.1718 14.1678 7.25035 14.1772 7.30548C14.1867 7.36061 14.1984 7.4862 14.1891 7.58433C14.0825 8.70437 13.6212 11.4224 13.3866 12.6769C13.2873 13.2077 13.0918 13.3857 12.9025 13.4031C12.4912 13.4409 12.1788 13.1312 11.7804 12.8701C11.157 12.4614 10.8048 12.207 10.1996 11.8082C9.50028 11.3474 9.95364 11.0941 10.3522 10.6801C10.4565 10.5718 12.2689 8.9233 12.304 8.77376C12.3083 8.75505 12.3124 8.68534 12.271 8.64852C12.2296 8.61171 12.1685 8.6243 12.1243 8.63431C12.0618 8.6485 11.0659 9.30677 9.13655 10.6091C8.85386 10.8032 8.59781 10.8978 8.36839 10.8929C8.11548 10.8874 7.62898 10.7499 7.26732 10.6323C6.82372 10.4881 6.47116 10.4119 6.50186 10.167C6.51785 10.0394 6.69351 9.90899 7.02882 9.77565Z" fill="white"/>
</svg>
