<svg width="16" height="16" viewBox="0 0 16 16" fill="none" xmlns="http://www.w3.org/2000/svg">
<path
      fill="#333"
      fillRule="evenodd"
      d="M11.925 1.99v2.944a.223.223 0 0 1-.099.196L8.32 8.024l3.507 2.895c.074.049.098.122.098.196v2.894h2.208v.491H1.868v-.49h2.207v-2.895c0-.074.05-.147.099-.196l3.752-2.894L4.174 5.13a.223.223 0 0 1-.099-.196V1.991H1.868V1.5h12.264v.49h-2.207ZM8.284 13h3.149v-1.762L8.285 8.625V13Zm-.35 0V8.635l-3.369 2.603V13h3.369Zm.188-8.189h3.31v-2.82H4.567v2.82h3.557Z"
      clipRule="evenodd"
    />
</svg>
