<svg width="1000" height="1000" viewBox="0 0 1000 1000" fill="none" xmlns="http://www.w3.org/2000/svg">
<rect x="0.437828" y="0.437828" width="999.124" height="999.124" rx="499.562" fill="#0151AF"/>
<rect x="0.437828" y="0.437828" width="999.124" height="999.124" rx="499.562" stroke="#27FF76" stroke-width="0.875657"/>
<path d="M537.997 269.902C538.26 268.915 539.274 268.328 540.262 268.59L600.049 284.45C601.037 284.713 601.625 285.725 601.364 286.711L591.806 322.688C593.521 323.534 595.211 324.403 596.871 325.296C606.874 330.673 616.131 336.987 624.495 344.829C631.871 351.745 638.342 359.249 643.599 367.788C662.871 399.097 662.456 439.668 643.798 471.273C638.003 481.09 630.708 489.257 621.862 496.191C619.016 498.421 616.017 500.54 612.833 502.229C608.796 504.37 604.55 506.149 600.298 507.841C596.86 509.208 593.279 510.216 589.525 511.462C590.842 512.465 591.807 513.167 592.738 513.912C598.32 518.375 602.43 524.05 606.556 529.834C612.898 538.722 617.907 548.229 620.498 558.756C622.289 566.03 623.409 573.589 623.753 581.071C624.188 590.531 623.126 599.992 620.536 609.195C619.933 611.337 619.4 613.499 618.832 615.651C616.18 625.707 612.799 635.502 607.222 644.336C603.25 650.629 599.105 656.855 594.521 662.707C590.757 667.511 586.596 672.149 581.953 676.085C575.927 681.193 569.441 685.832 562.791 690.112C556.964 693.863 550.924 697.639 544.459 699.952C526.601 706.337 508.116 708.237 489.781 706.766L480.313 742.412C480.051 743.399 479.039 743.986 478.051 743.724L418.262 727.863C417.275 727.601 416.686 726.589 416.948 725.602L426.623 689.177C413.512 683.023 401.047 675.619 389.596 667.478C381.458 661.692 375.431 653.861 370.128 645.62C366.268 639.621 363.268 633.012 360.371 626.46C352.423 608.483 351.141 584.912 354.103 565.673C355.545 556.309 356.935 546.91 358.339 537.526C358.508 536.4 360.664 537.334 361.441 537.554C373.936 541.094 386.409 544.74 398.901 548.291C409.477 551.297 420.084 554.198 430.636 557.288C431.529 557.55 432.816 558.996 432.711 559.715C432.16 563.503 431.445 567.301 430.369 570.972C428.001 579.045 428.076 587.214 429.302 595.372C430.845 605.645 434.121 615.305 442.263 622.356C446.669 626.173 451.351 629.85 456.415 632.683C463.718 636.767 471.783 639.219 480.136 640.072C491.777 641.261 502.697 639.001 513.073 633.209C520.483 629.072 526.656 623.742 531.039 616.722C536.995 607.185 540.702 596.644 542.256 585.434C543.407 577.129 542.883 569.127 540.298 560.936C536.561 549.093 528.564 541.201 518.655 534.93C513.584 531.721 507.865 529.467 502.289 527.142C496.631 524.782 490.791 522.855 485.022 520.761C480.716 519.199 476.397 517.669 472.191 516.164C476.698 499.575 481.069 483.542 485.402 467.501C486.548 463.256 487.6 462.504 492.383 463.758C496.578 464.858 500.728 466.233 504.989 466.958C511.841 468.124 518.805 468.645 525.655 469.824C535.391 471.498 544.798 469.919 553.198 465.422C565.654 458.752 571.966 446.961 575.767 433.823C578.578 424.104 579.22 414.266 576.587 404.294C574.21 395.293 569.723 387.771 562.31 382.098C552.761 374.791 541.79 371.006 529.96 369.915C522.232 369.203 514.398 369.434 507.409 373.477C503.355 375.824 499.439 378.515 495.823 381.491C487.876 388.033 483.009 396.712 479.531 406.266C478.001 410.47 476.332 414.622 474.731 418.788C451.283 412.216 428.227 405.755 404.819 399.195C407.343 392.381 409.512 385.634 412.332 379.173C414.933 373.216 418.214 367.552 421.233 361.779C430.19 344.651 443.109 333.612 458.347 322.218C462.524 319.095 466.949 316.024 471.724 314.041C481.421 310.014 491.395 306.619 501.89 305.135C510.376 303.936 519.65 303.922 528.749 304.712L537.997 269.902Z" fill="white"/>
<g clip-path="url(#clip0_6648_2708)">
<rect x="29.0687" y="28.1839" width="942.739" height="944.51" rx="471.37" stroke="white" stroke-width="8.41336"/>
<path d="M457.208 942.448C427.782 957.233 393.168 951.1 372.42 926.017L351.248 928.909C325.189 927.114 303.717 914.473 290.675 891.809C258.032 895.299 229.304 874.979 218.78 844.061C185.888 839.848 161.05 815.164 156.885 782.152C125.614 771.531 106.013 743.157 108.831 710.42C93.3446 700.197 80.5267 686.833 75.5392 668.831L71.9732 651.004L74.8908 628.489C49.8037 607.77 43.7189 573.063 58.457 543.816C37.8586 518.209 37.8836 482.804 58.457 457.223C43.9184 428.375 49.5543 393.768 74.3672 373.123C74.5667 366.616 73.6689 361.031 71.8983 354.373L74.5168 336.097C77.3347 316.375 92.0977 301.515 108.831 290.594C107.883 274.562 110.876 259.104 120.252 246.263C129.554 233.497 141.2 223.748 156.86 218.886C161 186.324 185.289 161.365 218.257 157.127C228.88 128.778 254.017 107.46 285.039 109.479C288.905 109.529 291.673 107.809 293.767 104.592C306.361 85.1196 326.436 73.8748 350.101 72.4286C357.034 72.0048 364.54 74.3236 372.021 74.9718L382.445 65.0733C403.966 48.2434 432.47 46.1241 457.108 58.5907C481.971 38.1704 518.055 37.4972 543.542 58.5408C567.631 46.5729 595.786 47.8694 617.681 64.5248L628.728 74.9469C635.761 74.2737 643.017 72.2292 649.551 72.4286C675.785 73.2764 696.982 86.9647 710.124 108.981L729.201 109.853C754.438 114.74 773.765 132.617 782.019 157.052C814.961 161.141 839.899 185.825 843.964 219.086C859.176 223.574 870.747 233.073 880.048 245.49C889.475 258.63 892.966 274.238 891.669 290.519C914.662 304.407 928.477 326.822 928.751 353.476L926.407 372.899C951.395 393.693 956.956 428.3 942.392 457.173C963.04 482.68 962.991 518.16 942.392 543.741C957.105 572.589 951.245 607.071 926.507 627.99C926.507 633.75 927.305 639.285 928.701 645.119C929.45 672.496 915.31 696.033 892.018 710.17L891.47 725.903C887.929 752.183 869.425 773.575 844.014 782.202C839.675 815.089 815.186 839.598 781.944 844.111C771.595 874.48 743.441 895.05 710.947 891.709C705.062 899.139 699.775 906.868 692.419 912.852C679.127 923.648 662.369 928.71 645.486 928.66L628.279 926.092C607.731 951 572.968 957.208 543.791 942.373C518.804 962.669 482.968 963.367 457.208 942.373V942.448ZM500.599 87.3636L531.198 66.7189C534.29 64.6245 537.033 62.8294 539.178 60.2114C515.312 43.0324 485.587 43.0324 461.771 60.1864C463.916 62.8294 466.559 64.6245 469.751 66.7439L500.599 87.3636ZM431.572 83.5489L441.772 73.3013L452.694 61.458C431.073 50.288 404.59 53.2301 385.737 67.9905L376.011 76.8418L419.178 95.2924L431.597 83.5738L431.572 83.5489ZM582.818 94.8187L624.688 76.9665C605.187 54.6762 574.165 48.1686 548.005 61.5578L571.073 85.0947C573.866 88.8347 578.155 93.2479 582.843 94.8187H582.818ZM496.11 89.9068L457.632 63.5275L424.465 96.7634L462.021 112.92L496.11 89.9068ZM576.434 96.5889L543.292 63.5275L506.609 88.1864L505.612 90.1561C505.437 90.5052 506.559 91.6521 506.883 91.8765L538.803 112.87L576.409 96.5889H576.434ZM344.79 115.189L368.206 79.5097C342.595 71.8302 317.658 82.003 301.398 101.027C299.204 103.57 297.982 105.889 297.084 109.853L338.406 118.256C340.201 118.63 343.792 116.71 344.79 115.189ZM659.451 119.004L704.788 109.454C690.448 83.9478 661.047 71.4562 632.618 79.385L659.451 118.979V119.004ZM397.233 117.832L403.767 111.225L416.111 98.409L380.5 83.5738C377.882 82.4767 374.116 81.9531 371.473 82.377L347.134 119.453L373.168 124.938C376.909 125.736 384.864 128.828 387.607 126.384L397.233 117.832ZM612.918 127.007L625.736 125.487L653.865 119.378L629.377 82.4019C627.232 82.003 623.367 82.3271 621.297 83.1749L584.813 98.409L603.417 117.433L612.943 126.982L612.918 127.007ZM533.192 114.641L519.676 105.116L504.839 95.0929C501.796 93.0484 499.053 93.2728 496.235 95.1927L467.657 114.516C479.527 120.275 489.327 124.315 500.45 128.454L533.192 114.641ZM428.23 135.834L457.382 115.937L420.749 100.354L392.52 128.628L428.206 135.809L428.23 135.834ZM573.217 136.083L608.454 128.578L580.574 100.678L551.571 112.072C548.754 113.17 546.584 114.491 544.365 116.909L573.192 136.083H573.217ZM271.024 156.678L288.78 113.219C258.132 111.125 233.094 129.725 223.344 156.728L271.024 156.678ZM777.58 156.553C767.057 128.528 741.221 110.851 711.994 113.369L730.074 156.803L777.605 156.553H777.58ZM339.328 122.943L310.126 116.685C304.416 115.463 298.655 114.665 292.92 114.366L275.538 156.728H317.009L339.303 122.943H339.328ZM725.211 156.429L707.78 113.992L689.675 116.984L661.471 122.869L683.915 156.803L725.186 156.429H725.211ZM493.567 130.922L462.794 117.558L434.864 136.657C445.063 139.424 455.213 141.618 465.587 143.289L493.567 130.922ZM566.21 136.806L538.155 117.558L507.208 131.146L535.287 143.463L566.235 136.806H566.21ZM368.979 146.356L382.994 132.418C379.203 130.772 375.388 129.75 371.273 128.927L357.732 126.135C352.994 125.162 347.707 124.04 343.194 124.863L322.421 156.429L357.408 156.877C361.373 154.384 365.687 149.622 369.004 146.331L368.979 146.356ZM642.868 156.927L678.553 156.454L657.282 124.215L641.247 126.559L617.905 131.62L624.239 139.05L642.893 156.952L642.868 156.927ZM396.959 155.805C406.036 151.716 413.243 145.458 422.021 139.524L393.916 133.39C391.248 132.817 386.909 133.839 385.014 135.759L365.014 156.229C375.662 156.429 386.71 158.274 396.984 155.805H396.959ZM635.661 156.104L612.419 132.667L578.853 139.599L604.14 156.578L635.686 156.104H635.661ZM516.31 147.253L526.609 144.511L508.355 136.357C502.719 133.839 498.18 133.839 492.519 136.357L474.215 144.56L485.138 147.328C495.662 149.996 505.213 150.17 516.31 147.228V147.253ZM456.584 145.907L428.829 140.471L405.737 155.88C425.787 158.947 439.502 156.578 456.584 145.907ZM594.713 155.755L571.546 140.422L544.29 145.982C561.347 156.354 575.312 159.146 594.713 155.755ZM471.248 156.104L485.263 153.137C469.826 145.408 461.572 147.727 447.033 156.08C455.562 157.052 463.542 157.75 471.248 156.129V156.104ZM553.816 156.055C539.302 147.652 531.148 145.458 515.612 153.137L531.646 156.379C538.828 157.825 546.06 156.927 553.816 156.055ZM208.107 208.09L214.541 176.899C215.563 171.887 216.411 167.2 216.461 161.889C187.633 166.452 166.337 187.795 161.648 216.592C167.11 216.543 171.723 215.77 176.835 214.698L208.082 208.115L208.107 208.09ZM248.705 200.486C250.451 200.087 254.092 197.868 254.79 196.097L268.406 161.764L221.922 161.714L215.538 193.205L213.868 207.093L248.73 200.486H248.705ZM294.291 191.061L313.293 161.69L273.244 161.814L258.281 198.316L294.291 191.036V191.061ZM333.717 181.586L353.243 161.839L318.705 161.69L300.575 189.041C311.473 188.368 330.251 185.102 333.717 181.586ZM388.181 161.914L358.929 161.789L339.877 181.536C361.922 179.741 372.271 175.029 388.181 161.914ZM418.555 162.363C401.348 160.044 393.742 160.817 381.572 172.959C395.163 172.71 406.56 168.421 418.555 162.363ZM599.277 826.259L660.424 801.102C666.159 798.733 712.942 767.517 718.428 762.081L763.416 717.525L796.433 668.208C802.667 658.908 806.882 648.535 810.772 637.839C815.46 624.924 823.34 613.33 826.183 599.866L839.276 537.782V464.429L828.852 410.972C826.258 397.632 820.323 385.49 814.812 373.023C809.675 361.429 806.757 348.838 799.725 338.242L763.465 283.613L717.456 237.437C697.705 225.793 680.673 210.833 660.299 200.361C639.925 189.889 620.374 182.608 599.726 175.029L540.774 161.839L460.151 161.914L402.071 174.68L341.049 199.164L283.493 237.561L237.334 283.563C225.713 303.036 211 319.791 200.626 340.012C190.252 360.233 182.347 380.304 175.015 401.323C167.683 422.341 167.384 443.46 161.349 464.304L162.147 536.685C162.272 548.877 167.434 560.77 169.005 572.838C171.299 590.765 176.087 606.747 183.893 622.779C190.177 635.695 192.945 650.056 200.825 662.024L237.409 717.55L282.471 762.106C287.932 767.517 333.692 798.11 340.475 801.126C360.974 810.227 380.924 819.153 402.071 826.459L460.151 839.249H540.749L599.277 826.284V826.259ZM603.641 161.889L582.145 162.288C594.439 168.471 605.686 172.81 619.352 172.885C614.888 168.895 608.778 164.158 603.641 161.889ZM660.922 181.312L641.546 161.44L612.793 162.138C629.277 175.153 639.476 180.04 660.947 181.312H660.922ZM700.224 188.767L682.194 161.64L647.88 161.889L654.389 168.671L664.04 178.819C670.972 186.099 688.304 188.268 700.224 188.767ZM742.318 197.893L727.456 161.665L687.606 161.814L706.807 191.061L742.318 197.868V197.893ZM788.054 207.118L778.927 161.69L732.044 161.739L744.588 191.958C745.037 194.003 747.755 199.438 749.974 199.887L788.054 207.118ZM823.465 214.573C829.101 215.745 833.864 216.518 839.251 216.543C834.537 187.795 813.266 166.402 784.363 161.864L786.583 177.996L792.892 208.165L823.44 214.573H823.465ZM319.054 203.054C333.119 199.089 343.767 193.604 353.992 184.404L341.897 186.049C331.423 187.47 326.585 193.18 319.054 203.029V203.054ZM669.252 189.34C667.306 187.271 662.095 186.473 659.027 186.099L646.982 184.628C657.98 193.828 668.603 199.837 681.72 202.655L669.252 189.34ZM294.366 214.199C304.241 210.708 311.224 205.572 317.184 197.444C318.805 195.2 323.493 194.776 322.321 190.014L296.311 195.349L280.999 218.936L294.366 214.199ZM715.935 218.113C716.758 218.462 719.077 217.964 719.7 217.44L704.563 195.374L678.578 190.014C677.656 194.402 681.471 194.901 683.117 196.945C689.451 204.749 695.91 209.561 705.411 213.625L715.935 218.138V218.113ZM272.945 222.801L289.827 196.895L256.611 202.779L243.768 234.594L272.945 222.776V222.801ZM757.431 234.594L745.885 206.345C744.937 204.026 740.997 201.957 738.603 201.583L711.396 197.12C717.506 206.868 721.969 215.371 728.777 222.427C737.231 227.862 747.032 230.904 757.456 234.594H757.431ZM230.227 240.778C235.364 238.733 238.655 235.467 240.501 230.705L250.8 204.226L211.922 212.03L204.341 251.05L230.227 240.753V240.778ZM796.583 251.1L792.792 229.333L788.453 211.805L749.899 204.325L760.448 230.755C762.393 235.616 766.009 239.381 771.171 240.902L796.583 251.1ZM161.673 269.077L199.329 253.294L207.085 213.925C200.825 214.199 196.586 214.997 191.299 216.094L176.636 219.136L161.599 222.177L161.698 269.077H161.673ZM839.226 222.103L807.555 215.72C802.967 214.797 798.453 213.825 793.889 214.448L801.794 253.543L839.325 269.052L839.226 222.103ZM264.815 244.218C277.807 237.412 286.361 229.907 294.491 218.836L275.239 226.69C271.374 232.674 267.783 237.661 264.815 244.218ZM706.458 219.136C714.812 229.857 724.463 238.658 736.059 243.944C728.877 227.613 722.967 223.823 706.458 219.136ZM156.811 270.747L156.536 223.474C129.454 233.223 110.377 259.328 113.394 288.899L156.811 270.747ZM887.579 288.5C889.998 258.53 871.27 233.073 844.313 223.474V271.047L887.579 288.5ZM245.239 258.131C250.451 254.94 255.289 249.779 258.306 244.917L267.009 230.904C256.685 233.921 248.68 237.137 240.276 241.526L230.676 267.107L245.264 258.156L245.239 258.131ZM770.124 266.758L760.772 241.301L733.84 230.755L742.119 244.144C744.189 247.51 747.68 252.571 750.997 254.665L770.099 266.758H770.124ZM221.922 272.418C228.107 264.364 230.401 253.469 234.516 243.645L203.02 256.236L196.935 289.597C206.287 283.613 215.189 279.624 221.922 272.443V272.418ZM804.213 289.896L797.705 255.962L766.283 243.844L777.929 272.917L804.213 289.921V289.896ZM191.125 294.085L197.883 258.68L161.574 273.689L161.723 313.458L191.125 294.085ZM839.101 313.184L839.375 273.714L803.366 258.779L809.999 294.21L839.101 313.209V313.184ZM219.08 294.384C230.601 285.732 238.356 276.332 243.693 264.763C236.611 268.628 230.75 272.343 225.513 276.507L219.08 294.384ZM773.939 275.385L756.832 264.589C763.141 276.981 771.022 286.43 781.919 294.534C779.6 287.602 777.306 280.696 773.939 275.36V275.385ZM122.721 339.463L156.711 317.073L156.437 275.709L115.514 292.664C115.015 293.711 113.968 297.451 114.242 298.797L122.721 339.488V339.463ZM886.781 298.074C886.657 294.708 885.161 292.464 882.792 291.492L844.313 275.684V317.073L878.178 339.538L886.806 298.074H886.781ZM202.521 312.486C204.965 310.441 208.905 306.502 210.002 303.684L218.88 280.895L194.691 296.728L190.077 324.254L202.496 312.461L202.521 312.486ZM810.772 324.005L806.233 296.703L781.994 280.895L791.42 304.432C792.568 307.275 796.583 310.865 798.752 312.86L810.797 324.03L810.772 324.005ZM118.806 342.031L109.404 296.279C83.619 310.566 71.1003 340.835 79.6539 368.386L118.831 342.031H118.806ZM885.684 344.749L921.22 368.336C929.923 340.934 917.28 310.541 891.495 296.354L882.667 338.64C882.343 340.161 884.238 343.802 885.684 344.749ZM189.204 300.917L161.524 318.744L161.898 352.852C183.918 334.502 185.539 330.662 189.179 300.917H189.204ZM839.226 353.102L839.325 318.744L811.47 300.443L817.306 330.911L827.904 342.43L839.226 353.127V353.102ZM184.84 354.423C193.444 343.029 199.304 333.18 202.87 319.143C197.633 323.132 194.292 326.473 189.903 331.036C186.885 334.177 183.544 347.966 184.84 354.423ZM811.021 331.036C806.607 326.448 803.291 323.082 797.979 319.168C801.844 333.305 807.829 343.602 816.233 354.398C817.256 346.943 813.939 334.053 811.021 331.036ZM131.923 382.598L156.736 358.063L156.387 322.509L124.666 343.328C124.167 347.891 125.04 352.927 126.063 357.814L128.881 371.303L131.948 382.598H131.923ZM875.161 356.293C876.108 351.855 876.582 347.093 876.258 343.278L844.363 322.459L844.263 358.138L858.103 372.026L869.375 382.972L875.136 356.293H875.161ZM175.19 368.685C177.783 364.82 180.576 349.736 181.15 340.037L161.349 359.485L162.023 388.382L175.19 368.71V368.685ZM838.827 387.609L839.325 359.011L819.5 339.987C820.971 350.284 821.595 358.537 825.061 366.79C828.253 374.395 833.889 380.678 838.827 387.584V387.609ZM123.619 391.948C125.364 390.252 127.434 385.615 126.985 383.47L119.055 347.367L80.402 372.974L98.5565 416.382L123.644 391.948H123.619ZM890.747 405.312L902.517 416.233L920.497 372.949L881.594 347.242L876.083 372.375L873.814 387.136L890.747 405.312ZM139.354 421.917L156.561 397.657L156.212 364.97L132.521 388.307L139.354 421.917ZM867.729 393.319C868.128 391.449 867.081 386.911 865.759 385.64L844.512 364.945L844.213 397.134L861.545 422.142L867.729 393.344V393.319ZM81.5242 433.412L91.4244 423.862C92.6713 422.665 95.1152 419.1 94.4169 417.429L77.1602 376.664C54.2925 395.039 48.5319 427.428 61.4495 452.909L81.4993 433.387L81.5242 433.412ZM921.869 435.855L939.524 452.934C952.741 426.929 946.282 395.738 924.063 376.315L906.557 417.504C905.26 420.546 909.674 423.787 911.495 425.583L921.894 435.855H921.869ZM162.147 418.152C168.855 406.384 172.072 395.488 173.095 382.074C170.801 383.52 168.955 385.191 167.858 386.961L161.524 397.084L162.147 418.128V418.152ZM827.954 381.6C828.403 395.139 832.667 406.608 838.552 418.103C841.345 401.846 839.475 391.923 827.954 381.6ZM115.763 457.422L135.813 428.026L128.282 392.696L100.202 420.895L115.788 457.422H115.763ZM885.186 457.347L900.597 420.496L872.467 392.721L865.061 428.026L885.161 457.323L885.186 457.347ZM146.611 455.926L156.811 433.038L156.087 405.935C149.429 414.163 144.541 421.518 140.501 429.472C141.948 438.623 143.344 446.352 146.611 455.926ZM854.861 455.876L860.672 428.824L845.061 405.811C842.343 424.685 843.839 438.797 854.861 455.876ZM112.871 461.811L96.4119 424.585L63.5692 457.347L89.8284 496.592L112.871 461.786V461.811ZM911.145 496.617L937.479 457.422L904.213 424.51L888.078 462.209L911.121 496.642L911.145 496.617ZM130.826 493.7L143.419 465.6L136.536 434.883L117.359 462.783L130.851 493.7H130.826ZM870.048 494.099L883.54 462.758L864.113 434.608L857.505 465.551L870.048 494.074V494.099ZM152.746 484.749L156.137 470.363C157.883 462.933 156.935 455.253 155.988 447.075C147.26 461.063 145.738 470.687 152.746 484.724V484.749ZM848.378 484.824C855.111 469.315 853.59 461.362 844.961 447.075L844.662 469.315C844.587 474.601 846.782 479.937 848.378 484.824ZM87.0603 499.734L60.851 461.262C42.5219 484.998 42.5968 516.015 60.7513 539.453L75.0903 518.459C79.4295 512.624 83.9681 506.092 87.0354 499.709L87.0603 499.734ZM926.283 519.331L940.198 539.527C958.427 515.891 958.128 485.148 940.347 461.387L926.706 481.009L913.589 500.756L926.283 519.307V519.331ZM886.383 533.419L908.702 500.557L887.579 468.767C887.854 468.044 884.687 470.213 884.113 471.634L872.418 500.457L886.407 533.394L886.383 533.419ZM128.407 500.956C124.292 489.337 120.177 479.513 114.342 467.72L92.1975 500.482L114.467 533.294L128.407 500.956ZM143.793 526.138C147.708 517.511 150.551 501.803 149.18 495.645L144.367 474.078L136.487 491.556C133.594 498.014 133.793 503 136.561 509.383L143.818 526.113L143.793 526.138ZM857.106 525.839L863.964 510.38C867.23 503.025 867.181 498.063 863.939 490.633L857.156 475.1L853.864 483.926C849.974 498.537 851.345 512.674 857.081 525.839H857.106ZM112.945 539.079L89.7037 504.446L63.5443 543.442L96.387 576.503L112.945 539.104V539.079ZM904.437 576.453L937.529 543.292L911.145 504.372L888.053 538.655L904.437 576.453ZM138.157 560.022L143.22 535.314L130.651 506.815L117.559 537.957L133.694 562.466L137.285 564.136C137.958 564.461 138.182 561.045 138.157 560.022ZM865.435 564.535L883.44 538.056L870.048 506.99L857.704 535.214L862.866 561.917L865.435 564.535ZM156.038 553.964C157.858 540.275 156.586 526.113 152.596 515.716C145.314 530.626 147.584 540.475 156.038 553.964ZM852.842 536.56C853.54 535.014 851.819 519.406 847.58 515.691L844.637 531.798C843.34 538.929 843.989 546.035 845.011 553.964L852.842 536.56ZM872.717 608.193L900.722 580.094L885.111 543.193L865.036 572.763L872.717 608.193ZM135.913 573.262L115.589 543.367L100.202 580.119L128.307 608.193L135.913 573.262ZM155.888 595.054C158.781 574.334 156.262 561.144 145.713 544.315L140.202 572.115L155.888 595.054ZM845.036 595.079L860.597 572.24L855.086 544.364C844.413 561.618 842.143 575.032 845.036 595.079ZM95.3645 581.116L76.1627 562.391L61.3747 548.154C48.4321 574.259 54.4421 605.526 77.0105 624.674L95.3396 581.141L95.3645 581.116ZM924.138 624.749C946.881 604.453 952.267 573.935 939.649 548.005L924.736 562.441L905.809 581.39L924.113 624.749H924.138ZM156.387 636.168L156.661 603.88L139.579 578.997C135.938 591.314 134.417 601.013 132.596 612.781L156.387 636.144V636.168ZM868.502 612.233L861.395 578.947L844.213 603.93L844.687 636.044L868.477 612.233H868.502ZM173.668 619.663C172.147 606.498 168.456 594.655 162.446 583.011C159.579 599.143 161.2 609.016 173.668 619.663ZM838.502 582.986C832.717 594.729 827.929 606.573 828.303 619.114C839.899 607.47 841.221 599.741 838.502 582.986ZM127.534 614.377L118.831 604.453L107.434 593.283L98.2573 584.806L80.3522 628.065L119.354 653.796L127.534 614.402V614.377ZM878.627 640.831C879.599 645.743 880.148 649.408 882.542 653.447L920.622 627.841L902.542 584.706L874.163 613.105C873.889 617.119 875.036 622.555 875.859 626.719L878.627 640.831ZM181.374 660.578L176.262 633.176L161.973 612.607L161.698 641.978L181.374 660.603V660.578ZM819.7 660.927L839.525 641.579L839.026 612.781C826.158 628.265 821.046 639.31 819.7 660.902V660.927ZM124.965 657.935L156.511 678.58L156.661 642.95L131.973 618.491C130.202 622.48 129.554 625.746 128.756 629.736L126.038 643.349C125.165 647.713 123.419 653.821 124.965 657.96V657.935ZM877.305 656.888L870.522 621.558C870.298 620.436 868.078 618.117 867.555 618.84L865.41 621.782L844.338 642.95L844.612 678.58L877.33 656.888H877.305ZM118.207 658.284L79.604 632.827C71.0255 660.154 83.7187 690.523 109.354 704.735L118.207 658.284ZM891.744 704.76C917.704 689.6 929.325 660.927 921.569 632.703L885.609 656.339C884.138 657.312 882.816 660.628 882.692 662.249L891.769 704.735L891.744 704.76ZM189.928 669.928C194.267 674.591 197.633 677.956 202.945 681.871C199.13 667.684 193.219 657.337 184.716 646.69C184.217 654.37 187.359 667.135 189.953 669.928H189.928ZM811.021 669.953C813.365 667.784 817.331 652.599 816.009 646.665C807.48 658.234 801.121 668.457 798.353 681.771L811.021 669.978V669.953ZM187.16 685.387C185.688 673.02 181.848 664.867 171.998 657.935L161.723 647.912L161.574 682.27L188.955 700.371L187.16 685.387ZM812.318 700.197L839.35 682.22L839.201 647.837L819.251 667.534C814.986 671.748 815.286 681.173 813.789 686.608C812.418 691.645 811.745 695.435 812.343 700.197H812.318ZM156.611 725.429L156.661 683.891L122.472 661.526L113.569 707.627L156.611 725.429ZM887.455 707.253L878.353 661.401L844.188 683.94L844.438 725.33L887.455 707.228V707.253ZM212.421 702.466C210.351 697.03 206.386 691.769 202.197 687.955L190.102 676.884L195.339 704.635L219.055 719.944L212.396 702.466H212.421ZM781.52 720.542L805.66 704.71L810.747 677.533L799.376 687.606C796.433 690.224 792.019 694.338 790.498 698.202L781.52 720.567V720.542ZM197.883 742.184L190.825 706.779L161.648 687.581V727.549L197.858 742.184H197.883ZM803.166 742.484L839.35 727.424L839.176 687.581L809.974 706.829L803.141 742.484H803.166ZM244.017 736.475C238.032 723.933 229.853 714.708 218.855 706.48L225.588 724.457C230.875 729.02 237.334 732.934 244.017 736.475ZM775.485 724.183L782.019 706.48C770.997 714.883 762.393 724.432 757.057 736.225C764.214 732.66 770.573 728.795 775.485 724.183ZM156.536 777.465L156.661 730.017L113.195 712.339C110.901 742.683 129.753 768.015 156.536 777.465ZM234.341 756.995L222.945 728.371L196.686 711.492L203.194 745.127L234.341 756.995ZM798.104 744.703L804.188 711.641C794.862 717.251 785.236 721.415 778.852 729.07C772.468 736.724 770.398 747.495 766.383 757.469L798.104 744.703ZM844.537 777.59C872.492 767.167 890.298 741.162 887.505 712.439L844.138 730.216L844.562 777.59H844.537ZM207.159 787.987L199.13 747.57L161.648 732.062V779.061L207.159 787.962V787.987ZM793.864 788.037L839.35 778.936L839.276 732.037L801.595 747.769L793.889 788.037H793.864ZM257.01 754.227C254.217 749.565 249.129 745.276 244.815 742.658L230.626 733.981L240.675 760.336L267.109 771.107L257.01 754.252V754.227ZM733.765 771.082L760.224 760.361L770.099 733.932L752.418 745.201C750.698 746.298 747.331 749.34 746.209 751.16L733.765 771.082ZM240.626 770.708C238.805 766.12 235.763 762.53 231.523 760.859L204.516 750.138L211.972 789.134L251.025 796.813L240.626 770.683V770.708ZM749.899 796.838L789.051 789.084L796.707 749.939L770.323 760.535C765.086 762.106 761.969 766.32 760.049 771.182L749.899 796.863V796.838ZM294.316 781.579C285.563 770.758 276.261 762.106 264.765 757.319C272.92 773.825 277.508 777.914 294.316 781.579ZM725.486 774.997L736.558 756.97C723.64 762.954 714.862 770.907 706.433 782.152L725.486 774.997ZM289.678 803.969L272.845 777.889L243.394 766.345L256.561 798.135L289.678 803.969ZM744.538 798.06L757.431 766.32L727.78 778.213L711.022 804.443L744.538 798.06ZM316.286 802.224C312.296 797.761 308.231 794.12 303.618 790.58L280.825 782.028L296.61 806.213L323.992 810.826L316.261 802.224H316.286ZM704.887 805.365L719.974 782.177C711.072 785.269 702.817 787.363 696.184 792.101C689.152 797.112 683.69 803.445 676.907 810.501C686.234 809.778 695.386 808.008 704.912 805.365H704.887ZM208.032 792.849L175.788 786.266C171.1 785.319 166.811 784.521 161.648 784.546C166.561 813.244 187.583 834.662 216.486 839.175C216.386 833.839 215.663 829.201 214.591 824.065L208.032 792.824V792.849ZM784.438 839.175C813.241 834.562 834.587 813.269 839.251 784.471L824.089 786.441L792.842 792.924L786.333 824.09C785.286 829.151 784.513 833.839 784.438 839.175ZM268.83 839.299L253.244 801.7L213.843 793.921L216.137 810.701L222.097 839.324L268.83 839.274V839.299ZM778.877 839.175L785.011 809.529C786.109 804.193 787.156 799.232 786.558 793.896L747.356 801.899L732.094 839.399L778.877 839.2V839.175ZM353.443 816.136C342.894 807.036 331.697 801.127 319.353 798.234C328.381 811.823 338.256 816.71 353.443 816.136ZM681.67 798.01C668.703 801.7 657.755 807.011 647.506 816.161C663.192 816.71 673.042 811.324 681.67 798.01ZM313.069 838.875L293.842 809.554L258.381 802.972L273.643 839.399L313.044 838.875H313.069ZM727.381 839.299L742.044 802.972L706.782 809.878L687.581 839.274L727.381 839.324V839.299ZM332.271 818.605C329.802 816.161 309.403 812.272 300.75 812.297L318.78 839.424L352.969 839.05L332.271 818.605ZM648.08 839.15L682.244 839.399L700.349 811.997L688.03 813.568L670.324 817.607C665.71 818.655 661.945 824.788 658.952 827.905L648.105 839.15H648.08ZM369.478 826.159C365.014 823.118 350.201 820.724 339.952 819.727L359.403 839.574L388.231 838.925L369.503 826.159H369.478ZM612.594 839.1L641.92 839.299L660.922 819.752L650.548 821.098C644.289 821.921 636.184 822.793 630.997 826.384L612.594 839.1ZM417.931 838.676C406.111 832.842 394.764 827.306 380.999 828.753L395.537 838.651C402.121 839.798 409.702 839.623 417.931 838.651V838.676ZM619.651 828.354C605.686 827.855 594.414 832.842 583.018 838.626C599.826 841.244 608.205 839.449 619.651 828.354ZM270.825 844.161L223.369 844.535C233.843 872.585 259.578 890.188 288.954 887.645L270.8 844.161H270.825ZM339.428 878.145L316.984 844.236L275.613 844.485L293.269 887.071L311.298 884.403L339.403 878.145H339.428ZM382.595 869.444L374.44 860.443C369.428 854.907 363.642 848.5 357.358 844.161L322.421 844.585L343.642 876.774L357.757 874.929L371.248 872.161L382.62 869.444H382.595ZM421.946 861.24L396.011 844.037L364.839 844.71L388.231 868.446L421.921 861.265L421.946 861.24ZM446.485 850.046L433.118 844.436L405.213 844.934L428.455 860.642L456.26 855.531C453.218 852.514 450.724 851.841 446.46 850.046H446.485ZM484.664 848.225L470.325 844.81L446.011 844.984C461.123 852.838 469.627 856.154 484.664 848.225ZM554.813 844.884C545.611 844.037 537.432 843.114 529.701 844.984L516.16 848.25C531.397 856.279 540.649 852.639 554.838 844.884H554.813ZM572.868 860.517L595.062 844.934C573.741 842.216 561.596 844.76 544.265 855.182L572.868 860.517ZM612.968 868.222L636.085 844.61L604.264 844.51L578.978 861.34C591.097 864.956 601.222 866.975 612.968 868.197V868.222ZM643.666 875.078C648.504 876.076 653.566 877.048 657.78 876.151L678.528 844.411L642.693 844.286L624.339 862.163L617.706 869.119L629.726 872.186L643.641 875.054L643.666 875.078ZM707.855 886.722L725.361 844.311H683.915L661.396 878.295L689.675 884.279L707.855 886.722ZM762.867 868.247C769.625 860.842 774.488 853.636 777.381 844.286H729.999L712.044 887.47C731.645 889.789 749.501 881.785 762.867 868.247ZM509.826 864.208L527.108 856.503L511.372 852.938C506.584 851.866 499.477 850.968 494.739 851.965L473.816 856.428L490.724 864.008C497.657 867.125 502.32 867.524 509.801 864.183L509.826 864.208ZM463.118 883.531L494.19 870.167L465.188 857.725L439.378 862.936C438.629 863.086 436.984 863.11 437.009 863.634L437.158 866.377L463.118 883.506V883.531ZM562.544 867.15C563.167 866.726 564.788 863.709 564.04 863.559L561.447 862.986L535.736 857.725L507.008 870.067L538.155 883.406L562.544 867.15ZM457.283 885.226L427.208 865.105L392.62 872.735L420.799 900.66L457.308 885.201L457.283 885.226ZM580.324 900.61L608.279 872.635L573.267 865.23L543.567 885.351L580.324 900.585V900.61ZM506.834 904.599L533.168 886.548L499.876 872.46L467.707 886.498L494.514 904.874C499.502 908.289 501.472 908.314 506.858 904.599H506.834ZM377.907 918.562L416.285 902.48L387.158 873.408L347.109 881.586L371.872 919.185L377.882 918.562H377.907ZM629.601 918.387L653.79 881.586L614.015 873.508L606.384 880.489L584.788 902.655L620.424 917.515C622.793 918.512 627.332 919.46 629.601 918.412V918.387ZM368.306 921.379L342.246 882.384L297.583 891.135C297.084 892.158 296.386 893.629 296.411 893.479C296.411 893.354 297.458 894.402 297.982 894.9C312.969 917.365 340.625 929.807 368.306 921.379ZM704.638 891.759L658.728 882.434L632.868 921.878C661.745 929.159 689.75 917.44 704.638 891.759ZM482.794 920.606L495.936 910.608L462.071 888.193L424.54 904.599L457.532 937.461L482.794 920.606ZM543.542 937.461L576.509 904.25L542.12 889.365C540.424 888.642 536.31 889.664 534.689 890.736L504.963 910.708L519.228 921.33L543.517 937.436L543.542 937.461ZM437.009 923.175L427.507 913.326C425.288 910.384 421.797 907.741 418.505 906.17L376.41 923.898C395.488 946.537 426.809 952.521 453.143 939.406L437.033 923.175H437.009ZM547.881 939.506C575.187 952.745 605.486 946.163 624.564 923.947L582.394 906.17C578.23 908.165 574.364 911.581 571.596 915.395L547.856 939.506H547.881ZM537.656 941.949C538.404 940.453 539.078 939.306 538.554 939.007L536.459 937.785L500.499 913.625L461.871 939.506C463.268 941.326 465.712 943.62 468.106 944.966C490.35 957.508 516.21 956.435 537.681 941.924L537.656 941.949Z" fill="white"/>
</g>
<defs>
<clipPath id="clip0_6648_2708">
<rect width="950.088" height="950.088" fill="white" transform="translate(25.3945 25.3945)"/>
</clipPath>
</defs>
</svg>
