<svg xmlns="http://www.w3.org/2000/svg" viewBox="0 0 2000 2000">
  <!-- Black background circle -->
  <circle cx="1000" cy="1000" r="1000" fill="#000000"/>

  <!-- Gold USDC dollar sign -->
  <path d="M1275 1158.33c0-145.83-87.5-195.83-262.5-216.66-125-16.67-150-50-150-108.34s41.67-95.83 125-95.83c75 0 116.67 25 137.5 87.5 4.17 12.5 16.67 20.83 29.17 20.83h66.66c16.67 0 29.17-12.5 29.17-29.16v-4.17c-16.67-91.67-91.67-162.5-187.5-170.83v-100c0-16.67-12.5-29.17-33.33-33.34h-62.5c-16.67 0-29.17 12.5-33.34 33.34v95.83c-125 16.67-204.16 100-204.16 204.17 0 137.5 83.33 191.66 258.33 212.5 116.67 20.83 154.17 45.83 154.17 112.5s-58.34 112.5-137.5 112.5c-108.34 0-145.84-45.84-158.34-108.34-4.16-16.66-16.66-25-29.16-25h-70.84c-16.66 0-29.16 12.5-29.16 29.17v4.17c16.66 104.16 83.33 179.16 220.83 200v100c0 16.66 12.5 29.16 33.33 33.33h62.5c16.67 0 29.17-12.5 33.34-33.33v-100c125-20.84 208.33-108.34 208.33-220.84z" fill="#dfc674" transform="scale(0.9) translate(111, 111)"/>

  <!-- Gold shield outline positioned more to the left -->
  <path d="M3.75 5C3.33579 5 3 5.33579 3 5.75V11C3 16.0012 5.95756 19.6757 11.7251 21.9478C11.9018 22.0174 12.0982 22.0174 12.2749 21.9478C18.0424 19.6757 21 16.0012 21 11V5.75C21 5.33579 20.6642 5 20.25 5C17.5866 5 14.992 4.05652 12.45 2.15C12.1833 1.95 11.8167 1.95 11.55 2.15C9.00797 4.05652 6.41341 5 3.75 5Z"
        fill="none"
        stroke="#dfc674"
        stroke-width="1.5"
        stroke-linejoin="round"
        transform="scale(70) translate(2.4, 2.8)"/>
</svg>
