<svg width="1000" height="1000" viewBox="0 0 1000 1000" fill="none" xmlns="http://www.w3.org/2000/svg">
<rect width="1000" height="1000" rx="500" fill="#0151AF"/>
<path fill-rule="evenodd" clip-rule="evenodd" d="M374.801 719.694V550.901H294.211V482.157H374.801V457.736H294.211V390.534H374.801V281.078H557.872C605.854 281.078 641.373 292.205 664.405 314.453C687.438 336.488 698.965 370.494 698.965 416.474C698.965 451.327 690.472 479.348 673.455 500.541C656.438 521.516 632.791 536.117 602.411 544.308L705.413 719.694H610.163L515.561 551.233H460.692V719.694H374.801ZM460.692 482.283H569.184C596.086 482.283 609.543 467.682 609.543 438.509V393.469C609.543 378.777 606.532 368.286 600.488 361.969C594.695 355.469 584.248 352.207 569.184 352.207H460.692V482.283Z" fill="white"/>
</svg>
