<svg width="100" height="100" viewBox="0 0 100 100" fill="none" xmlns="http://www.w3.org/2000/svg">
<rect width="100" height="100" rx="50" fill="#0151AF"/>
<g clip-path="url(#clip0_3793_73)">
<rect x="10" y="10.0004" width="80" height="80" rx="40" stroke="white" stroke-opacity="0.3" stroke-width="10"/>
<rect x="15.8" y="15" width="70" height="70" rx="35" fill="#0151AF"/>
<rect x="8.75" y="8.75037" width="82.5" height="82.5" rx="41.25" stroke="white" stroke-opacity="0.3" stroke-width="7.5"/>
<rect x="7.5" y="7.50037" width="85" height="85" rx="42.5" stroke="white" stroke-opacity="0.3" stroke-width="5"/>
<rect x="6.25" y="6.25037" width="87.5" height="87.5" rx="43.75" stroke="white" stroke-width="2.5"/>
</g>
<path fill-rule="evenodd" clip-rule="evenodd" d="M37.1766 24.0853H44.3766C44.6516 24.0853 44.8716 24.3103 44.8716 24.5853V35.1053C44.8716 35.3853 45.0966 35.6053 45.3716 35.6053H54.6166C54.8916 35.6053 55.1166 35.3853 55.1166 35.1053V24.5853C55.1166 24.3103 55.3366 24.0853 55.6166 24.0853H62.8116C63.0866 24.0853 63.3116 24.3103 63.3116 24.5853V35.1053C63.3116 35.3853 63.5316 35.6053 63.8116 35.6053H72.6116C72.8916 35.6053 73.1116 35.8303 73.1116 36.1053V43.2853C73.1116 43.5653 72.8916 43.7853 72.6116 43.7853H63.8116C63.5316 43.7853 63.3116 44.0103 63.3116 44.2853V55.4603C63.3116 55.7353 63.5316 55.9603 63.8116 55.9603H72.6116C72.8916 55.9603 73.1116 56.1803 73.1116 56.4603V63.6403C73.1116 63.9153 72.8916 64.1403 72.6116 64.1403H63.8116C63.5316 64.1403 63.3116 64.3653 63.3116 64.6403V75.1603C63.3116 75.4353 63.0866 75.6603 62.8116 75.6603H55.6166C55.3366 75.6603 55.1166 75.4353 55.1166 75.1603V64.6403C55.1166 64.3603 54.8916 64.1403 54.6166 64.1403H45.3766C45.1016 64.1403 44.8766 64.3653 44.8766 64.6403V75.1603C44.8766 75.4353 44.6566 75.6603 44.3816 75.6603H37.1816C36.9066 75.6603 36.6816 75.4353 36.6816 75.1603V64.6403C36.6816 64.3603 36.4616 64.1403 36.1816 64.1403H27.3816C27.1016 64.1403 26.8816 63.9153 26.8816 63.6403V56.4603C26.8816 56.1803 27.1016 55.9603 27.3816 55.9603H36.1816C36.4616 55.9603 36.6816 55.7353 36.6816 55.4603V44.2853C36.6816 44.0103 36.4616 43.7853 36.1816 43.7853H27.3816C27.1016 43.7853 26.8816 43.5653 26.8816 43.2853V36.1053C26.8816 35.8303 27.1016 35.6053 27.3816 35.6053H36.1816C36.4616 35.6053 36.6816 35.3853 36.6816 35.1053V24.5853C36.6716 24.3103 36.9016 24.0853 37.1766 24.0853ZM55.1216 55.4653V44.2853C55.1216 44.0103 54.8966 43.7853 54.6216 43.7853H45.3766C45.1016 43.7853 44.8766 44.0103 44.8766 44.2853V55.4603C44.8766 55.7353 45.1016 55.9603 45.3766 55.9603H54.6216C54.8966 55.9653 55.1216 55.7353 55.1216 55.4653Z" fill="white"/>
<defs>
<clipPath id="clip0_3793_73">
<rect x="5" y="5.0002" width="90" height="90" rx="45" fill="white"/>
</clipPath>
</defs>
</svg>
