<svg width="16" height="16" viewBox="0 0 16 16" fill="none" xmlns="http://www.w3.org/2000/svg">
<path d="M1.93471 14.1574C1.93471 14.1574 1.93463 14.406 1.93463 14.5009H14.0656V14.1574H12.7484V6.94478V6.77313L12.5767 6.77313H11.4622V5.74269C11.4622 5.40524 11.3359 5.08003 11.1084 4.83087L8.07233 1.50085L7.81814 1.73272L10.8543 5.06769C11.0258 5.25528 11.1202 5.50048 11.1187 5.75467V6.7851L6.25369 6.78498C6.24231 6.78391 6.23081 6.78391 6.21943 6.78498L5.8554 6.06372L5.54791 6.21825L7.48498 10.0359C7.60848 10.2813 7.62704 10.5664 7.53625 10.8259C7.44545 11.0852 7.25331 11.2967 7.00368 11.4115C6.75417 11.5265 6.4686 11.5351 6.21248 11.4355L6.15583 11.4132C5.93973 11.3311 5.758 11.1778 5.64062 10.9787L4.36129 8.7909C4.32104 8.71986 4.27457 8.65254 4.22222 8.58989L2.6887 6.80912C2.44243 6.5221 2.30609 6.15685 2.30395 5.77868L2.27304 1.68294C2.27304 1.68294 1.9752 1.68294 1.92969 1.68294L1.96052 5.77868C1.96423 6.2364 2.12966 6.67806 2.42768 7.02544L3.2863 8.02662V14.1574L1.93471 14.1574ZM3.63136 8.4284L3.95767 8.80789C3.99756 8.85437 4.03313 8.90444 4.06416 8.95727L5.34527 11.1537C5.50183 11.4194 5.74404 11.624 6.03211 11.7342L6.08877 11.7565C6.24641 11.8182 6.4141 11.8502 6.58337 11.8509C7.05246 11.8468 7.48619 11.601 7.73081 11.2007C7.97529 10.8003 7.99601 10.3021 7.78543 9.88288L6.38933 7.11635H12.3997V14.1573H3.63129L3.63136 8.4284Z" fill="#808080" stroke="#808080" stroke-width="0.413438"/>
</svg>
