<svg width="16" height="16" viewBox="0 0 16 16" fill="none" xmlns="http://www.w3.org/2000/svg">
<path fill-rule="evenodd" clip-rule="evenodd" d="M7.26963 1.70418C7.35981 1.70418 7.45009 1.66978 7.51878 1.6012C7.58531 1.53468 7.62198 1.44624 7.62198 1.35204C7.62198 1.25796 7.58531 1.16952 7.51878 1.103C7.3814 0.965722 7.15797 0.965614 7.02068 1.103C6.95416 1.16941 6.91748 1.25796 6.91748 1.35204C6.91748 1.44613 6.95416 1.53457 7.02068 1.6012C7.08926 1.66979 7.17945 1.70418 7.26963 1.70418ZM9.00181 1.60116C8.93322 1.66985 8.84294 1.70414 8.75276 1.70414C8.66269 1.70414 8.57239 1.66985 8.5037 1.60116C8.43707 1.53453 8.40039 1.44609 8.40039 1.352C8.40039 1.25792 8.43707 1.16937 8.5037 1.10296C8.63663 0.969913 8.86887 0.969913 9.00181 1.10296C9.06844 1.16948 9.10512 1.25792 9.10512 1.352C9.10512 1.4462 9.06843 1.53464 9.00181 1.60116ZM5.7756 2.01725C5.86578 2.01725 5.95595 1.98296 6.02464 1.91427C6.09116 1.84775 6.12784 1.75931 6.12784 1.66511C6.12784 1.57103 6.09116 1.48259 6.02464 1.41607C5.8916 1.28302 5.65947 1.28302 5.52654 1.41607C5.46002 1.48248 5.42334 1.57103 5.42334 1.66511C5.42334 1.7592 5.46002 1.84764 5.52654 1.91427C5.59523 1.98296 5.68542 2.01725 5.7756 2.01725ZM7.51878 2.96538C7.45009 3.03396 7.35981 3.06836 7.26963 3.06836C7.17945 3.06836 7.08926 3.03396 7.02068 2.96538C6.95416 2.89875 6.91748 2.8103 6.91748 2.71622C6.91748 2.62214 6.95416 2.53359 7.02068 2.46717C7.15797 2.32979 7.3814 2.32979 7.51878 2.46717C7.58531 2.53369 7.62198 2.62214 7.62198 2.71622C7.62198 2.81042 7.58531 2.89886 7.51878 2.96538ZM8.75276 3.06828C8.84294 3.06828 8.93322 3.03399 9.00181 2.9653C9.06843 2.89878 9.10512 2.81033 9.10512 2.71614C9.10512 2.62205 9.06844 2.53361 9.00181 2.46709C8.86887 2.33405 8.63663 2.33405 8.5037 2.46709C8.43707 2.5335 8.40039 2.62205 8.40039 2.71614C8.40039 2.81022 8.43707 2.89867 8.5037 2.9653C8.57239 3.03399 8.66269 3.06828 8.75276 3.06828ZM5.62257 3.36506C5.48519 3.22777 5.48519 3.00434 5.62257 2.86695C5.75997 2.72946 5.98339 2.72968 6.12077 2.86695C6.25816 3.00424 6.25816 3.22767 6.12077 3.36506C6.05208 3.43375 5.96179 3.46804 5.87161 3.46804C5.78144 3.46804 5.69126 3.43375 5.62257 3.36506ZM7.04924 4.36433C6.91197 4.22704 6.91197 4.0036 7.04924 3.86622C7.18229 3.73307 7.41441 3.73307 7.54745 3.86622C7.68483 4.00351 7.68483 4.22694 7.54745 4.36433C7.48093 4.43085 7.39249 4.46753 7.2984 4.46753C7.20421 4.46753 7.11577 4.43085 7.04924 4.36433ZM7.82444 5.6644C7.87979 5.69631 7.94023 5.7115 8.00002 5.7115C8.12189 5.7115 8.2405 5.64824 8.30572 5.53538C8.40273 5.36728 8.345 5.15134 8.1768 5.05433C8.00871 4.95699 7.79276 5.01494 7.69564 5.18325C7.59841 5.35134 7.65624 5.56717 7.82444 5.6644ZM6.6968 6.07367C6.63571 6.07367 6.57548 6.05772 6.52122 6.02636C6.35302 5.92923 6.29519 5.71339 6.39242 5.54519C6.48943 5.37687 6.70537 5.31893 6.87347 5.41627C6.95496 5.46326 7.01324 5.53922 7.03766 5.63005C7.06196 5.72098 7.04948 5.81594 7.00239 5.89733C6.9554 5.97882 6.87944 6.0371 6.7885 6.06151C6.75822 6.06965 6.72741 6.07367 6.6968 6.07367ZM8.35305 6.62276C8.35305 6.71695 8.31637 6.80539 8.24974 6.87191C8.18116 6.9406 8.09086 6.9749 8.00068 6.9749C7.9104 6.9749 7.82033 6.94061 7.75164 6.87191C7.68512 6.80528 7.64844 6.71684 7.64844 6.62276C7.64844 6.52867 7.68512 6.44012 7.75164 6.37371C7.88457 6.24066 8.11681 6.24066 8.24974 6.37371C8.31637 6.44023 8.35305 6.52867 8.35305 6.62276ZM8.35306 8.00057C8.35306 8.19494 8.19505 8.35294 8.00069 8.35294C7.80644 8.35294 7.64844 8.19493 7.64844 8.00057C7.64844 7.80632 7.80645 7.64832 8.00069 7.64832C8.19506 7.64832 8.35306 7.80633 8.35306 8.00057ZM6.81759 7.64909C6.90777 7.64909 6.99795 7.6148 7.06664 7.54611C7.13316 7.47969 7.16984 7.39114 7.16984 7.29706C7.16984 7.20298 7.13316 7.11453 7.06664 7.0479C6.92914 6.91052 6.70571 6.91074 6.56853 7.0479C6.50201 7.11442 6.46533 7.20286 6.46533 7.29706C6.46533 7.39114 6.50201 7.47959 6.56853 7.54611C6.63722 7.6148 6.72741 7.64909 6.81759 7.64909ZM6.81808 9.05507C6.72388 9.05507 6.63544 9.01839 6.56892 8.95176C6.5024 8.88535 6.46571 8.7969 6.46582 8.70271C6.46582 8.60863 6.5025 8.52008 6.56902 8.45366C6.70206 8.32062 6.93397 8.3203 7.06712 8.45366C7.13364 8.52018 7.17032 8.60863 7.17032 8.70271C7.17032 8.7968 7.13364 8.88535 7.06712 8.95176C7.0006 9.01839 6.91216 9.05507 6.81808 9.05507ZM7.75165 9.62746C7.81806 9.69409 7.90661 9.73077 8.00069 9.73077C8.09478 9.73077 8.18322 9.69409 8.24974 9.62746C8.31637 9.56105 8.35305 9.4725 8.35305 9.37841C8.35305 9.28433 8.31637 9.19588 8.24974 9.12936C8.11681 8.9961 7.88457 8.9961 7.75164 9.12936C7.68512 9.19578 7.64844 9.28433 7.64844 9.37841C7.64844 9.4725 7.68513 9.56094 7.75165 9.62746ZM9.18049 9.05511C9.08641 9.05511 8.99786 9.01843 8.93145 8.9518C8.86481 8.88539 8.82812 8.79695 8.82812 8.70275C8.82812 8.60867 8.86481 8.52012 8.93144 8.4537C9.06437 8.32044 9.29661 8.32044 9.42954 8.4537C9.49617 8.52023 9.53285 8.60867 9.53285 8.70275C9.53285 8.79684 9.49617 8.88539 9.42954 8.9518C9.36302 9.01843 9.27458 9.05511 9.18049 9.05511ZM9.18049 7.64902C9.27458 7.64902 9.36302 7.61234 9.42954 7.54582C9.49617 7.47941 9.53285 7.39086 9.53285 7.29678C9.53285 7.20269 9.49617 7.11425 9.42954 7.04762C9.29237 6.91023 9.06873 6.91023 8.93144 7.04762C8.86481 7.11414 8.82812 7.20258 8.82812 7.29678C8.82812 7.39086 8.8648 7.4793 8.93144 7.54582C8.99796 7.61234 9.08641 7.64902 9.18049 7.64902ZM5.72419 7.02427C5.6644 7.02427 5.60395 7.00918 5.54861 6.97717C5.3804 6.88005 5.32256 6.66422 5.41969 6.49602C5.46668 6.41452 5.54264 6.35625 5.63358 6.33183C5.72408 6.30763 5.81925 6.31978 5.90086 6.3671C6.06917 6.46422 6.1269 6.68005 6.02977 6.84825C5.96455 6.96111 5.84594 7.02427 5.72419 7.02427ZM5.5028 8.33763C5.59374 8.31332 5.6697 8.25494 5.7168 8.17344C5.81381 8.00524 5.75586 7.7894 5.58777 7.69239C5.41946 7.59527 5.20373 7.65311 5.10672 7.82131C5.0096 7.98951 5.06733 8.20535 5.23564 8.30258C5.2899 8.33394 5.35013 8.34989 5.41122 8.34989C5.44172 8.34979 5.47252 8.34566 5.5028 8.33763ZM5.72416 9.64454C5.66437 9.64454 5.60393 9.62935 5.54858 9.59744C5.38049 9.50032 5.32254 9.2846 5.41966 9.11628C5.46665 9.03479 5.54262 8.97651 5.63355 8.9521C5.72406 8.92779 5.81923 8.94016 5.90083 8.98726C6.06914 9.08449 6.12687 9.30032 6.02975 9.46852C5.96453 9.58149 5.84592 9.64454 5.72416 9.64454ZM6.52749 10.5634C6.58174 10.5948 6.64186 10.6107 6.70296 10.6107C6.73356 10.6107 6.76438 10.6066 6.79476 10.5985C6.88559 10.5741 6.96156 10.5158 7.00854 10.4343C7.10567 10.2662 7.04794 10.0504 6.87963 9.95323C6.71142 9.85622 6.49559 9.91384 6.39847 10.0822C6.35137 10.1635 6.33889 10.2586 6.3632 10.3495C6.38773 10.4405 6.44599 10.5164 6.52749 10.5634ZM8.00002 10.9886C7.94023 10.9886 7.87979 10.9734 7.82444 10.9415C7.65624 10.8444 7.59841 10.6285 7.69564 10.4602C7.79276 10.292 8.00871 10.2342 8.1768 10.3313C8.345 10.4285 8.40273 10.6444 8.30572 10.8126C8.2405 10.9255 8.12189 10.9886 8.00002 10.9886ZM9.1408 10.5634C9.19506 10.5947 9.25518 10.6107 9.31638 10.6107C9.34699 10.6107 9.3778 10.6065 9.40819 10.5984C9.49913 10.574 9.57498 10.5157 9.62208 10.4342C9.66917 10.3528 9.68155 10.2579 9.65724 10.167C9.63282 10.0761 9.57454 10.0003 9.49305 9.95316C9.32485 9.85604 9.10912 9.91377 9.012 10.0821C8.91488 10.2504 8.9726 10.4662 9.1408 10.5634ZM10.6425 9.23792C10.6668 9.32886 10.6544 9.42392 10.6074 9.50531C10.5421 9.61817 10.4234 9.68121 10.3018 9.68132C10.242 9.68132 10.1815 9.66612 10.1262 9.63422C9.95799 9.53699 9.90026 9.32115 9.99728 9.15295C10.0944 8.98475 10.31 8.92669 10.4783 9.02403C10.5598 9.07113 10.6181 9.14698 10.6425 9.23792ZM10.9195 8.1734C10.9666 8.09201 10.9791 7.99706 10.9547 7.90623C10.9304 7.81529 10.8722 7.73933 10.7906 7.69234C10.7092 7.64524 10.6142 7.63266 10.5235 7.65707C10.4325 7.68149 10.3567 7.73976 10.3096 7.82126C10.2625 7.90276 10.25 7.9976 10.2744 8.08854C10.2987 8.17948 10.3569 8.25544 10.4385 8.30254C10.4927 8.3339 10.5529 8.34985 10.6141 8.34985C10.6447 8.34985 10.6754 8.34573 10.7058 8.33759C10.7966 8.31317 10.8724 8.255 10.9195 8.1734ZM10.2107 6.33178C10.3017 6.30758 10.3965 6.31995 10.4778 6.36705C10.5593 6.41404 10.6176 6.4901 10.6421 6.58082C10.6665 6.67165 10.6541 6.7666 10.607 6.8481C10.5418 6.96096 10.423 7.02411 10.3013 7.02422C10.2415 7.02422 10.1811 7.00903 10.1257 6.97702C9.9575 6.88001 9.89977 6.66406 9.99679 6.49597C10.0439 6.41447 10.1197 6.3562 10.2107 6.33178ZM9.01192 5.54525C8.91491 5.71345 8.97264 5.92929 9.14084 6.02641C9.1951 6.05777 9.25522 6.07372 9.31642 6.07372C9.34703 6.07372 9.37784 6.0697 9.40823 6.06157C9.49917 6.03715 9.57502 5.97887 9.62212 5.89738C9.66921 5.81599 9.68159 5.72103 9.65728 5.6301C9.63286 5.53927 9.57459 5.46331 9.49309 5.41632C9.32478 5.31909 9.10905 5.37704 9.01192 5.54525ZM11.6963 8.24985C11.5589 8.11245 11.5589 7.88913 11.6963 7.75175C11.8291 7.61871 12.0613 7.61872 12.1943 7.75176C12.2609 7.81828 12.2976 7.90672 12.2976 8.00081C12.2976 8.09489 12.2609 8.18333 12.1944 8.24985C12.1279 8.31649 12.0394 8.35316 11.9453 8.35316C11.8513 8.35316 11.7627 8.31648 11.6963 8.24985ZM9.98909 11.7742C10.0832 11.7742 10.1716 11.7375 10.2381 11.6709C10.3048 11.6045 10.3414 11.516 10.3414 11.4219C10.3414 11.3278 10.3048 11.2393 10.2381 11.1728C10.1052 11.0396 9.87296 11.0396 9.74003 11.1728C9.6734 11.2392 9.63672 11.3278 9.63672 11.4219C9.63672 11.516 9.6734 11.6044 9.74003 11.6709C9.80644 11.7375 9.89489 11.7742 9.98909 11.7742ZM7.54743 12.1351C7.47874 12.2037 7.38856 12.2381 7.29838 12.2381C7.20821 12.2381 7.11802 12.2039 7.04933 12.1352C6.91194 11.9978 6.91194 11.7744 7.04933 11.6371C7.18237 11.5038 7.4145 11.5038 7.54743 11.6371C7.61395 11.7036 7.65063 11.792 7.65063 11.8861C7.65063 11.9802 7.61395 12.0687 7.54743 12.1351ZM4.05698 9.08037C3.91981 9.21776 3.91981 9.44119 4.05698 9.57859C4.12567 9.64717 4.21585 9.68157 4.30613 9.68157C4.39631 9.68157 4.48649 9.64717 4.55518 9.57859C4.69246 9.44121 4.69246 9.21778 4.55518 9.08037C4.4178 8.9431 4.19438 8.9431 4.05698 9.08037ZM9.98909 4.93186C10.0832 4.93186 10.1716 4.89518 10.2381 4.82866C10.3048 4.76214 10.3414 4.6737 10.3414 4.57961C10.3414 4.48553 10.3048 4.39709 10.2381 4.33045C10.101 4.19307 9.87732 4.19307 9.74003 4.33045C9.6734 4.39697 9.63672 4.48542 9.63672 4.57961C9.63672 4.6737 9.6734 4.76214 9.74003 4.82866C9.80644 4.89518 9.89489 4.93186 9.98909 4.93186ZM11.257 5.67878C11.1883 5.74747 11.0981 5.78176 11.0079 5.78176C10.9177 5.78176 10.8276 5.74747 10.7588 5.67878C10.6214 5.54149 10.6214 5.31806 10.7588 5.18067C10.8962 5.04362 11.1194 5.04329 11.257 5.18067C11.3944 5.31797 11.3944 5.5415 11.257 5.67878ZM11.4717 6.4229C11.3343 6.56018 11.3343 6.78372 11.4717 6.92101C11.5403 6.9897 11.6306 7.02399 11.7207 7.02399C11.811 7.02399 11.9012 6.9897 11.9699 6.92101C12.1073 6.78362 12.1073 6.56019 11.9699 6.4229C11.8367 6.28986 11.6046 6.28986 11.4717 6.4229ZM11.7211 9.68141C11.6309 9.68141 11.5406 9.64701 11.472 9.57843C11.3349 9.44102 11.3348 9.21749 11.472 9.08021C11.6094 8.94283 11.8328 8.94315 11.9702 9.08021C12.1074 9.21761 12.1074 9.44104 11.9702 9.57843C11.9015 9.64701 11.8114 9.68141 11.7211 9.68141ZM11.0077 10.8665C11.098 10.8665 11.1883 10.8321 11.2569 10.7635C11.394 10.6261 11.394 10.4027 11.2569 10.2653C11.1193 10.1279 10.8957 10.1282 10.7586 10.2653C10.6215 10.4027 10.6215 10.6261 10.7586 10.7635C10.8274 10.8321 10.9175 10.8665 11.0077 10.8665ZM8.9201 12.1352C8.85152 12.2037 8.76123 12.2381 8.67105 12.2381C8.58077 12.2381 8.49058 12.2039 8.42189 12.1352C8.2845 11.9978 8.2845 11.7744 8.42189 11.6371C8.55515 11.5038 8.78717 11.5038 8.9201 11.6371C9.05748 11.7745 9.05748 11.9978 8.9201 12.1352ZM4.995 10.8664C5.08518 10.8664 5.17536 10.832 5.24405 10.7634C5.38132 10.6261 5.38132 10.4026 5.24405 10.2652C5.10666 10.1281 4.88323 10.1281 4.74594 10.2652C4.60877 10.4026 4.60877 10.626 4.74594 10.7634C4.81453 10.832 4.90471 10.8664 4.995 10.8664ZM4.30524 8.24641C4.23655 8.31499 4.14626 8.34939 4.05609 8.34939C3.96591 8.34939 3.87572 8.31499 3.80714 8.24641C3.66976 8.10911 3.66976 7.88568 3.80714 7.7483C3.94432 7.61092 4.16775 7.61092 4.30524 7.7483C4.44263 7.88559 4.44263 8.10902 4.30524 8.24641ZM4.05705 6.87191C4.12575 6.94061 4.21592 6.9749 4.30621 6.9749C4.39639 6.9749 4.48657 6.9406 4.55526 6.87191C4.62178 6.80539 4.65846 6.71695 4.65846 6.62276C4.65846 6.52867 4.62178 6.44023 4.55526 6.37371C4.42221 6.24066 4.19019 6.24066 4.05715 6.37371C3.91977 6.51109 3.91978 6.73462 4.05705 6.87191ZM4.99469 5.7822C4.90049 5.7822 4.81205 5.74552 4.74553 5.679C4.60825 5.54171 4.60825 5.31818 4.74563 5.1808C4.88292 5.04341 5.10635 5.04341 5.24373 5.1808C5.31025 5.24743 5.34693 5.33587 5.34693 5.42995C5.34693 5.52404 5.31025 5.61259 5.24373 5.679C5.17721 5.74552 5.08877 5.7822 4.99469 5.7822ZM5.78956 4.33045C5.65218 4.46784 5.65218 4.69127 5.78956 4.82856C5.85825 4.89725 5.94843 4.93154 6.03872 4.93154C6.1289 4.93154 6.21908 4.89725 6.28777 4.82856C6.42515 4.69118 6.42515 4.46775 6.28777 4.33045C6.15017 4.19318 5.92674 4.19329 5.78956 4.33045ZM6.26179 11.6709C6.19527 11.7375 6.10682 11.7742 6.01274 11.7742C5.91866 11.7742 5.8302 11.7376 5.76368 11.6709C5.6263 11.5335 5.6263 11.3102 5.76368 11.1728C5.89672 11.0396 6.12885 11.0396 6.26179 11.1728C6.32831 11.2393 6.36499 11.3278 6.36499 11.4219C6.36499 11.516 6.32831 11.6045 6.26179 11.6709ZM8.67089 4.46744C8.76498 4.46744 8.85342 4.43077 8.91994 4.36424C9.0571 4.22686 9.0571 4.00343 8.91994 3.86614C8.787 3.7331 8.55499 3.7331 8.42172 3.86614C8.28456 4.00352 8.28456 4.22695 8.42172 4.36424C8.48835 4.43077 8.5768 4.46744 8.67089 4.46744ZM4.36964 3.59942C4.23226 3.7368 4.23226 3.96023 4.36964 4.09752C4.43605 4.16404 4.5246 4.20072 4.61869 4.20072C4.71277 4.20072 4.80121 4.16404 4.86784 4.09752C5.00512 3.96014 5.00512 3.73671 4.86784 3.59942C4.73469 3.46637 4.5026 3.46637 4.36964 3.59942ZM3.89232 4.64348C3.95884 4.71011 3.99552 4.79856 3.99552 4.89264C3.99552 4.98683 3.95883 5.07528 3.89242 5.14169C3.82373 5.21038 3.73355 5.24467 3.64337 5.24467C3.55309 5.24467 3.46291 5.21038 3.39421 5.14169C3.32769 5.07517 3.29102 4.98673 3.29102 4.89264C3.29102 4.79845 3.32769 4.71 3.39421 4.64348C3.53151 4.50632 3.75494 4.5061 3.89232 4.64348ZM3.01654 6.53673C3.10671 6.53673 3.197 6.50243 3.26569 6.43374C3.40308 6.29636 3.40308 6.07293 3.26569 5.93564C3.12842 5.79836 2.90499 5.79826 2.76759 5.93564C2.63021 6.07302 2.63021 6.29645 2.76759 6.43374C2.83617 6.50233 2.92636 6.53673 3.01654 6.53673ZM2.35107 7.61014C2.35107 7.51606 2.38775 7.42751 2.45427 7.36109C2.59168 7.2236 2.81509 7.22382 2.95248 7.36109C3.019 7.42761 3.05568 7.51606 3.05568 7.61014C3.05568 7.70434 3.019 7.79278 2.95248 7.8593C2.88379 7.92788 2.7935 7.96228 2.70332 7.96228C2.61314 7.96228 2.52297 7.92788 2.45427 7.8593C2.38775 7.79267 2.35107 7.70423 2.35107 7.61014ZM3.0537 8.7669C2.91621 8.62951 2.69277 8.62973 2.55559 8.7669C2.41832 8.90428 2.41832 9.12771 2.55559 9.26511C2.62429 9.3337 2.71446 9.3681 2.80464 9.3681C2.89482 9.3681 2.9851 9.33369 3.0538 9.26511C3.19096 9.12784 3.19097 8.9043 3.0537 8.7669ZM2.89941 10.3878C2.89941 10.2937 2.93609 10.2052 3.00261 10.1388C3.13565 10.0055 3.36767 10.0055 3.50082 10.1388C3.56734 10.2053 3.60402 10.2937 3.60402 10.3878C3.60402 10.4819 3.56734 10.5704 3.50082 10.6369C3.43419 10.7035 3.34574 10.7402 3.25166 10.7402C3.15758 10.7402 3.06913 10.7035 3.00261 10.6369C2.93609 10.5703 2.89941 10.4819 2.89941 10.3878ZM4.3806 11.864C4.51798 11.7267 4.51798 11.5033 4.3806 11.3659C4.24322 11.2288 4.01979 11.2288 3.8825 11.3659C3.81598 11.4323 3.7793 11.5209 3.7793 11.615C3.7793 11.7091 3.81598 11.7975 3.8825 11.864C3.94891 11.9307 4.03746 11.9673 4.13154 11.9673C4.22552 11.9673 4.31408 11.9307 4.3806 11.864ZM4.99675 12.2633C5.12968 12.13 5.36181 12.13 5.49486 12.2633C5.63224 12.4006 5.63223 12.624 5.49496 12.7614C5.42833 12.828 5.33989 12.8647 5.2458 12.8647C5.15172 12.8647 5.06317 12.828 4.99675 12.7614C4.93023 12.6948 4.89355 12.6064 4.89355 12.5123C4.89355 12.4182 4.93023 12.3297 4.99675 12.2633ZM6.31145 12.8324C6.17418 12.9698 6.17418 13.1932 6.31145 13.3306C6.38015 13.3992 6.47032 13.4336 6.5605 13.4336C6.65067 13.4336 6.74096 13.3992 6.80966 13.3306C6.94693 13.1932 6.94693 12.9698 6.80966 12.8324C6.67206 12.695 6.44863 12.695 6.31145 12.8324ZM7.75139 13.5344C7.61412 13.397 7.61412 13.1736 7.75139 13.0362C7.8888 12.8991 8.11232 12.8991 8.24949 13.0362C8.38687 13.1736 8.38687 13.3971 8.24949 13.5344C8.18091 13.603 8.09062 13.6374 8.00044 13.6374C7.91015 13.6374 7.82009 13.603 7.75139 13.5344ZM9.19239 12.8325C9.05501 12.9699 9.05501 13.1933 9.19239 13.3307C9.26098 13.3993 9.35126 13.4337 9.44144 13.4337C9.53161 13.4337 9.6219 13.3993 9.69049 13.3307C9.82765 13.1933 9.82765 12.9699 9.69049 12.8325C9.55332 12.6953 9.32968 12.6953 9.19239 12.8325ZM10.4976 12.7614C10.3602 12.624 10.3602 12.4007 10.4976 12.2633C10.6308 12.13 10.8628 12.13 10.9958 12.2633C11.1332 12.4007 11.1332 12.624 10.9958 12.7614C10.9293 12.828 10.8408 12.8647 10.7467 12.8647C10.6526 12.8647 10.5642 12.828 10.4976 12.7614ZM11.6106 11.3238C11.544 11.3902 11.5073 11.4787 11.5073 11.5728C11.5073 11.6669 11.544 11.7554 11.6106 11.822C11.6792 11.8906 11.7695 11.925 11.8597 11.925C11.9499 11.925 12.0401 11.8906 12.1087 11.822C12.1754 11.7554 12.212 11.6669 12.212 11.5728C12.212 11.4787 12.1754 11.3903 12.1087 11.3238C11.9711 11.1865 11.7478 11.1865 11.6106 11.3238ZM12.9464 10.6922C12.8778 10.7607 12.7875 10.7951 12.6973 10.7951C12.6071 10.7951 12.5168 10.7607 12.4483 10.6922C12.3109 10.5548 12.3109 10.3313 12.4483 10.1939C12.5855 10.0568 12.8092 10.0568 12.9464 10.1939C13.0837 10.3313 13.0837 10.5548 12.9464 10.6922ZM13.4537 8.81638C13.3165 8.67921 13.0929 8.67921 12.9556 8.81638C12.8182 8.95376 12.8182 9.17719 12.9556 9.31459C13.0242 9.38318 13.1144 9.41757 13.2046 9.41757C13.2948 9.41757 13.3851 9.38317 13.4537 9.31459C13.5909 9.17721 13.591 8.95378 13.4537 8.81638ZM13.0493 7.85908C12.9119 7.72179 12.9119 7.49825 13.0493 7.36097C13.1823 7.22782 13.4143 7.22782 13.5475 7.36097C13.6849 7.49826 13.6849 7.72169 13.5475 7.85908C13.4788 7.92777 13.3887 7.96206 13.2984 7.96206C13.2082 7.96206 13.1179 7.92777 13.0493 7.85908ZM12.7625 5.93564C12.6254 6.07302 12.6254 6.29645 12.7625 6.43374C12.8313 6.50244 12.9214 6.53673 13.0116 6.53673C13.1019 6.53673 13.1922 6.50243 13.2607 6.43374C13.3979 6.29636 13.3979 6.07293 13.2607 5.93564C13.1233 5.79826 12.9001 5.79836 12.7625 5.93564ZM12.5969 5.14159C12.5302 5.20811 12.4418 5.24479 12.3477 5.24479C12.2536 5.24479 12.1652 5.20811 12.0986 5.14159C11.9613 5.0043 11.9613 4.78087 12.0986 4.64348C12.236 4.50621 12.4595 4.50621 12.5969 4.64348C12.7342 4.78077 12.7342 5.00431 12.5969 5.14159ZM11.3206 4.2007C11.4147 4.2007 11.5032 4.16402 11.5697 4.0975C11.6363 4.03098 11.673 3.94254 11.673 3.84845C11.673 3.75437 11.6363 3.66593 11.5697 3.59929C11.4367 3.46625 11.2045 3.46625 11.0716 3.59929C11.0049 3.66581 10.9683 3.75426 10.9683 3.84845C10.9683 3.94254 11.0049 4.03098 11.0716 4.0975C11.1381 4.16402 11.2265 4.2007 11.3206 4.2007ZM10.3692 3.36502C10.3006 3.43371 10.2103 3.468 10.12 3.468C10.0298 3.468 9.93974 3.43371 9.87094 3.36502C9.73378 3.22773 9.73378 3.0043 9.87094 2.86691C10.0083 2.72964 10.2316 2.72953 10.3692 2.86691C10.5063 3.0042 10.5063 3.22763 10.3692 3.36502ZM4.69359 2.55085C4.62696 2.61737 4.53852 2.65405 4.44443 2.65405C4.35024 2.65405 4.26179 2.61736 4.19548 2.55095C4.12896 2.48443 4.09229 2.39599 4.09229 2.3019C4.09229 2.20771 4.12896 2.11926 4.19548 2.05274C4.33278 1.91536 4.55621 1.91536 4.69359 2.05274C4.83086 2.19004 4.83086 2.41357 4.69359 2.55085ZM3.25156 3.61825C3.34174 3.61825 3.43203 3.58385 3.50072 3.51526C3.56724 3.44874 3.60392 3.3603 3.60392 3.26611C3.60392 3.17202 3.56724 3.08358 3.50072 3.01706C3.36344 2.87978 3.14002 2.87968 3.00261 3.01706C2.93609 3.08347 2.89941 3.17202 2.89941 3.26611C2.89941 3.36019 2.93609 3.44863 3.00261 3.51526C3.0712 3.58396 3.16138 3.61825 3.25156 3.61825ZM2.55126 4.67736C2.48474 4.74388 2.39629 4.78055 2.30221 4.78055C2.20812 4.78055 2.11956 4.74388 2.05315 4.67736C1.91588 4.54006 1.91588 4.31663 2.05315 4.17925C2.18619 4.04621 2.41832 4.04621 2.55126 4.17925C2.68864 4.31654 2.68864 4.53997 2.55126 4.67736ZM1.66546 6.14667C1.75564 6.14667 1.84593 6.11238 1.91462 6.04369C2.05189 5.90631 2.05189 5.68287 1.91462 5.54558C1.78157 5.41254 1.54944 5.41254 1.41651 5.54558C1.27913 5.68297 1.27913 5.9064 1.41651 6.04369C1.4851 6.11227 1.57517 6.14667 1.66546 6.14667ZM1.60163 7.49828C1.53294 7.56697 1.44265 7.60126 1.35247 7.60126C1.26229 7.60126 1.17211 7.56697 1.10353 7.49828C0.966143 7.36099 0.966143 7.13756 1.10353 7.00017C1.23646 6.86713 1.46859 6.86713 1.60163 7.00017C1.7389 7.13746 1.7389 7.3609 1.60163 7.49828ZM1.6013 8.98025C1.73869 8.84287 1.73869 8.61955 1.6013 8.48215C1.46392 8.34498 1.24049 8.34498 1.1032 8.48215C1.03668 8.54856 1 8.63711 1 8.73119C1 8.82528 1.03668 8.91372 1.1032 8.98024C1.16961 9.04687 1.25816 9.08355 1.35225 9.08355C1.44622 9.08355 1.53478 9.04688 1.6013 8.98025ZM7.02044 14.8984C6.88316 14.761 6.88316 14.5375 7.02044 14.4002C7.15773 14.263 7.38115 14.2629 7.51864 14.4002C7.65592 14.5376 7.65592 14.761 7.51864 14.8984C7.44995 14.967 7.35966 15.0014 7.26948 15.0014C7.17931 15.0014 7.08913 14.967 7.02044 14.8984ZM8.50392 14.4002C8.36653 14.5376 8.36653 14.7611 8.50392 14.8985C8.5725 14.967 8.66279 15.0014 8.75296 15.0014C8.84314 15.0014 8.93343 14.967 9.00201 14.8985C9.13939 14.7611 9.13939 14.5376 9.00201 14.4002C8.86484 14.2631 8.64121 14.2631 8.50392 14.4002ZM10.0093 14.5223C9.8719 14.3851 9.8719 14.1615 10.0093 14.0241C10.1466 13.887 10.3701 13.8867 10.5075 14.0241C10.6449 14.1616 10.6449 14.3851 10.5075 14.5223C10.4389 14.5909 10.3486 14.6253 10.2584 14.6253C10.1682 14.6253 10.0781 14.5909 10.0093 14.5223ZM11.2982 13.3977C11.161 13.5351 11.161 13.7585 11.2982 13.8959C11.367 13.9645 11.4571 13.9989 11.5472 13.9989C11.6375 13.9989 11.7278 13.9645 11.7964 13.8959C11.9336 13.7585 11.9336 13.5351 11.7964 13.3977C11.6587 13.2603 11.4351 13.2607 11.2982 13.3977ZM12.4961 12.9433C12.3587 12.8058 12.3587 12.5822 12.4961 12.4451C12.6334 12.308 12.8566 12.3077 12.9943 12.4451C13.1317 12.5823 13.1317 12.8058 12.9943 12.9433C12.9257 13.0119 12.8354 13.0463 12.7451 13.0463C12.655 13.0463 12.5649 13.0119 12.4961 12.9433ZM13.4507 11.3239C13.3133 11.461 13.3133 11.6846 13.4507 11.8221C13.5195 11.8907 13.6096 11.9251 13.6997 11.9251C13.79 11.9251 13.8803 11.8907 13.9489 11.8221C14.0863 11.6846 14.0863 11.461 13.9489 11.3239C13.8112 11.1865 13.588 11.1868 13.4507 11.3239ZM13.9844 10.2015C13.9844 10.1074 14.0211 10.0188 14.0877 9.9524C14.2205 9.81925 14.4527 9.81925 14.5858 9.9524C14.6524 10.0189 14.6891 10.1074 14.6891 10.2015C14.6891 10.2955 14.6524 10.3841 14.5858 10.4505C14.5193 10.5171 14.4308 10.5538 14.3367 10.5538C14.2426 10.5538 14.1541 10.5171 14.0877 10.4505C14.0211 10.384 13.9844 10.2955 13.9844 10.2015ZM14.8986 8.50314C14.7611 8.36576 14.5379 8.36554 14.4004 8.50314C14.263 8.64053 14.263 8.86384 14.4004 9.00125C14.4692 9.07005 14.5593 9.10423 14.6494 9.10423C14.7397 9.10423 14.8299 9.07005 14.8986 9.00125C15.036 8.86386 15.036 8.64055 14.8986 8.50314ZM14.4002 7.4982C14.2631 7.36091 14.2631 7.13747 14.4002 7.00009C14.5378 6.86282 14.761 6.86271 14.8984 7.00009C15.0356 7.13738 15.0356 7.36081 14.8984 7.4982C14.8298 7.56678 14.7396 7.60107 14.6493 7.60107C14.5591 7.60107 14.469 7.56678 14.4002 7.4982ZM14.0877 6.04354C14.1563 6.11224 14.2466 6.14653 14.3367 6.14653C14.4269 6.14653 14.5172 6.11223 14.5858 6.04354C14.6524 5.97702 14.6891 5.88858 14.6891 5.79439C14.6891 5.7003 14.6524 5.61186 14.5858 5.54534C14.4529 5.4123 14.2206 5.4123 14.0877 5.54534C14.0211 5.61186 13.9844 5.7003 13.9844 5.79439C13.9844 5.88847 14.0211 5.97702 14.0877 6.04354ZM13.8862 4.67727C13.8176 4.74596 13.7274 4.78026 13.6371 4.78026C13.547 4.78026 13.4568 4.74597 13.388 4.67727C13.2509 4.53998 13.2509 4.31655 13.388 4.17917C13.5251 4.042 13.7486 4.04168 13.8862 4.17917C14.0234 4.31646 14.0234 4.53989 13.8862 4.67727ZM12.7452 3.65579C12.8354 3.65579 12.9256 3.62149 12.9943 3.5528C13.1317 3.41553 13.1317 3.19199 12.9943 3.0547C12.8567 2.91742 12.6335 2.91753 12.4961 3.0547C12.3587 3.19208 12.3587 3.41551 12.4961 3.5528C12.5649 3.6215 12.6551 3.65579 12.7452 3.65579ZM11.7961 2.55085C11.7274 2.61954 11.6372 2.65383 11.5469 2.65383C11.4569 2.65383 11.3667 2.61954 11.2979 2.55085C11.1605 2.41356 11.1605 2.19013 11.2979 2.05274C11.4353 1.91558 11.6585 1.91547 11.7961 2.05274C11.9335 2.19004 11.9335 2.41357 11.7961 2.55085ZM10.1907 2.01725C10.2809 2.01725 10.3712 1.98296 10.4398 1.91427C10.5064 1.84775 10.5431 1.75931 10.5431 1.66511C10.5431 1.57103 10.5064 1.48259 10.4398 1.41607C10.3069 1.28302 10.0746 1.28302 9.94169 1.41607C9.87506 1.48248 9.83838 1.57103 9.83838 1.66511C9.83838 1.7592 9.87506 1.84764 9.94169 1.91427C10.0103 1.98296 10.1006 2.01725 10.1907 2.01725ZM5.42334 14.3361C5.42334 14.242 5.46002 14.1534 5.52654 14.087C5.65947 13.9537 5.8917 13.9537 6.02463 14.087C6.09115 14.1535 6.12783 14.242 6.12783 14.3361C6.12783 14.4301 6.09115 14.5187 6.02463 14.5851C5.95811 14.6517 5.86967 14.6884 5.77559 14.6884C5.6815 14.6884 5.59295 14.6517 5.52654 14.5851C5.46002 14.5186 5.42334 14.4301 5.42334 14.3361ZM4.19524 13.3977C4.05797 13.5351 4.05797 13.7585 4.19524 13.8959C4.26393 13.9645 4.354 13.9989 4.44429 13.9989C4.53447 13.9989 4.62475 13.9645 4.69345 13.8959C4.83061 13.7585 4.83061 13.5351 4.69345 13.3977C4.55595 13.2605 4.33253 13.2605 4.19524 13.3977ZM3.00286 13.0003C2.86558 12.8629 2.86558 12.6395 3.00286 12.5021C3.14004 12.365 3.36346 12.3647 3.50106 12.5021C3.63834 12.6395 3.63834 12.863 3.50106 13.0003C3.43237 13.0689 3.34208 13.1033 3.25191 13.1033C3.16173 13.1033 3.07155 13.0689 3.00286 13.0003ZM2.05266 11.3238C1.91539 11.4609 1.91539 11.6845 2.05266 11.822C2.12136 11.8906 2.21153 11.925 2.30182 11.925C2.392 11.925 2.48218 11.8906 2.55087 11.822C2.61739 11.7554 2.65407 11.6669 2.65407 11.5728C2.65407 11.4787 2.61739 11.3903 2.55087 11.3238C2.41348 11.1865 2.19007 11.1865 2.05266 11.3238ZM1.41619 9.95236C1.54912 9.8191 1.78125 9.8191 1.91429 9.95236C2.05168 10.0898 2.05167 10.3131 1.91439 10.4505C1.84776 10.5171 1.75932 10.5538 1.66523 10.5538C1.57115 10.5538 1.4826 10.5171 1.41619 10.4505C1.34967 10.3839 1.31299 10.2955 1.31299 10.2014C1.31299 10.1073 1.34967 10.0188 1.41619 9.95236Z" fill="#808080"/>
</svg>
