<?xml version="1.0" standalone="no"?>
<!DOCTYPE svg PUBLIC "-//W3C//DTD SVG 20010904//EN"
 "http://www.w3.org/TR/2001/REC-SVG-20010904/DTD/svg10.dtd">
<svg version="1.0" xmlns="http://www.w3.org/2000/svg"
 width="64.000000pt" height="64.000000pt" viewBox="0 0 64.000000 64.000000"
 preserveAspectRatio="xMidYMid meet">

<g transform="translate(0.000000,64.000000) scale(0.100000,-0.100000)"
fill="#000000" stroke="none">
<path d="M220 623 c-191 -66 -274 -276 -180 -452 37 -69 69 -99 144 -139 43
-22 64 -26 132 -27 73 0 88 3 150 35 163 83 220 271 132 432 -75 136 -236 201
-378 151z m65 -110 c33 -16 37 -16 70 0 53 25 64 22 122 -35 58 -57 61 -70 36
-123 -16 -33 -16 -37 0 -70 25 -53 22 -64 -35 -122 -57 -58 -70 -61 -123 -36
-33 16 -37 16 -70 0 -53 -25 -64 -22 -122 35 -58 57 -61 70 -36 123 16 33 16
37 0 70 -25 53 -22 64 35 122 57 58 70 61 123 36z"/>
<path d="M232 407 c-39 -40 -72 -81 -72 -90 0 -28 131 -157 160 -157 32 0 160
127 160 159 0 28 -129 161 -157 161 -10 0 -51 -33 -91 -73z m133 -42 c14 -13
25 -33 25 -45 0 -27 -43 -70 -70 -70 -27 0 -70 43 -70 70 0 27 43 70 70 70 12
0 32 -11 45 -25z"/>
</g>
</svg>
