<svg width="25" height="37" viewBox="0 0 25 37" fill="none" xmlns="http://www.w3.org/2000/svg">
<g clip-path="url(#clip0_16028_40485)">
<g clip-path="url(#clip1_16028_40485)">
<path fill-rule="evenodd" clip-rule="evenodd" d="M12.4999 36.0131C19.1095 36.0131 24.4999 30.6227 24.4999 24.0131C24.4999 17.4047 19.1095 12.0131 12.4999 12.0131C5.89154 12.0131 0.499939 17.4047 0.499939 24.0131C0.498739 30.6227 5.89034 36.0131 12.4999 36.0131Z" fill="#E7E9F1"/>
<path d="M12.4988 15.0131L12.378 15.4233V27.3253L12.4988 27.4458L18.0235 24.1801L12.4988 15.0131Z" fill="#2F3030"/>
<path d="M12.4981 15.0131L6.97327 24.1801L12.4981 27.4458V21.6689V15.0131Z" fill="#828384"/>
<path d="M12.4986 28.4917L12.4305 28.5747V32.8144L12.4986 33.0131L18.0267 25.2277L12.4986 28.4917Z" fill="#2F3030"/>
<path d="M12.4983 33.0131V28.4917L6.97345 25.2277L12.4983 33.0131Z" fill="#828384"/>
<path d="M12.4985 27.4457L18.0232 24.18L12.4985 21.6688V27.4457Z" fill="#181919"/>
<path d="M6.97345 24.18L12.4983 27.4457V21.6688L6.97345 24.18Z" fill="#292929"/>
</g>
<circle cx="12.5" cy="12.013" r="12.3" fill="#2474DA" stroke="white" stroke-width="0.599998"/>
<path d="M10.7931 16.8048C10.2604 16.9954 9.68369 17.0981 9.08502 17.0981C6.27735 17.0981 3.99994 14.8231 3.99994 12.013C3.99994 9.20289 6.27735 6.92792 9.08502 6.92792C9.68369 6.92792 10.2579 7.03055 10.7931 7.22115C8.82356 7.92245 7.41361 9.80401 7.41361 12.013C7.41361 14.222 8.82356 16.1035 10.7931 16.8048ZM15.9148 6.92792C15.3161 6.92792 14.7419 7.03055 14.2068 7.22115C16.1763 7.92245 17.5862 9.80401 17.5862 12.013C17.5862 14.222 16.1763 16.1035 14.2068 16.8048C14.7394 16.9954 15.3161 17.0981 15.9148 17.0981C18.7249 17.0981 20.9999 14.8207 20.9999 12.013C20.9999 9.20533 18.7225 6.92792 15.9148 6.92792Z" fill="white"/>
</g>
<defs>
<clipPath id="clip0_16028_40485">
<rect width="24" height="35.9999" fill="white" transform="translate(0.499939 0.0130615)"/>
</clipPath>
<clipPath id="clip1_16028_40485">
<rect width="24" height="24" fill="white" transform="translate(0.499939 12.0131)"/>
</clipPath>
</defs>
</svg>
