<svg width="20" height="21" viewBox="0 0 20 21" fill="none" xmlns="http://www.w3.org/2000/svg">
<g clip-path="url(#clip0_11186_183290)">
<rect y="0.828125" width="20" height="20" fill="#2150A9"/>
<path d="M5.19531 9.15245C5.19531 9.22731 5.27017 9.30216 5.34503 9.30216H7.16388V10.2267H5.34503C5.27017 10.2267 5.19531 10.3016 5.19531 10.3764V11.901C5.19531 11.9759 5.27017 12.0507 5.34503 12.0507H7.16388V15.6999C7.16388 15.7747 7.2136 15.825 7.28846 15.825H9.03303C9.10788 15.825 9.1576 15.7753 9.1576 15.6999V12.2519C9.1576 12.177 9.20731 12.1267 9.28217 12.1267H10.6782C10.7279 12.1267 10.7776 12.1519 10.8027 12.2016L12.3479 15.7759C12.373 15.8256 12.4227 15.8507 12.4725 15.8507H14.3416C14.441 15.8507 14.4913 15.7507 14.4662 15.6759L12.921 12.1764C12.8959 12.1016 12.921 12.0267 12.9959 12.0016C13.7433 11.7267 14.217 11.0519 14.217 10.1519V7.90216C14.217 6.75245 13.2702 5.80273 12.1233 5.80273H7.28846C7.2136 5.80273 7.16388 5.85302 7.16388 5.92788V7.47759H5.34503C5.27017 7.47759 5.19531 7.55245 5.19531 7.62731V9.15245Z" fill="#F9EDDD"/>
<path d="M9.15625 7.82827C9.15625 7.75341 9.20596 7.70312 9.28082 7.70312H11.6237C11.9477 7.70312 12.222 7.97798 12.222 8.30312V9.65284C12.222 9.97798 11.9477 10.2528 11.6237 10.2528H9.28082C9.20596 10.2528 9.15625 10.2026 9.15625 10.1277V7.82827Z" fill="#2150A9"/>
</g>
<defs>
<clipPath id="clip0_11186_183290">
<rect width="20" height="20" fill="white" transform="translate(0 0.828125)"/>
</clipPath>
</defs>
</svg>
