<svg width="25" height="37" viewBox="0 0 25 37" fill="none" xmlns="http://www.w3.org/2000/svg">
<g clip-path="url(#clip0_16024_119803)">
<g clip-path="url(#clip1_16024_119803)">
<path fill-rule="evenodd" clip-rule="evenodd" d="M12.4999 36.0131C19.1095 36.0131 24.4999 30.6227 24.4999 24.0131C24.4999 17.4047 19.1095 12.0131 12.4999 12.0131C5.89154 12.0131 0.499939 17.4047 0.499939 24.0131C0.498739 30.6227 5.89034 36.0131 12.4999 36.0131Z" fill="#E7E9F1"/>
<path d="M12.4988 15.0131L12.378 15.4233V27.3253L12.4988 27.4458L18.0235 24.1801L12.4988 15.0131Z" fill="#2F3030"/>
<path d="M12.4981 15.0131L6.97327 24.1801L12.4981 27.4458V21.6689V15.0131Z" fill="#828384"/>
<path d="M12.4986 28.4917L12.4305 28.5747V32.8144L12.4986 33.0131L18.0267 25.2277L12.4986 28.4917Z" fill="#2F3030"/>
<path d="M12.4983 33.0131V28.4917L6.97345 25.2277L12.4983 33.0131Z" fill="#828384"/>
<path d="M12.4985 27.4457L18.0232 24.18L12.4985 21.6688V27.4457Z" fill="#181919"/>
<path d="M6.97345 24.18L12.4983 27.4457V21.6688L6.97345 24.18Z" fill="#292929"/>
</g>
<g clip-path="url(#clip2_16024_119803)">
<path d="M12.4999 23.3756C18.7752 23.3756 23.8624 18.2884 23.8624 12.0131C23.8624 5.73772 18.7752 0.650558 12.4999 0.650558C6.22455 0.650558 1.13739 5.73772 1.13739 12.0131C1.13739 18.2884 6.22455 23.3756 12.4999 23.3756Z" fill="white" stroke="#0052FF" stroke-width="1.20111"/>
<path d="M17.8917 10.5281C18.1272 8.95606 16.9294 8.11081 15.2929 7.54681L15.8239 5.41681L14.5279 5.09431L14.0104 7.16806C13.6699 7.08256 13.3204 7.00306 12.9717 6.92356L13.4929 4.83631L12.1969 4.51306L11.6659 6.64231C11.3839 6.57781 11.1064 6.51481 10.8379 6.44731L10.8394 6.44056L9.05143 5.99431L8.70643 7.37881C8.70643 7.37881 9.66868 7.59931 9.64843 7.61281C10.1734 7.74406 10.2679 8.09131 10.2522 8.36731L9.64768 10.7936C9.68368 10.8026 9.73018 10.8161 9.78268 10.8363L9.64543 10.8026L8.79793 14.2016C8.73343 14.3606 8.57068 14.5998 8.20318 14.5091C8.21668 14.5278 7.26118 14.2743 7.26118 14.2743L6.61768 15.7578L8.30518 16.1786C8.61868 16.2573 8.92618 16.3398 9.22843 16.4171L8.69218 18.5711L9.98743 18.8936L10.5184 16.7636C10.8724 16.8588 11.2159 16.9473 11.5519 17.0313L11.0224 19.1523L12.3184 19.4748L12.8547 17.3253C15.0657 17.7438 16.7277 17.5751 17.4274 15.5756C17.9914 13.9661 17.3997 13.0368 16.2364 12.4316C17.0839 12.2366 17.7214 11.6793 17.8917 10.5281ZM14.9292 14.6816C14.5294 16.2918 11.8182 15.4211 10.9392 15.2028L11.6517 12.3491C12.5307 12.5688 15.3484 13.0031 14.9292 14.6816ZM15.3304 10.5048C14.9652 11.9696 12.7092 11.2248 11.9779 11.0426L12.6229 8.45506C13.3542 8.63731 15.7114 8.97706 15.3304 10.5048Z" fill="#0052FF"/>
</g>
<rect x="0.199939" y="-0.286938" width="24.6" height="24.6" rx="12.3" stroke="white" stroke-width="0.6"/>
</g>
<defs>
<clipPath id="clip0_16024_119803">
<rect width="24" height="36" fill="white" transform="translate(0.499939 0.0130615)"/>
</clipPath>
<clipPath id="clip1_16024_119803">
<rect width="24" height="24" fill="white" transform="translate(0.499939 12.0131)"/>
</clipPath>
<clipPath id="clip2_16024_119803">
<rect x="0.499939" y="0.0130615" width="24" height="24" rx="12" fill="white"/>
</clipPath>
</defs>
</svg>
