<svg width="25" height="37" viewBox="0 0 25 37" fill="none" xmlns="http://www.w3.org/2000/svg">
<g clip-path="url(#clip0_16028_40462)">
<g clip-path="url(#clip1_16028_40462)">
<path fill-rule="evenodd" clip-rule="evenodd" d="M12.4999 36.0131C19.1095 36.0131 24.4999 30.6227 24.4999 24.0131C24.4999 17.4047 19.1095 12.0131 12.4999 12.0131C5.89154 12.0131 0.499939 17.4047 0.499939 24.0131C0.498739 30.6227 5.89034 36.0131 12.4999 36.0131Z" fill="#E7E9F1"/>
<path d="M12.4988 15.0131L12.378 15.4233V27.3253L12.4988 27.4458L18.0235 24.1801L12.4988 15.0131Z" fill="#2F3030"/>
<path d="M12.4981 15.0131L6.97327 24.1801L12.4981 27.4458V21.6689V15.0131Z" fill="#828384"/>
<path d="M12.4986 28.4917L12.4305 28.5747V32.8144L12.4986 33.0131L18.0267 25.2277L12.4986 28.4917Z" fill="#2F3030"/>
<path d="M12.4983 33.0131V28.4917L6.97345 25.2277L12.4983 33.0131Z" fill="#828384"/>
<path d="M12.4985 27.4457L18.0232 24.18L12.4985 21.6688V27.4457Z" fill="#181919"/>
<path d="M6.97345 24.18L12.4983 27.4457V21.6688L6.97345 24.18Z" fill="#292929"/>
</g>
<path d="M12.4999 24.3131C19.293 24.3131 24.7999 18.8062 24.7999 12.0131C24.7999 5.21996 19.293 -0.286938 12.4999 -0.286938C5.70683 -0.286938 0.199939 5.21996 0.199939 12.0131C0.199939 18.8062 5.70683 24.3131 12.4999 24.3131Z" fill="#A36EFD" stroke="white" stroke-width="0.6"/>
<path d="M16.794 6.30504C15.7594 6.18619 15.0695 6.12677 12.5249 6.12677C10.3418 6.12677 9.27781 6.20586 8.25582 6.30504C7.77808 6.35135 7.39703 6.71485 7.43211 7.19555L7.99717 14.893L12.5245 16.5154L17.0523 14.893L17.6173 7.19555C17.6528 6.71485 17.2705 6.35995 16.7936 6.30504H16.794Z" fill="#4C2897"/>
<path d="M18.2093 12.9539C18.2093 12.9539 17.2445 13.5334 16.8952 13.6662C15.8459 14.0657 12.5254 14.6952 12.5254 14.6952C12.5254 14.6952 9.20442 14.0661 8.15551 13.6662C7.80628 13.533 6.8414 12.9539 6.8414 12.9539C6.24004 12.6281 5.56892 13.0961 5.56769 13.7825C5.56565 14.8935 6.43342 16.0344 7.60392 16.7537C8.92373 17.5647 10.8939 17.9011 12.5254 17.9011C14.1569 17.9011 16.127 17.5647 17.4468 16.7537C18.6173 16.0344 19.4851 14.8931 19.4831 13.7825C19.4818 13.0961 18.8107 12.6281 18.2093 12.9539Z" fill="#4C2897"/>
<path d="M17.2612 12.38C16.5178 12.5898 15.3588 13.173 12.5249 13.173C9.69111 13.173 8.53204 12.5898 7.7887 12.38C7.66386 12.3448 7.54187 12.4431 7.54881 12.5734L7.64958 14.409C7.65325 14.4786 7.67936 14.5442 7.72342 14.5979C8.03145 14.9708 9.41246 16.272 12.5245 16.272C15.6366 16.272 17.0009 14.9876 17.3203 14.6049C17.3685 14.5471 17.3962 14.4754 17.4007 14.4L17.5011 12.5734C17.5084 12.4435 17.386 12.3448 17.2612 12.38Z" fill="#A36EFD"/>
</g>
<defs>
<clipPath id="clip0_16028_40462">
<rect width="24" height="36" fill="white" transform="translate(0.499939 0.0130615)"/>
</clipPath>
<clipPath id="clip1_16028_40462">
<rect width="24" height="24" fill="white" transform="translate(0.499939 12.0131)"/>
</clipPath>
</defs>
</svg>
